<svg width="35" height="35" viewBox="0 0 35 35" fill="none" xmlns="http://www.w3.org/2000/svg">
<path d="M26.4405 33.3174L22.8946 29.7711C22.7708 29.6474 22.6029 29.5778 22.4278 29.5778C22.4275 29.5778 22.4271 29.5778 22.4269 29.5778L20.5244 29.5805C20.5202 29.5805 20.5161 29.5805 20.5119 29.5805C19.4618 29.5805 18.4097 29.3874 17.4251 29.0189L18.5668 28.2533C19.0341 27.94 19.3483 27.4628 19.4516 26.9098C19.5549 26.3566 19.434 25.7982 19.1113 25.3372C18.71 24.7642 18.0638 24.4531 17.4058 24.4531C17.3951 24.4531 17.3844 24.4531 17.3736 24.4533L20.0033 21.8237C20.801 21.0259 20.801 19.7277 20.0033 18.9299C19.8092 18.7358 19.5829 18.5856 19.3365 18.484C19.5191 18.1736 19.6168 17.819 19.6168 17.4493C19.6168 16.9028 19.4039 16.3889 19.0175 16.0024C18.631 15.6159 18.1171 15.403 17.5705 15.403C17.2009 15.403 16.8463 15.5007 16.5358 15.6833C16.4343 15.4369 16.2841 15.2107 16.09 15.0165C15.7035 14.63 15.1896 14.4172 14.643 14.4172C14.0964 14.4172 13.5825 14.63 13.196 15.0165L12.2518 15.9607C12.1514 15.7395 12.0114 15.5356 11.8344 15.3586C11.4479 14.9721 10.9341 14.7593 10.3875 14.7593C9.84088 14.7593 9.32702 14.9721 8.94052 15.3586L8.522 15.7771L6.82052 14.0852C6.32627 13.5909 6.32627 12.7867 6.82052 12.2925C7.28354 11.8294 8.01851 11.8003 8.51586 12.2046L10.1637 13.8525C10.2926 13.9815 10.4616 14.0459 10.6305 14.0459C10.7995 14.0459 10.9685 13.9814 11.0974 13.8525C11.3552 13.5947 11.3552 13.1766 11.0974 12.9188L8.25467 10.0761C7.76042 9.58182 7.76042 8.77759 8.25467 8.28334C8.74892 7.78903 9.55321 7.78909 10.0475 8.28334L15.028 13.2735C15.157 13.4024 15.3259 13.4669 15.4949 13.4669C15.6638 13.4669 15.8329 13.4024 15.9617 13.2735C16.2196 13.0157 16.2196 12.5976 15.9617 12.3398L12.176 8.54446C11.7717 8.04704 11.8009 7.31214 12.2639 6.84919C12.7582 6.35494 13.5625 6.35494 14.0566 6.84919L15.4437 8.23627C15.7015 8.49415 16.1196 8.49415 16.3774 8.23627C16.6352 7.97845 16.6352 7.56039 16.3774 7.30257L14.9903 5.91549C13.9812 4.90639 12.3393 4.90646 11.3302 5.91549C10.9967 6.24897 10.7742 6.65171 10.6611 7.07776C10.2239 6.7623 9.70078 6.59163 9.15107 6.59163C8.45974 6.59163 7.80981 6.86087 7.32097 7.34964C6.41263 8.25799 6.32244 9.67887 7.04935 10.6897C6.62324 10.8027 6.22037 11.0253 5.88682 11.3588C4.9345 12.3112 4.88142 13.8269 5.72658 14.8427C5.30991 14.9577 4.91648 15.1781 4.5896 15.5049C3.58057 16.514 3.58057 18.156 4.5896 19.1651L4.88426 19.4598C3.77012 20.7976 3.16462 22.4667 3.16713 24.2293L3.16872 25.3229L0.459723 28.0321C0.201902 28.2899 0.201902 28.708 0.459723 28.9659C0.588666 29.0947 0.757619 29.1592 0.926572 29.1592C1.09552 29.1592 1.26454 29.0947 1.39342 28.9659L4.29619 26.063C4.42025 25.939 4.48984 25.7706 4.48957 25.5952L4.48759 24.2275C4.48522 22.5866 5.12306 21.0437 6.28342 19.8833L9.55988 16.6068C9.55988 16.6068 9.55988 16.6067 9.55995 16.6067L9.87422 16.2925C10.0113 16.1553 10.1935 16.0799 10.3874 16.0799C10.5813 16.0799 10.7635 16.1553 10.9006 16.2925C11.0377 16.4295 11.1132 16.6118 11.1132 16.8057C11.1132 16.9721 11.0572 17.1298 10.9546 17.2579L10.0819 18.1307C9.82404 18.3885 9.82404 18.8066 10.0819 19.0644C10.0825 19.065 10.0831 19.0655 10.0836 19.0661C10.0842 19.0667 10.0847 19.0673 10.0853 19.0679C10.2142 19.1968 10.3832 19.2613 10.5521 19.2613C10.7211 19.2613 10.8901 19.1968 11.019 19.0679L14.1296 15.9503C14.2667 15.8132 14.4489 15.7377 14.6428 15.7377C14.8367 15.7377 15.0189 15.8133 15.156 15.9503C15.4194 16.2138 15.4373 16.6309 15.2102 16.9156L12.0419 20.0908C11.7841 20.3487 11.7841 20.7667 12.0419 21.0246C12.1708 21.1535 12.3398 21.218 12.5087 21.218C12.6777 21.218 12.8467 21.1535 12.9756 21.0246L17.0571 16.9362C17.1941 16.7991 17.3764 16.7236 17.5703 16.7236C17.7642 16.7236 17.9464 16.7991 18.0835 16.9362C18.3664 17.2192 18.3664 17.6796 18.0835 17.9626L13.9951 22.044C13.7373 22.3018 13.7372 22.7199 13.9951 22.9778C14.253 23.2355 14.6711 23.2356 14.9288 22.9778L18.1041 19.8095C18.3888 19.5823 18.8059 19.6002 19.0693 19.8637C19.3523 20.1466 19.3523 20.6071 19.0693 20.8901L14.6118 25.3477C14.2978 25.6617 14.2687 26.1431 14.5428 26.4925C14.8168 26.8419 15.2913 26.9285 15.6711 26.6982L17.0178 25.8819C17.3573 25.6759 17.8016 25.7695 18.0293 26.0948C18.1469 26.2627 18.1909 26.466 18.1532 26.6675C18.1156 26.8689 18.0012 27.0427 17.8311 27.1568L14.7155 29.246C13.7017 29.9258 12.5211 30.2849 11.3006 30.2849C11.2978 30.2849 11.2948 30.2849 11.292 30.2849L9.17589 30.2819C9.17556 30.2819 9.1753 30.2819 9.17497 30.2819C8.99988 30.2819 8.83191 30.3515 8.70812 30.4753L5.80528 33.3781C5.54746 33.6359 5.54746 34.054 5.80528 34.3119C5.93422 34.4408 6.10318 34.5053 6.27213 34.5053C6.44108 34.5053 6.6101 34.4408 6.73898 34.3119L9.44804 31.6028L11.2901 31.6055C11.2936 31.6055 11.297 31.6055 11.3006 31.6055C12.7838 31.6055 14.2189 31.1689 15.4509 30.3428L16.118 29.8954C17.4813 30.5533 18.9981 30.9011 20.5116 30.9011C20.5163 30.9011 20.5212 30.9011 20.526 30.9011L22.1544 30.8988L25.5068 34.2512C25.6357 34.3801 25.8047 34.4446 25.9736 34.4446C26.1426 34.4446 26.3116 34.3801 26.4405 34.2512C26.6983 33.9934 26.6983 33.5753 26.4405 33.3174ZM7.15618 17.1432C7.15611 17.1432 7.15611 17.1432 7.15605 17.1433L5.79558 18.5038L5.52336 18.2316C5.02911 17.7373 5.02911 16.933 5.52336 16.4388C5.98638 15.9758 6.72135 15.9466 7.2187 16.351L7.58355 16.7158L7.15618 17.1432Z" fill="#378940"/>
<path d="M33.8768 25.8817C33.754 25.7582 33.5837 25.6882 33.41 25.6882C33.2364 25.6882 33.066 25.7582 32.9432 25.8817C32.8204 26.0045 32.7498 26.1742 32.7498 26.3485C32.7498 26.5221 32.8204 26.6924 32.9432 26.8152C33.066 26.938 33.2364 27.0087 33.41 27.0087C33.5837 27.0087 33.754 26.938 33.8768 26.8152C33.9996 26.6917 34.0702 26.5221 34.0702 26.3485C34.0702 26.1741 33.9996 26.0045 33.8768 25.8817Z" fill="#378940"/>
<path d="M32.1014 24.1061L30.5244 22.529L30.5282 19.8596C30.5311 17.8427 29.9389 15.8913 28.8156 14.2161L25.9096 9.88252C25.5127 9.29055 24.9082 8.8925 24.2076 8.76164C23.507 8.63079 22.7997 8.78389 22.2159 9.19271C21.2594 9.86251 20.879 11.071 21.2173 12.1423L19.4918 10.4167C19.2339 10.159 18.8159 10.159 18.558 10.4167C18.3002 10.6745 18.3002 11.0926 18.558 11.3505L22.2648 15.0573C22.6077 15.4002 23.1337 15.432 23.5153 15.1325C23.8969 14.8332 23.9915 14.3148 23.74 13.9L22.6044 12.0268C22.2479 11.4387 22.4099 10.6689 22.9733 10.2744C23.264 10.0709 23.6165 9.99462 23.9652 10.0598C24.3141 10.125 24.6151 10.3232 24.8128 10.618L27.7188 14.9516C28.6954 16.408 29.2102 18.1044 29.2077 19.8577L29.2036 22.8012C29.2033 22.9766 29.2729 23.145 29.3969 23.269L31.1677 25.0398C31.2967 25.1687 31.4656 25.2332 31.6346 25.2332C31.8035 25.2332 31.9726 25.1687 32.1014 25.0398C32.3593 24.782 32.3593 24.364 32.1014 24.1061Z" fill="#378940"/>
<path d="M17.9394 8.86483C17.8172 8.74203 17.6469 8.67139 17.4732 8.67139C17.2989 8.67139 17.1293 8.74203 17.0058 8.86483C16.883 8.98764 16.8123 9.15798 16.8123 9.33162C16.8123 9.50592 16.883 9.6756 17.0058 9.7984C17.1293 9.9212 17.2989 9.99185 17.4732 9.99185C17.6469 9.99185 17.8166 9.9212 17.9394 9.7984C18.0628 9.6756 18.1335 9.50526 18.1335 9.33162C18.1335 9.15798 18.0628 8.98764 17.9394 8.86483Z" fill="#378940"/>
<path d="M24.0667 19.1107C24.3245 18.8529 24.3245 18.4348 24.0667 18.177C23.8089 17.9192 23.3909 17.9192 23.133 18.177L22.845 18.465C21.6121 19.6979 21.6121 21.7041 22.845 22.937C22.9739 23.0659 23.1429 23.1304 23.3118 23.1304C23.4808 23.1304 23.6498 23.0659 23.7787 22.937C24.0365 22.6792 24.0366 22.2611 23.7787 22.0033C23.0606 21.2852 23.0606 20.1167 23.7787 19.3986L24.0667 19.1107Z" fill="#378940"/>
<path d="M31.7792 4.26709C31.3595 4.26709 30.9492 4.3862 30.5945 4.60401C30.2397 4.3862 29.8295 4.26709 29.4098 4.26709C28.1465 4.26709 27.1187 5.31369 27.1187 6.60002C27.1187 7.32904 27.6428 8.20457 28.7211 9.27679C29.4471 9.99869 30.1633 10.5481 30.1934 10.5712C30.3118 10.6617 30.4531 10.7069 30.5945 10.7069C30.7358 10.7069 30.8771 10.6617 30.9955 10.5712C31.0257 10.5481 31.7418 9.99862 32.4678 9.27679C33.5461 8.20464 34.0703 7.32904 34.0703 6.60002C34.0703 5.31362 33.0425 4.26709 31.7792 4.26709ZM30.5943 9.20205C29.4909 8.28565 28.4391 7.11638 28.4391 6.60002C28.4391 6.04172 28.8746 5.58755 29.4098 5.58755C29.676 5.58755 29.9243 5.69788 30.1092 5.89832C30.2342 6.0338 30.4101 6.11085 30.5945 6.11085C30.7788 6.11085 30.9548 6.0338 31.0797 5.89832C31.2646 5.69794 31.513 5.58755 31.7792 5.58755C32.3144 5.58755 32.7498 6.04172 32.7498 6.60002C32.7498 7.11506 31.6977 8.28466 30.5943 9.20205Z" fill="#378940"/>
<path d="M4.92686 0.701904C4.50715 0.701904 4.09688 0.82101 3.74214 1.03882C3.3874 0.82101 2.97713 0.701904 2.55742 0.701904C1.29414 0.701838 0.266357 1.74837 0.266357 3.03476C0.266357 3.76379 0.790515 4.63932 1.8688 5.71154C2.59479 6.43343 3.31101 6.98294 3.34112 7.00599C3.45943 7.0965 3.60079 7.14173 3.74214 7.14173C3.8835 7.14173 4.02479 7.0965 4.14317 7.00599C4.17334 6.98294 4.88949 6.43343 5.61548 5.7116C6.69377 4.63939 7.21793 3.76386 7.21793 3.03483C7.21793 1.74844 6.19015 0.701904 4.92686 0.701904ZM3.74194 5.6368C2.6385 4.7204 1.58682 3.5512 1.58682 3.03476C1.58682 2.47647 2.02224 2.0223 2.55742 2.0223C2.82363 2.0223 3.07201 2.13262 3.25687 2.33307C3.38192 2.46855 3.55781 2.5456 3.74214 2.5456C3.92648 2.5456 4.10243 2.46855 4.22741 2.33307C4.41228 2.13269 4.66066 2.0223 4.92686 2.0223C5.46204 2.0223 5.89747 2.47647 5.89747 3.03476C5.89747 3.54974 4.84539 4.71941 3.74194 5.6368Z" fill="#378940"/>
</svg>
