<svg width="36" height="37" viewBox="0 0 36 37" fill="none" xmlns="http://www.w3.org/2000/svg">
<path d="M11.3846 12.022C12.2468 12.4517 13.1967 12.676 14.1601 12.6772H14.6128V11.4919H14.1601C13.3807 11.491 12.6122 11.3096 11.9147 10.9619L11.3846 12.022Z" fill="black"/>
<path d="M9.87167 19.196H8.68643V20.3813H9.87167V19.196Z" fill="black"/>
<path d="M11.0569 22.7937C11.3891 22.794 11.7161 22.7122 12.009 22.5555C12.3018 22.3988 12.5513 22.1721 12.7352 21.8955L11.7491 21.238C11.6731 21.352 11.5702 21.4454 11.4495 21.51C11.3287 21.5746 11.1939 21.6084 11.0569 21.6084C10.92 21.6084 10.7852 21.5746 10.6644 21.51C10.5437 21.4454 10.4407 21.352 10.3648 21.238L9.37863 21.8955C9.56257 22.1721 9.81208 22.3988 10.1049 22.5555C10.3977 22.7122 10.7248 22.794 11.0569 22.7937Z" fill="black"/>
<path d="M32.9839 19.1962V10.6032C32.9835 9.64808 32.7404 8.70875 32.2772 7.87346C31.8141 7.03816 31.1462 6.33432 30.3363 5.82807L30.3355 5.82748L30.3347 5.82704C29.4824 5.29512 28.5033 5.00097 27.499 4.97509C26.4947 4.94921 25.5017 5.19256 24.6232 5.67988C23.7446 6.16719 23.0125 6.88073 22.5027 7.74645C21.9929 8.61217 21.7241 9.59853 21.7241 10.6032V10.9206C21.2305 10.9919 20.7791 11.2387 20.4526 11.6157C20.1261 11.9927 19.9464 12.4747 19.9464 12.9735C19.9464 13.4722 20.1261 13.9543 20.4526 14.3313C20.7791 14.7083 21.2305 14.9551 21.7241 15.0264V17.5912C21.3394 17.4767 20.9402 17.4184 20.5389 17.4183H17.1362C16.9083 17.2803 16.7199 17.0858 16.5893 16.8536C16.4587 16.6215 16.3902 16.3595 16.3905 16.0931V15.335C17.0377 14.9004 17.5822 14.3298 17.9861 13.6631C18.39 12.9964 18.6436 12.2495 18.7291 11.4747C19.2265 11.4108 19.6838 11.1689 20.0165 10.7936C20.3492 10.4184 20.5347 9.93537 20.5386 9.43392C20.5425 8.93246 20.3646 8.44657 20.0377 8.06623C19.7109 7.68589 19.2573 7.43686 18.761 7.36526V5.02996C18.8529 4.99233 18.9417 4.95292 19.026 4.9107C19.1423 4.85256 19.2363 4.7578 19.2934 4.64102C19.3505 4.52424 19.3676 4.39192 19.3421 4.26444C19.3237 4.17237 19.1404 3.34011 18.3865 2.50266C17.1387 1.11608 15.3232 0.824951 14.02 0.824951C11.4235 0.824951 10.0553 1.69781 9.61361 2.04516C9.12085 2.15227 8.09383 2.59007 8.09383 4.38067V7.36526C7.5975 7.43686 7.14392 7.68589 6.8171 8.06623C6.49027 8.44657 6.31233 8.93246 6.31622 9.43392C6.32012 9.93537 6.50559 10.4184 6.83829 10.7936C7.17098 11.1689 7.62837 11.4108 8.12576 11.4747C8.259 12.6815 8.79796 13.8073 9.65443 14.6678C9.44088 14.7335 9.23231 14.8145 9.03032 14.91C8.95817 14.9433 8.88217 14.9819 8.79861 15.0273C8.3964 15.2454 8.02779 15.5204 7.70419 15.8438C7.58134 15.9672 7.46524 16.0972 7.35639 16.2331H6.90859C6.00239 16.2316 5.12077 16.5277 4.39909 17.0758C3.67742 17.6239 3.15559 18.3937 2.91374 19.267C2.58725 19.7545 2.36894 20.3062 2.27349 20.8851L1.58309 25.0253C1.58309 25.0264 1.58309 25.0276 1.58272 25.0287C1.58234 25.0299 1.58212 25.0313 1.5819 25.0326C1.5819 25.0322 0.389771 32.8561 0.389771 32.9983V33.5583C0.389771 33.5885 0.390363 33.6181 0.391696 33.6472C0.391696 33.6535 0.392289 33.6581 0.392437 33.664C0.420071 34.3756 0.715192 35.0504 1.21882 35.5538C1.72245 36.0572 2.39748 36.3519 3.10901 36.3792C3.11456 36.3792 3.11871 36.3799 3.12464 36.3799C3.15397 36.3815 33.5765 36.3822 33.5765 36.3822C33.6704 36.3822 33.763 36.3598 33.8465 36.317C33.9301 36.2743 34.0023 36.2122 34.0572 36.136C34.1121 36.0599 34.1482 35.9717 34.1623 35.8789C34.1765 35.7861 34.1684 35.6912 34.1387 35.6021L33.539 33.8037L34.6361 33.2551C35.0309 33.0597 35.3631 32.7574 35.5948 32.3827C35.8265 32.008 35.9485 31.5758 35.947 31.1353V22.1593C35.9461 21.3737 35.6336 20.6205 35.0781 20.065C34.5226 19.5095 33.7695 19.1971 32.9839 19.1962V19.1962ZM18.761 8.57983C18.9343 8.6411 19.0844 8.7546 19.1905 8.90469C19.2967 9.05479 19.3537 9.23411 19.3537 9.41794C19.3537 9.60178 19.2967 9.7811 19.1905 9.93119C19.0844 10.0813 18.9343 10.1948 18.761 10.2561V8.57983ZM8.09383 10.2561C7.92051 10.1948 7.77044 10.0813 7.66429 9.93119C7.55815 9.7811 7.50115 9.60178 7.50115 9.41794C7.50115 9.23411 7.55815 9.05479 7.66429 8.90469C7.77044 8.7546 7.92051 8.6411 8.09383 8.57983V10.2561ZM30.6134 7.58186C31.3781 8.40173 31.8019 9.48204 31.7986 10.6032V20.3814C31.7982 20.749 31.6841 21.1074 31.4719 21.4075C31.2597 21.7077 30.9598 21.9348 30.6134 22.0577V7.58186ZM31.9055 25.0255C32.1372 25.4126 32.2899 25.8419 32.3546 26.2884C32.4193 26.735 32.3947 27.1899 32.2823 27.6269C32.1699 28.0639 31.9718 28.4742 31.6997 28.8341C31.4276 29.194 31.0867 29.4963 30.6969 29.7236L29.6999 30.3107C28.9092 30.776 27.967 30.9112 27.0774 30.687C26.1878 30.4628 25.4222 29.8972 24.9465 29.1128C24.7147 28.7257 24.5621 28.2964 24.4974 27.8498C24.4328 27.4033 24.4573 26.9484 24.5698 26.5114C24.6822 26.0744 24.8802 25.6641 25.1523 25.3042C25.4244 24.9443 25.7652 24.642 26.155 24.4147L27.1521 23.8276C27.9428 23.3624 28.8849 23.2272 29.7745 23.4514C30.6642 23.6755 31.4298 24.2409 31.9057 25.0253L31.9055 25.0255ZM23.9296 29.7226C24.2647 30.2801 24.7132 30.7609 25.246 31.1338C25.7789 31.5068 26.3842 31.7636 27.0227 31.8875L26.0023 32.4884L20.5932 27.6903L23.4883 25.9853C23.4628 26.0668 23.4388 26.1491 23.4176 26.2325C23.2666 26.8191 23.2341 27.4299 23.3221 28.0291C23.41 28.6284 23.6165 29.2041 23.9296 29.7226V29.7226ZM25.2798 20.974V20.0157C25.637 19.5769 25.8438 19.035 25.8696 18.4698C26.2219 18.5499 27.0208 18.6038 27.0568 18.6038C27.457 18.6037 27.8559 18.5576 28.2457 18.4665C28.2708 19.0329 28.4776 19.5761 28.8355 20.0157V20.974C28.8348 21.4291 28.6601 21.8666 28.3472 22.197C27.7742 22.2672 27.2193 22.4436 26.711 22.7172C26.3074 22.6374 25.9441 22.42 25.6831 22.102C25.4221 21.7841 25.2795 21.3854 25.2798 20.974ZM22.9093 10.6032C22.9095 9.83739 23.1075 9.08462 23.4841 8.41783C23.8608 7.75105 24.4032 7.19285 25.059 6.79735C25.7148 6.40184 26.4616 6.18244 27.227 6.16039C27.9925 6.13835 28.7507 6.31441 29.4282 6.67152V6.68352C29.3102 7.14939 28.2181 10.8105 22.9093 11.8233V10.6032ZM22.9093 13.0271C23.3562 12.949 23.776 12.8532 24.1727 12.7437C24.2635 12.949 24.4285 13.1122 24.6348 13.2007C24.841 13.2892 25.073 13.2963 25.2843 13.2205C25.4955 13.1448 25.6703 12.9919 25.7733 12.7926C25.8764 12.5933 25.9002 12.3624 25.8399 12.1462C27.44 11.4245 28.49 10.4725 29.154 9.66033C29.2517 9.54084 29.3426 9.42224 29.4281 9.30475V11.544C29.2939 11.496 29.1502 11.481 29.009 11.5002C28.8679 11.5194 28.7334 11.5723 28.6169 11.6544C28.5005 11.7364 28.4054 11.8453 28.3398 11.9717C28.2742 12.0982 28.24 12.2386 28.24 12.381C28.24 12.5235 28.2742 12.6639 28.3398 12.7904C28.4054 12.9168 28.5005 13.0257 28.6169 13.1077C28.7334 13.1898 28.8679 13.2426 29.009 13.2619C29.1502 13.2811 29.2939 13.2661 29.4281 13.2181V16.6545C29.1733 16.8373 28.8983 16.9902 28.6086 17.1102C28.0905 17.3252 27.5332 17.4299 26.9724 17.4177C26.468 17.4084 25.9696 17.3065 25.5021 17.1171C24.7351 16.8082 24.0782 16.2766 23.6161 15.5909C23.1539 14.9052 22.9078 14.0968 22.9093 13.27V13.0271ZM22.9093 16.6208C23.3926 17.2188 23.9989 17.7058 24.6872 18.0486V18.3584C24.6858 18.6594 24.5901 18.9524 24.4136 19.1962H22.9093V16.6208ZM21.1315 12.9737C21.1315 12.79 21.1886 12.6108 21.2947 12.4609C21.4008 12.311 21.5509 12.1977 21.7241 12.1366C21.7241 12.1366 21.734 13.6387 21.7528 13.8216C21.5727 13.7645 21.4154 13.6515 21.3037 13.4991C21.192 13.3467 21.1316 13.1626 21.1315 12.9737V12.9737ZM22.8249 23.0568C22.8802 22.9647 22.9093 22.8593 22.9093 22.7519V20.3814H24.0946V20.974C24.0941 21.4677 24.2172 21.9537 24.4527 22.3876C24.6882 22.8215 25.0286 23.1896 25.4428 23.4582L21.2361 25.9357C21.3095 25.6608 21.4208 25.3974 21.5668 25.1532L22.8249 23.0568ZM20.5507 24.5437C20.1609 25.194 19.9525 25.9369 19.9469 26.695L19.3536 27.0444V22.1593C19.3542 21.6879 19.5417 21.236 19.8749 20.9027C20.2082 20.5695 20.6601 20.382 21.1315 20.3814H21.7241V22.5877L20.5507 24.5437ZM17.0032 20.1147C17.2767 19.6504 17.4568 19.137 17.5334 18.6036H20.5389C20.9468 18.6038 21.3503 18.6881 21.7241 18.8513V19.1962H21.1315C20.3459 19.1971 19.5927 19.5095 19.0372 20.065C18.4817 20.6205 18.1693 21.3737 18.1684 22.1593V27.4929H17.5758V26.9002C17.5749 26.1146 17.2624 25.3615 16.7069 24.806C16.1514 24.2505 15.3982 23.938 14.6127 23.9371H14.1877C14.9166 23.2961 15.4313 22.4469 15.6624 21.5042C16.2122 21.1527 16.6715 20.6767 17.0032 20.1147V20.1147ZM16.3905 26.9002V27.6583L15.2053 28.0534V25.2236C15.5517 25.3466 15.8516 25.5738 16.0638 25.8739C16.276 26.1741 16.3901 26.5326 16.3905 26.9002V26.9002ZM15.614 17.5325C15.8096 17.8481 16.0673 18.1206 16.3715 18.3335C16.3168 18.8615 16.1184 19.3644 15.7979 19.7875V19.1962C15.7986 18.0561 15.3865 16.9543 14.6378 16.0944C14.8299 16.0496 15.0194 15.9942 15.2053 15.9284V16.0931C15.2053 16.6015 15.3468 17.1 15.614 17.5325V17.5325ZM17.5758 5.97949L17.1991 5.41442C17.3285 5.39788 17.454 5.37904 17.5758 5.3579V5.97949ZM14.02 2.01019C16.672 2.01019 17.6661 3.32136 18.0119 4.04103C16.1593 4.61142 12.8744 4.14874 11.4162 3.85117L10.6837 2.75245C11.2082 2.45132 12.2745 2.01019 14.02 2.01019ZM9.27907 4.38067C9.27907 3.73057 9.45945 3.43663 9.62679 3.30381L10.3447 4.38067L9.27907 5.97912V4.38067ZM9.27907 10.8995V8.11581L11.329 5.04093C11.8526 5.14189 12.8352 5.31249 13.9662 5.41531C14.5917 5.4722 15.1736 5.50063 15.7117 5.50058C15.7522 5.50058 15.7915 5.49984 15.8314 5.49954L17.5758 8.11581V10.8995C17.5761 11.4444 17.469 11.984 17.2607 12.4874C17.0523 12.9909 16.7468 13.4483 16.3615 13.8336C15.9762 14.2189 15.5188 14.5244 15.0153 14.7328C14.5119 14.9411 13.9723 15.0482 13.4274 15.0478C13.4017 15.0478 13.3745 15.0473 13.3471 15.0468C12.7185 14.698 12.0183 14.4978 11.3004 14.4616C10.685 14.0924 10.1755 13.5704 9.82139 12.9463C9.46724 12.3222 9.28042 11.6171 9.27907 10.8995V10.8995ZM8.54222 16.6825C8.58613 16.6385 8.63129 16.5957 8.67771 16.5541C9.98096 15.3845 12.0388 15.3607 13.3698 16.4988C14.0561 17.0909 14.4912 17.9222 14.5867 18.8236C13.7606 18.8642 12.922 18.7983 12.1351 18.5438C11.3481 18.2892 10.6135 17.8382 10.0944 17.1943C9.89896 16.9518 9.6922 16.6587 9.3816 16.6358C9.18048 16.621 8.98743 16.7321 8.85017 16.8798C8.72124 17.0351 8.61056 17.2046 8.5203 17.3851C8.25515 17.8492 7.92812 18.275 7.54818 18.6509C7.66252 17.906 8.01062 17.2167 8.54222 16.6825V16.6825ZM7.50121 20.2382C8.35311 19.6752 8.9515 18.9066 9.41197 18.2042C10.3327 19.1376 11.2668 19.5946 12.2422 19.8181V20.3814H13.4274V19.9894C13.8143 20.0184 14.2089 20.0276 14.6127 20.0299V20.3814C14.6127 21.3245 14.238 22.2289 13.5712 22.8957C12.9044 23.5625 12 23.9371 11.0569 23.9371C10.1139 23.9371 9.20949 23.5625 8.54266 22.8957C7.87583 22.2289 7.50121 21.3245 7.50121 20.3814V20.2382ZM14.02 25.1224V28.0855H12.5148L9.97488 25.1224H14.02ZM7.44232 23.4443C7.59161 23.62 7.75342 23.7848 7.92649 23.9371C7.71379 23.9383 7.50237 23.9701 7.29876 24.0317C7.36089 23.8396 7.40887 23.6433 7.44232 23.4443V23.4443ZM6.90859 28.7264L6.93985 28.5388L8.88958 30.8134C9.15572 31.1238 9.4977 31.3599 9.88221 31.4989L6.90859 31.149V28.7264ZM3.94549 20.3814C3.94517 20.1459 3.97312 19.9112 4.02876 19.6823C4.03105 19.6743 4.03327 19.6664 4.0352 19.6583C4.18453 19.0596 4.51758 18.5226 4.98763 18.1228C5.45767 17.723 6.04111 17.4803 6.65606 17.429C6.43074 17.9909 6.31529 18.5908 6.31597 19.1962V22.7519C6.31651 23.4811 6.04739 24.1848 5.56038 24.7275C5.52275 24.7696 5.48475 24.81 5.44749 24.8473C5.03786 25.2595 4.51515 25.541 3.94549 25.6562V20.3814ZM2.67603 25.715H2.76025V26.3076C2.76025 26.4648 2.82269 26.6155 2.93383 26.7267C3.04496 26.8378 3.1957 26.9002 3.35287 26.9002C4.2008 26.9023 5.02868 26.6425 5.72335 26.1563V28.6282L5.33385 30.9638L3.54392 30.7532C2.95824 30.6846 2.36577 30.801 1.84962 31.0861L2.67603 25.715ZM15.7979 35.1969H3.21035C3.19553 35.1969 3.18072 35.1965 3.16649 35.1957C3.15908 35.1953 3.15168 35.1951 3.14427 35.1949H3.14301C2.7341 35.1751 2.34723 35.0037 2.05777 34.7142C1.76831 34.4247 1.597 34.0378 1.57723 33.6289V33.6266C1.57723 33.6197 1.57679 33.6129 1.57649 33.606C1.5756 33.5917 1.57531 33.5771 1.57523 33.5623C1.57523 33.5608 1.57523 33.5594 1.57523 33.558C1.57525 33.3267 1.62424 33.0979 1.71899 32.8868C1.81375 32.6758 1.95211 32.4871 2.12499 32.3334C2.29786 32.1796 2.50133 32.0642 2.72202 31.9946C2.9427 31.9251 3.1756 31.9031 3.40539 31.9301L10.9877 32.8221C11.1274 32.8385 11.2685 32.8047 11.3856 32.7267L13.0142 31.6412H15.7979V35.1969ZM16.3905 30.456H10.6894C10.5184 30.4561 10.3495 30.4191 10.1941 30.3477C10.0388 30.2762 9.90075 30.172 9.78954 30.0421L7.15683 26.9706C6.9967 26.7837 6.90865 26.5457 6.90859 26.2996V26.1535C6.90845 26.0088 6.9388 25.8657 6.99765 25.7335C7.05651 25.6013 7.14255 25.483 7.25018 25.3863C7.3578 25.2895 7.4846 25.2166 7.6223 25.1721C7.76 25.1277 7.90553 25.1128 8.04939 25.1283L8.05776 25.1294C8.31603 25.1589 8.55359 25.285 8.72275 25.4824L11.7925 29.0637C11.8481 29.1286 11.9171 29.1807 11.9947 29.2164C12.0723 29.2522 12.1567 29.2707 12.2422 29.2707H15.2053C15.269 29.2707 15.3323 29.2604 15.3927 29.2403L17.0794 28.6781H18.0383L17.6827 30.456H16.3905ZM18.1684 32.2338V34.3482C17.9423 34.1518 17.7431 33.9264 17.5758 33.678V31.6412H18.1684C18.3054 31.6412 18.4382 31.5937 18.5441 31.5069C18.6501 31.42 18.7226 31.2992 18.7495 31.1648L19.2911 28.4567L19.5133 28.3256L21.0876 29.6751L20.8903 31.6412H18.761C18.6038 31.6412 18.4531 31.7036 18.342 31.8148C18.2308 31.9259 18.1684 32.0766 18.1684 32.2338V32.2338ZM21.7241 35.1969H19.3536V32.8264H21.7241V35.1969ZM22.3167 31.6412H22.0815L22.1846 30.6152L22.5161 30.8994L24.9343 33.1169L22.9093 34.3093V32.2338C22.9093 32.0766 22.8469 31.9259 22.7358 31.8148C22.6246 31.7036 22.4739 31.6412 22.3167 31.6412ZM30.753 35.1969L32.4682 34.3392L32.7542 35.1969H30.753ZM34.7617 31.1353C34.7625 31.3555 34.7015 31.5715 34.5856 31.7589C34.4698 31.9462 34.3037 32.0972 34.1063 32.1949L28.103 35.1969H23.7379L31.2983 30.7449C31.8882 30.4005 32.3939 29.929 32.7785 29.3645C33.1631 28.8001 33.4171 28.157 33.5218 27.482C33.6264 26.8071 33.5793 26.1173 33.3837 25.4628C33.1882 24.8084 32.8491 24.2058 32.3913 23.699V22.1572C32.7765 21.6454 32.9846 21.022 32.9839 20.3814C33.4552 20.382 33.9071 20.5695 34.2404 20.9027C34.5737 21.236 34.7612 21.6879 34.7617 22.1593V31.1353Z" fill="black"/>
<path d="M29.1006 14.9853L28.5705 13.9253C27.873 14.2729 27.1045 14.4544 26.3251 14.4553H25.8724V15.6406H26.3251C27.2885 15.6394 28.2384 15.4151 29.1006 14.9853Z" fill="black"/>
<path d="M27.7352 24.7823L26.7382 25.3694L27.3397 26.3907L28.3367 25.8036L27.7352 24.7823Z" fill="black"/>
<path d="M29.5122 27.7469L28.5153 28.334L29.1167 29.3553L30.1137 28.7682L29.5122 27.7469Z" fill="black"/>
<path d="M26.903 27.9554C26.8364 27.8452 26.7987 27.72 26.7932 27.5914C26.7878 27.4628 26.8147 27.3349 26.8717 27.2194L25.8045 26.7036C25.6632 26.9953 25.5964 27.3175 25.6101 27.6413C25.6238 27.9651 25.7176 28.2805 25.8831 28.5592C26.0501 28.8414 26.2846 29.0778 26.5654 29.2471C26.8463 29.4165 27.1648 29.5135 27.4923 29.5296L27.5533 28.346C27.4208 28.3406 27.2918 28.3021 27.1782 28.2338C27.0646 28.1655 26.9699 28.0698 26.903 27.9554Z" fill="black"/>
<path d="M29.2108 27.2807C29.2634 27.3683 29.3378 27.4407 29.4267 27.491C29.5156 27.5414 29.616 27.5679 29.7181 27.568H29.7195C29.8215 27.5679 29.9217 27.5415 30.0106 27.4914C30.0994 27.4413 30.1738 27.3691 30.2266 27.2819C30.4489 26.9157 30.8588 26.4944 31.0755 26.4789L30.9913 25.2968C30.5616 25.3274 30.1834 25.5666 29.8858 25.8398C29.7341 25.062 30.2138 24.7036 30.3377 24.6254L30.3303 24.6297L29.7288 23.6084C29.239 23.9226 28.8863 24.4106 28.7415 24.9742C28.5609 25.6836 28.7187 26.4598 29.2108 27.2807Z" fill="black"/>
<path d="M15.5017 9.71414C15.9927 9.71414 16.3907 9.31615 16.3907 8.82521C16.3907 8.33427 15.9927 7.93628 15.5017 7.93628C15.0108 7.93628 14.6128 8.33427 14.6128 8.82521C14.6128 9.31615 15.0108 9.71414 15.5017 9.71414Z" fill="black"/>
<path d="M11.3533 9.71414C11.8442 9.71414 12.2422 9.31615 12.2422 8.82521C12.2422 8.33427 11.8442 7.93628 11.3533 7.93628C10.8623 7.93628 10.4643 8.33427 10.4643 8.82521C10.4643 9.31615 10.8623 9.71414 11.3533 9.71414Z" fill="black"/>
</svg>
