<svg width="31" height="41" viewBox="0 0 31 41" fill="none" xmlns="http://www.w3.org/2000/svg">
<path d="M23.0467 11.4788H22.3746V12.8229H23.0467C23.7879 12.8229 24.3908 13.4257 24.3908 14.167C24.3908 14.9083 23.7879 15.5111 23.0467 15.5111H22.3746V16.8553H23.0467C24.5292 16.8553 25.7349 15.6496 25.7349 14.167C25.7349 12.6845 24.5292 11.4788 23.0467 11.4788Z" fill="#378940"/>
<path d="M8.26164 12.8229H8.93367V11.4788H8.26164C6.77909 11.4788 5.57339 12.6845 5.57339 14.167C5.57339 15.6496 6.77909 16.8553 8.26164 16.8553H8.93367V15.5111H8.26164C7.52037 15.5111 6.91752 14.9083 6.91752 14.167C6.9176 13.4257 7.52037 12.8229 8.26164 12.8229Z" fill="#378940"/>
<path d="M15.2005 16.8553L16.3006 13.0078L15.0083 12.6382L13.6641 17.3426C13.6057 17.5455 13.6466 17.7633 13.7737 17.9319C13.9007 18.1007 14.099 18.1994 14.31 18.1994H16.3255V16.8553H15.2005Z" fill="#378940"/>
<path d="M23.6053 11.7777L20.917 7.74539C20.792 7.55853 20.5824 7.44629 20.3579 7.44629H8.26092C7.88997 7.44629 7.5889 7.74736 7.5889 8.11831V15.982C7.58961 17.9861 8.10435 19.972 9.07815 21.724C10.4041 24.1105 12.923 25.5917 15.6515 25.5917C15.6529 25.5917 15.6542 25.5917 15.6555 25.5917C18.3847 25.5917 20.9036 24.1099 22.2289 21.724C23.2021 19.9713 23.7175 17.9854 23.7182 15.9813V12.1506C23.7182 12.0175 23.6786 11.8879 23.6053 11.7777ZM22.3741 15.9807C22.3735 17.7576 21.9171 19.5177 21.0542 21.0715C19.9655 23.0305 17.8969 24.2476 15.6549 24.2476C15.6549 24.2476 15.6543 24.2476 15.6536 24.2476C15.6536 24.2476 15.6529 24.2476 15.6522 24.2476C13.4109 24.2476 11.3424 23.0311 10.2536 21.0715C9.39074 19.5183 8.93436 17.7582 8.93373 15.9813V8.79034H19.9984L22.3742 12.3536V15.9807H22.3741Z" fill="#378940"/>
<path d="M17.8675 18.3956C17.1269 19.1356 16.143 19.5428 15.0966 19.5435H14.3102V20.8876H15.0966C16.5018 20.8869 17.8231 20.3399 18.8178 19.3466L17.8675 18.3956Z" fill="#378940"/>
<path d="M11.6248 14.839C12.3671 14.839 12.9689 14.2372 12.9689 13.4949C12.9689 12.7525 12.3671 12.1508 11.6248 12.1508C10.8824 12.1508 10.2806 12.7525 10.2806 13.4949C10.2806 14.2372 10.8824 14.839 11.6248 14.839Z" fill="#378940"/>
<path d="M19.6892 14.839C20.4315 14.839 21.0333 14.2372 21.0333 13.4949C21.0333 12.7525 20.4315 12.1508 19.6892 12.1508C18.9468 12.1508 18.345 12.7525 18.345 13.4949C18.345 14.2372 18.9468 14.839 19.6892 14.839Z" fill="#378940"/>
<path d="M23.8999 5.56072C23.3549 4.79594 22.5451 4.28916 21.6183 4.13393C21.5766 4.12723 21.5363 4.12115 21.4946 4.11579C20.8965 2.8772 19.639 2.0714 18.2351 2.07006H10.6376L9.49237 0.352933C9.38084 0.185559 9.20006 0.0767097 8.99979 0.0572274C8.79952 0.0364041 8.6006 0.10897 8.45815 0.250789L7.78612 0.922812C5.67115 3.03708 5.67115 6.47804 7.78612 8.59365L8.73571 7.64202C7.96557 6.87187 7.54145 5.84759 7.54145 4.75752C7.54145 3.66809 7.9662 2.64325 8.73634 1.87303L8.8291 1.78098L9.7189 3.11501C9.84392 3.30187 10.0536 3.41411 10.2781 3.41411H18.2339C19.2144 3.41545 20.082 4.04117 20.3939 4.97128C20.4846 5.24545 20.7421 5.43026 21.031 5.43026C21.0317 5.43026 21.0317 5.43026 21.0323 5.43026C21.1446 5.42489 21.2763 5.44035 21.3952 5.46046C21.9672 5.55654 22.4671 5.86975 22.8039 6.34151C23.1406 6.81327 23.2729 7.38859 23.1769 7.96115L22.3839 12.7126L23.7098 12.9336L24.5036 8.18224C24.6593 7.25631 24.445 6.3255 23.8999 5.56072Z" fill="#378940"/>
<path d="M10.9498 23.5756V26.3472L6.11634 26.989C3.12434 27.3895 0.868958 29.9669 0.868958 32.9844V40.377H2.21308V32.9837C2.21308 30.6362 3.96783 28.6321 6.29381 28.321L11.7105 27.6019C12.0446 27.5575 12.2939 27.2726 12.2939 26.9358V23.5756H10.9498V23.5756Z" fill="#378940"/>
<path d="M25.191 26.9896L20.3583 26.3478V23.5763H19.0142V26.9366C19.0142 27.2733 19.2635 27.5582 19.5976 27.6026L25.0137 28.3217C27.341 28.6322 29.095 30.637 29.095 32.9845V40.377H30.4391V32.9851C30.4391 29.9675 28.183 27.3896 25.191 26.9896Z" fill="#378940"/>
<path d="M7.59211 35.0006H6.24799V40.377H7.59211V35.0006Z" fill="#378940"/>
<path d="M25.0653 35.0006H23.7212V40.377H25.0653V35.0006Z" fill="#378940"/>
<path d="M15.2814 29.0659L12.0427 31.2252L10.9298 26.7742L9.62595 27.0995L10.9701 32.4759C11.0232 32.6876 11.1757 32.8609 11.3794 32.9396C11.458 32.9698 11.5399 32.9846 11.622 32.9846C11.7524 32.9846 11.8827 32.947 11.9943 32.8724L16.0266 30.1841L15.2814 29.0659Z" fill="#378940"/>
<path d="M20.0254 26.3529L15.6544 28.8509L11.2833 26.3529L10.6166 27.5196L15.321 30.2078C15.4245 30.267 15.5394 30.2965 15.6544 30.2965C15.7693 30.2965 15.8842 30.267 15.9877 30.2078L20.6921 27.5196L20.0254 26.3529Z" fill="#378940"/>
<path d="M20.3784 26.7734L19.2654 31.2245L16.0268 29.0652L15.2815 30.1835L19.3138 32.8717C19.426 32.9463 19.5564 32.9846 19.6868 32.9846C19.7687 32.9846 19.8508 32.9699 19.9281 32.9389C20.1317 32.8603 20.2849 32.6869 20.3374 32.4752L21.6815 27.0988L20.3784 26.7734Z" fill="#378940"/>
<path d="M14.9474 32.7716L14.2753 30.7555L13.0005 31.1809L13.6282 33.064L12.9688 40.3161L14.3076 40.4385L14.979 33.0452C14.9877 32.9531 14.9762 32.8597 14.9474 32.7716Z" fill="#378940"/>
<path d="M17.6782 33.0646L18.3059 31.1815L17.0317 30.7561L16.3597 32.7723C16.3308 32.8603 16.32 32.953 16.3281 33.0458L17.0001 40.4384L18.3376 40.3168L17.6782 33.0646Z" fill="#378940"/>
<path d="M17.0011 32.3125H14.3128V33.6566H17.0011V32.3125Z" fill="#378940"/>
</svg>
