<svg width="49" height="54" viewBox="0 0 49 54" fill="none" xmlns="http://www.w3.org/2000/svg">
<path d="M47.8063 11.5069H44.2651C43.7762 11.5069 43.3798 11.9033 43.3798 12.3922V13.2775C43.3798 12.7886 42.9834 12.3922 42.4945 12.3922H39.8386C39.3716 12.3913 38.9842 12.7531 38.9533 13.2191L38.8922 14.1629H37.1827V12.3922C37.1827 11.9033 36.7863 11.5069 36.2974 11.5069H32.7562C32.2673 11.5069 31.8709 11.9033 31.8709 12.3922V17.7041C31.8709 18.193 32.2673 18.5894 32.7562 18.5894H36.2974C36.7863 18.5894 37.1827 18.193 37.1827 17.7041V15.9335H38.7762L38.2929 23.1761C38.2136 24.0907 37.4456 24.7913 36.5276 24.7865H30.9856V24.4067C30.9842 24.0657 30.7873 23.7559 30.4792 23.6099C29.2803 23.0498 28.0091 22.6595 26.7025 22.4502C26.5606 22.4298 26.416 22.4444 26.2811 22.4927C25.7937 22.3441 25.2943 22.2387 24.7885 22.1775V19.7624C25.051 19.6282 25.3053 19.4782 25.5498 19.3135C28.5244 17.2322 30.9856 15.142 30.9856 10.6438V9.73634C30.9813 7.04447 29.867 4.47366 27.9056 2.63002C24.4546 -0.578535 19.2117 -0.885735 15.4096 1.89788C11.5643 1.20601 7.88605 3.76243 7.19419 7.60785C7.12037 8.01819 7.08297 8.43417 7.08242 8.85104V22.1306C7.08242 22.6195 7.47881 23.0159 7.96772 23.0159C11.3528 23.0216 14.6091 21.7189 17.0562 19.3799C17.2662 19.5184 17.4831 19.646 17.706 19.7624V22.1775C17.2001 22.2375 16.7003 22.3417 16.2125 22.4891C16.078 22.441 15.9336 22.4264 15.792 22.4466C14.4854 22.656 13.2142 23.0463 12.0153 23.6064C11.7072 23.7523 11.5103 24.0622 11.5089 24.4031V24.4324C8.16105 28.1931 6.27591 33.0316 6.19711 38.066C6.19711 40.4944 6.31309 43.2893 7.03196 45.1484H5.31181V43.3778C5.31181 42.8889 4.91542 42.4925 4.42651 42.4925H0.885302C0.396394 42.4925 0 42.8889 0 43.3778V48.6896C0 49.1785 0.396394 49.5749 0.885302 49.5749H4.42651C4.91542 49.5749 5.31181 49.1785 5.31181 48.6896V46.919H10.3731C9.38011 48.8342 8.859 50.9589 8.85302 53.1161H10.6236C10.6282 51.5931 10.9288 50.0855 11.5089 48.6772V48.6896C11.5089 49.1785 11.9053 49.5749 12.3942 49.5749H15.9354C16.4243 49.5749 16.8207 49.1785 16.8207 48.6896V45.1484H27.9047L28.4147 45.7858C30.0761 47.8681 30.9825 50.4523 30.9856 53.1161H32.7562C32.7523 50.0503 31.709 47.0764 29.7966 44.6801L29.1194 43.8337L28.7794 42.8139C27.9554 40.3382 28.0341 37.6509 29.0016 35.2277L29.0512 35.1038C30.1498 34.7596 30.9203 33.7709 30.9856 32.6214V32.5851L40.5814 30.5294C42.21 30.1725 43.3728 28.7334 43.3798 27.0661V17.7041C43.3798 18.193 43.7762 18.5894 44.2651 18.5894H47.8063C48.2952 18.5894 48.6916 18.193 48.6916 17.7041V12.3922C48.6916 11.9033 48.2952 11.5069 47.8063 11.5069ZM35.4121 16.8188H33.6415V13.2775H35.4121V16.8188ZM3.54121 47.8043H1.7706V44.2631H3.54121V47.8043ZM10.4014 44.7748L10.4634 45.1511H8.99378C8.48828 44.4473 7.96772 42.6182 7.96772 38.066C8.04109 34.1666 9.27387 30.3774 11.5089 27.1812V32.5577C10.3412 35.2029 9.95345 42.0853 10.4014 44.7748ZM20.7161 1.78544C24.9147 1.50259 28.6078 4.53729 29.1441 8.71116L24.2989 6.28809C24.1291 6.20277 23.9361 6.17477 23.7491 6.20841L13.4637 8.02328C14.1913 4.54249 17.1657 1.98419 20.7161 1.78544ZM8.85302 21.2116V8.85104C8.85656 6.10915 10.9444 3.81965 13.6744 3.56401C12.2625 5.31027 11.4975 7.49077 11.5089 9.73634V10.6438C11.5089 14.4417 13.2663 16.5213 15.6026 18.3309C13.7336 20.0117 11.3598 21.0249 8.85302 21.2116ZM13.2795 10.6438V9.85408L23.7695 8.00292L29.2105 10.7235C29.1849 14.0203 27.679 15.6617 24.5353 17.8634C22.5592 19.2393 19.9353 19.2393 17.9592 17.8634C14.789 15.6431 13.2795 13.9973 13.2795 10.6438ZM16.8207 24.1411C17.3977 23.983 17.9931 23.9023 18.5913 23.9012C19.0803 23.9012 19.4766 23.5048 19.4766 23.0159V20.4334C20.6368 20.7422 21.8577 20.7422 23.0179 20.4334V23.0159C23.0179 23.5048 23.4142 23.9012 23.9032 23.9012C24.5014 23.9023 25.0968 23.983 25.6738 24.1411V25.5576L21.2473 26.5093L16.8207 25.5576V24.1411ZM12.0038 42.5926C11.9495 39.9455 12.1783 37.3002 12.6864 34.7019C12.917 34.8614 13.1653 34.9936 13.4265 35.0958C14.319 37.4743 14.3575 40.0888 13.5354 42.4925H12.3942C12.258 42.4946 12.1242 42.5289 12.0038 42.5926ZM15.0501 47.8043H13.2795V44.2631H15.0501V47.8043ZM16.8207 43.3778C16.8207 42.8889 16.4243 42.4925 15.9354 42.4925H15.4043C16.0743 40.1792 16.0743 37.7234 15.4043 35.4101H27.0548C26.2235 38.0035 26.2394 40.7941 27.1 43.3778H16.8207ZM29.215 32.6214C29.215 33.1021 28.458 33.6395 27.4444 33.6395H15.0501C14.0365 33.6395 13.2795 33.1021 13.2795 32.6214V24.983C13.8542 24.7458 14.4461 24.5525 15.0501 24.4049V26.2756C15.05 26.693 15.3414 27.0537 15.7495 27.1414L21.0613 28.2843C21.1838 28.3111 21.3107 28.3111 21.4332 28.2843L26.745 27.1414C27.1531 27.0537 27.4445 26.693 27.4444 26.2756V24.404C28.0484 24.5516 28.6403 24.7449 29.215 24.9821V32.6214ZM40.2095 28.7978L30.9856 30.7738V26.5571H36.5276C38.3695 26.5627 39.9062 25.151 40.0564 23.3151L40.6672 14.1629H41.6092V27.0661C41.606 27.9 41.0242 28.6198 40.2095 28.7978ZM46.921 16.8188H45.1504V13.2775H46.921V16.8188Z" fill="#F27D02"/>
</svg>
