<svg width="40" height="65" viewBox="0 0 40 65" fill="none" xmlns="http://www.w3.org/2000/svg">
<path d="M36.174 16.2479L34.8691 15.3159C34.0925 14.76 33.4595 14.0271 33.0224 13.1779C32.5854 12.3287 32.357 11.3876 32.356 10.4325C32.3561 7.68844 31.2735 5.05519 29.3436 3.1046C27.4136 1.154 24.7919 0.0435883 22.0481 0.0145068C16.2644 -0.290583 13.986 4.31691 13.9502 4.3881C12.905 6.45975 12.7228 8.86103 13.4435 11.0667C13.4465 11.0753 13.4495 11.084 13.4526 11.0927L13.8802 12.2932L13.1805 15.394C13.1324 15.6073 13.1502 15.8301 13.2316 16.033C13.313 16.2359 13.4541 16.4092 13.6363 16.5301L15.6753 17.8829L16.5994 20.7082C16.6804 20.9556 16.848 21.1655 17.0715 21.2989C17.295 21.4324 17.5593 21.4806 17.8155 21.4345L21.5707 20.7593V22.7042H19.5313C18.3563 22.7055 17.2299 23.1728 16.399 24.0036C15.5682 24.8344 15.1008 25.9609 15.0995 27.1359V29.6898L14.3182 30.3343C13.3171 31.0435 12.5318 32.0159 12.0491 33.1438C11.5664 34.2718 11.4053 35.5112 11.5835 36.7251H5.39267C5.23095 36.7251 5.07129 36.7614 4.9255 36.8314C4.77972 36.9014 4.65155 37.0033 4.55047 37.1296L0.236334 42.5222C0.083275 42.7136 -7.65466e-05 42.9513 5.27485e-08 43.1963V47.2219C0.000485612 47.7027 0.142434 48.1726 0.408155 48.5733C0.673876 48.9739 1.05162 49.2874 1.49431 49.4749C1.21836 50.5005 1.07857 51.5579 1.07853 52.62C1.07853 55.877 2.28717 58.9223 4.48158 61.1944C6.45395 63.2395 8.83036 64.5108 11.6505 64.7608L14.0209 64.767V63.6885C14.0209 63.4024 13.9073 63.1281 13.705 62.9258C13.5028 62.7236 13.2285 62.6099 12.9424 62.6099C11.6535 62.6181 10.3765 62.3641 9.18879 61.8633C8.00113 61.3626 6.9277 60.6256 6.03372 59.6971C4.21498 57.7925 3.2111 55.2534 3.2356 52.62C3.23317 50.7403 3.76385 48.8985 4.76604 47.3082C4.94857 47.4396 5.16776 47.5104 5.39267 47.5105H7.54974C7.7653 47.5105 7.97592 47.4459 8.15442 47.325C8.33291 47.2042 8.4711 47.0326 8.55116 46.8325L10.0207 43.1592C10.546 42.9809 11.0852 42.8466 11.6328 42.7578L16.1439 42.0297C16.3579 41.9952 16.5565 41.897 16.7138 41.7479C16.8712 41.5989 16.9799 41.4058 17.026 41.194C17.072 40.9822 17.0531 40.7615 16.9719 40.5606C16.8906 40.3596 16.7507 40.1879 16.5703 40.0676L15.6526 39.4558C15.1489 39.1137 14.719 38.674 14.3883 38.1627C14.0577 37.6514 13.833 37.0789 13.7276 36.4792C13.5911 35.6452 13.6933 34.7896 14.0222 34.0112C14.3511 33.2327 14.8933 32.5631 15.5864 32.0796C15.611 32.0626 15.6347 32.0446 15.6578 32.0257L17.8058 30.2539H22.1042L23.0588 39.795C23.0588 39.8005 23.0597 39.8062 23.0603 39.8119L23.6634 45.8428L17.3374 49.458L13.5895 46.6476C13.4293 46.5273 13.2388 46.4541 13.0393 46.4361C12.8397 46.4181 12.6392 46.4561 12.46 46.5458L10.303 47.6244C10.1662 47.6928 10.0455 47.7895 9.94897 47.9081C9.85242 48.0267 9.7822 48.1644 9.74296 48.3122C9.70371 48.46 9.69635 48.6145 9.72136 48.7654C9.74636 48.9162 9.80317 49.0601 9.888 49.1873L11.3381 51.363L7.60232 53.0424C7.46085 53.106 7.33476 53.1993 7.23265 53.3161C7.13054 53.4328 7.05481 53.5702 7.01062 53.7189C6.96644 53.8675 6.95484 54.024 6.97661 54.1775C6.99838 54.3311 7.05302 54.4782 7.13679 54.6087L9.87776 58.8783C9.97537 59.0304 10.1096 59.1556 10.2682 59.2422C10.4268 59.3289 10.6046 59.3743 10.7853 59.3743C10.8838 59.3743 18.6317 57.1756 18.6317 57.1756C18.6721 57.164 29.7009 52.5708 29.7009 52.5708C29.8724 52.4988 30.039 52.4158 30.1998 52.3223V64.767H32.3568V32.3411C34.4405 32.0761 36.3561 31.061 37.7456 29.4858C39.135 27.9106 39.9029 25.8831 39.9058 23.7827V23.4996C39.9043 22.0814 39.5651 20.6839 38.9161 19.4228C38.2672 18.1618 37.3272 17.0735 36.174 16.2479ZM11.2893 40.6282C10.7322 40.7183 10.1821 40.8472 9.6429 41.0138L8.70539 40.6387L6.81944 45.3534H6.4712V42.1178H4.31414V44.3708C3.47146 45.278 2.7738 46.3097 2.24578 47.4296C2.21774 47.4027 2.19543 47.3705 2.18018 47.3348C2.16494 47.2991 2.15707 47.2607 2.15707 47.2219V43.5747L5.91104 38.8822C5.91104 38.8822 12.3026 38.8822 12.3034 38.8837C12.5799 39.3987 12.9237 39.8747 13.3257 40.2992L11.2893 40.6282ZM18.3577 19.145L17.6088 16.8557C17.5334 16.625 17.3823 16.4265 17.1801 16.2923L15.4482 15.1434L16.0532 12.4631C16.0981 12.2639 16.0856 12.0561 16.017 11.8638L15.4894 10.3822C15.1563 9.35422 15.079 8.2605 15.2644 7.19593C16.7972 9.36417 19.0206 10.948 21.5707 11.6882V18.5669L18.3577 19.145ZM19.5306 24.8612H20.9535L17.2565 27.9108V27.1359C17.2572 26.5328 17.4971 25.9546 17.9236 25.5282C18.35 25.1017 18.9282 24.8619 19.5313 24.8612H19.5306ZM22.3471 26.5079C22.3885 26.6044 22.4326 26.6995 22.4769 26.7944C22.2859 27.2088 22.1509 27.6468 22.0754 28.0968H20.4212L22.3471 26.5079ZM28.8707 50.5797L17.9775 55.1191L11.2599 57.0385L9.62861 54.4967L13.3846 52.8088C13.5275 52.7445 13.6547 52.6499 13.7574 52.5315C13.86 52.4131 13.9356 52.2738 13.9789 52.1232C14.0222 51.9726 14.0322 51.8144 14.0082 51.6596C13.9842 51.5048 13.9267 51.357 13.8398 51.2267L12.3604 49.0069L12.8285 48.7727L16.6094 51.6089C16.7778 51.7352 16.9795 51.8094 17.1895 51.8225C17.3996 51.8356 17.6089 51.7869 17.7916 51.6825L25.3414 47.3684C25.5223 47.265 25.6694 47.1114 25.7649 46.9261C25.8604 46.7409 25.9002 46.532 25.8794 46.3246L25.2082 39.6125C25.2082 39.607 25.2072 39.6014 25.2067 39.5958L24.1779 29.3141C25.7567 31.0143 27.8932 32.0914 30.199 32.3496V48.589C30.1998 49.015 30.074 49.4316 29.8376 49.786C29.6013 50.1405 29.265 50.4167 28.8714 50.5797H28.8707ZM37.7487 23.7827C37.7468 25.4984 37.0644 27.1432 35.8512 28.3564C34.638 29.5696 32.9932 30.252 31.2775 30.2539C29.2759 30.2517 27.3569 29.4555 25.9415 28.0402C24.5261 26.6248 23.73 24.7058 23.7278 22.7042V10.8403C23.7278 10.591 23.6414 10.3493 23.4833 10.1565C23.3252 9.96366 23.1052 9.83156 22.8607 9.78266C20.0374 9.21818 17.598 7.32158 16.2454 4.66825C16.7726 3.83238 18.3583 1.97056 21.9556 2.17009C21.9723 2.17108 21.989 2.17162 22.0057 2.17171C24.1849 2.18956 26.2687 3.06776 27.8033 4.61502C29.3379 6.16228 30.199 8.25325 30.199 10.4325C30.2003 11.7308 30.5108 13.0102 31.1049 14.1647C31.699 15.3192 32.5596 16.3155 33.6153 17.0713L34.9202 18.0032C35.7943 18.6289 36.5068 19.4538 36.9986 20.4096C37.4905 21.3654 37.7476 22.4247 37.7487 23.4996V23.7827Z" fill="black"/>
</svg>
