<svg width="39" height="33" viewBox="0 0 39 33" fill="none" xmlns="http://www.w3.org/2000/svg">
<path d="M36.2585 26.5565H31.3014V19.1208C31.2993 17.3138 30.5806 15.5813 29.3028 14.3035C28.025 13.0257 26.2925 12.3069 24.4854 12.3049H18.2551C18.4326 11.8482 18.4863 11.3526 18.4107 10.8685C18.335 10.3844 18.1327 9.92881 17.8243 9.54803V9.12923C17.8243 6.82851 16.9104 4.62202 15.2835 2.99516C13.6567 1.3683 11.4502 0.454346 9.14945 0.454346C6.84873 0.454346 4.64224 1.3683 3.01538 2.99516C1.38852 4.62202 0.474562 6.82851 0.474562 9.12923V12.2274C0.471479 13.941 0.97713 15.6169 1.92744 17.0428C2.87776 18.4688 4.22996 19.5805 5.81272 20.2372C5.84037 20.2487 5.86856 20.2589 5.89637 20.2701V24.4891L2.83405 28.525C2.27045 28.7738 1.7913 29.1811 1.45491 29.6972C1.11851 30.2134 0.939376 30.8161 0.939289 31.4322V32.1332C0.939289 32.2975 1.00457 32.4551 1.12078 32.5713C1.23698 32.6875 1.39459 32.7528 1.55892 32.7528H5.89637C5.98814 32.7528 6.07876 32.7324 6.16168 32.6931C6.24461 32.6538 6.31778 32.5966 6.37589 32.5256L11.9526 25.7096C12.0432 25.5989 12.0927 25.4602 12.0927 25.3172V24.9687C12.4258 25.191 12.7728 25.3919 13.1316 25.57L10.8892 28.5256C10.3267 28.7758 9.8486 29.1833 9.51243 29.6991C9.17626 30.2148 8.99641 30.8167 8.99454 31.4324V32.1332C8.99454 32.2975 9.05982 32.4551 9.17603 32.5713C9.29223 32.6875 9.44984 32.7528 9.61418 32.7528H13.9516C14.0445 32.7528 14.1363 32.732 14.22 32.6917C14.3038 32.6515 14.3774 32.593 14.4355 32.5205L19.2067 26.5565H20.0831L19.8646 28.7433C19.8063 29.3253 19.8889 29.9128 20.1054 30.4562C20.3219 30.9996 20.6659 31.4829 21.1085 31.8654C21.551 32.2479 22.0791 32.5182 22.6481 32.6537C23.2171 32.7891 23.8104 32.7857 24.3778 32.6437L25.8644 32.2719C26.3138 32.5201 26.8083 32.676 27.3188 32.7306C27.8293 32.7851 28.3455 32.7371 28.8372 32.5895L31.557 31.7741L31.6661 31.9378C31.8163 32.1631 32.0146 32.3523 32.2468 32.4917C32.479 32.6311 32.7392 32.7173 33.0087 32.7439C33.2782 32.7706 33.5503 32.7371 33.8053 32.646C34.0603 32.5548 34.2919 32.4081 34.4834 32.2166C34.5797 32.1201 34.665 32.0133 34.7378 31.8981L34.7642 31.9377C34.9822 32.2644 35.2995 32.5123 35.6692 32.6449C36.0389 32.7774 36.4415 32.7875 36.8174 32.6737C37.1933 32.5599 37.5226 32.3281 37.7567 32.0128C37.9908 31.6974 38.1173 31.3151 38.1174 30.9223V28.4154C38.1168 27.9225 37.9208 27.45 37.5723 27.1016C37.2238 26.7531 36.7513 26.557 36.2585 26.5565ZM30.0621 19.1208V20.0705C29.5277 19.5911 28.8659 19.2769 28.1567 19.1657C27.4474 19.0545 26.7212 19.1511 26.0657 19.4439C25.4103 19.7368 24.8537 20.2132 24.4633 20.8157C24.0728 21.4181 23.8653 22.1208 23.8658 22.8387V25.3172H22.6265V13.5441H24.4854C25.9639 13.5458 27.3814 14.1339 28.4269 15.1793C29.4724 16.2248 30.0605 17.6423 30.0621 19.1208ZM1.71383 12.2274V9.12923C1.71457 7.19793 2.46672 5.34269 3.8111 3.95613C5.15549 2.56957 6.98661 1.76048 8.91697 1.7001C10.8473 1.63971 12.7254 2.33277 14.1539 3.6326C15.5823 4.93243 16.4489 6.73703 16.5704 8.66451C16.2763 8.5619 15.9671 8.50953 15.6556 8.5096H15.3458V9.74887H15.6556C16.0665 9.74887 16.4605 9.91208 16.751 10.2026C17.0415 10.4931 17.2047 10.8871 17.2047 11.298C17.2047 11.7088 17.0415 12.1028 16.751 12.3933C16.4605 12.6838 16.0665 12.847 15.6556 12.847H15.3458V14.0863H15.6556C15.8975 14.0863 16.1384 14.0548 16.3722 13.9925C15.9564 15.6936 14.9537 17.1933 13.5407 18.2276C12.1277 19.2619 10.395 19.7645 8.64786 19.6467C8.63794 19.6455 8.62795 19.6445 8.6178 19.6439C6.74176 19.5118 4.98572 18.6728 3.70428 17.2962C2.42285 15.9196 1.71148 14.1081 1.71383 12.2274ZM5.60274 31.5135H2.17856V31.4322C2.17862 31.0369 2.29953 30.6511 2.52507 30.3265C2.75061 30.0018 3.07001 29.7539 3.44044 29.6159C3.55092 29.575 3.64741 29.5034 3.71858 29.4095L7.00962 25.0721C7.09137 24.9643 7.13562 24.8328 7.13564 24.6976V20.6671C7.58371 20.7735 8.03956 20.8439 8.49883 20.8776C8.5096 20.8789 8.5206 20.8799 8.53152 20.8807C8.56475 20.883 8.5979 20.8839 8.63113 20.8859L9.03815 21.632C9.51511 22.5062 10.1278 23.2992 10.8534 23.9813V25.096L5.60274 31.5135ZM18.2891 25.7195L13.6538 31.5135H10.2338V31.4324C10.235 31.0372 10.3564 30.6518 10.5819 30.3273C10.8074 30.0028 11.1264 29.7547 11.4963 29.6159C11.6066 29.5749 11.7029 29.5033 11.774 29.4096L15.0648 25.0721C15.1466 24.9644 15.1909 24.8328 15.1909 24.6976V21.5994H13.9516V24.4891L13.8974 24.561C12.294 23.8235 10.9715 22.5881 10.1266 21.0385L10.0276 20.8571C10.1574 20.8439 10.2863 20.8289 10.4134 20.8099C12.2487 20.5398 13.9491 19.6884 15.2648 18.3807C16.5806 17.0729 17.4424 15.3778 17.7236 13.5441H21.3872V25.3172H19.5283V21.5994H18.2891V25.7195ZM24.0763 31.4417C23.7017 31.5352 23.3102 31.5373 22.9347 31.4478C22.5591 31.3582 22.2106 31.1797 21.9186 30.9272C21.6265 30.6747 21.3995 30.3557 21.2566 29.9971C21.1137 29.6384 21.0592 29.2507 21.0976 28.8665L21.3284 26.5565H23.8658V28.8912C23.8652 29.7608 24.1596 30.6049 24.701 31.2855L24.0763 31.4417ZM33.189 31.5135C33.0594 31.5134 32.9335 31.4707 32.8307 31.3919L33.7465 31.1171C33.7062 31.2329 33.6308 31.3333 33.5309 31.4043C33.431 31.4754 33.3114 31.5135 33.1888 31.5135H33.189ZM36.8781 30.9223C36.8781 31.0492 36.8373 31.1727 36.7617 31.2746C36.6861 31.3765 36.5797 31.4514 36.4582 31.4882C36.3368 31.5249 36.2067 31.5217 36.0873 31.4788C35.9679 31.436 35.8654 31.3559 35.795 31.2503L34.9151 29.9305C34.8415 29.8201 34.7344 29.7362 34.6095 29.6913C34.4846 29.6463 34.3486 29.6426 34.2215 29.6807L28.4809 31.4029C28.0893 31.5204 27.6757 31.5447 27.2731 31.4739C26.8705 31.4031 26.49 31.2391 26.162 30.9951C25.834 30.7511 25.5676 30.4337 25.3841 30.0684C25.2006 29.7031 25.105 29.3 25.105 28.8912V22.8387C25.105 22.1813 25.3662 21.5509 25.831 21.0861C26.2958 20.6212 26.9262 20.3601 27.5836 20.3601C28.2409 20.3601 28.8714 20.6212 29.3362 21.0861C29.801 21.5509 30.0621 22.1813 30.0621 22.8387V27.1761C30.0621 27.3404 30.1274 27.498 30.2436 27.6142C30.3598 27.7305 30.5174 27.7957 30.6818 27.7957H36.2585C36.4228 27.7959 36.5803 27.8613 36.6964 27.9774C36.8126 28.0936 36.8779 28.2511 36.8781 28.4154V30.9223Z" fill="#378940"/>
<path d="M4.19258 13.4668C4.87701 13.4668 5.43185 12.912 5.43185 12.2276C5.43185 11.5431 4.87701 10.9883 4.19258 10.9883C3.50815 10.9883 2.95331 11.5431 2.95331 12.2276C2.95331 12.912 3.50815 13.4668 4.19258 13.4668Z" fill="#378940"/>
<path d="M11.628 13.4668C12.3124 13.4668 12.8673 12.912 12.8673 12.2276C12.8673 11.5431 12.3124 10.9883 11.628 10.9883C10.9436 10.9883 10.3887 11.5431 10.3887 12.2276C10.3887 12.912 10.9436 13.4668 11.628 13.4668Z" fill="#378940"/>
<path d="M7.91023 16.565C8.40308 16.5644 8.87558 16.3684 9.22407 16.0199C9.57256 15.6714 9.76859 15.1989 9.76914 14.7061H8.52987C8.52987 14.8704 8.46459 15.028 8.34838 15.1442C8.23218 15.2604 8.07457 15.3257 7.91023 15.3257C7.7459 15.3257 7.58829 15.2604 7.47209 15.1442C7.35588 15.028 7.2906 14.8704 7.2906 14.7061H6.05133C6.05188 15.1989 6.24791 15.6714 6.5964 16.0199C6.94489 16.3684 7.41739 16.5644 7.91023 16.565Z" fill="#378940"/>
<path d="M7.91745 9.08972C8.0204 9.12845 8.13181 9.13907 8.24022 9.1205C8.34864 9.10193 8.45016 9.05484 8.53435 8.98406C8.61854 8.91328 8.68238 8.82136 8.7193 8.71775C8.75622 8.61413 8.7649 8.50256 8.74443 8.39449L8.64258 7.85657C8.58436 7.57551 8.58761 7.28519 8.6521 7.00551C8.71659 6.72583 8.8408 6.4634 9.01622 6.23622C9.18396 6.02065 9.39635 5.84392 9.63882 5.71817C9.88129 5.59242 10.1481 5.52061 10.4209 5.50769L10.3504 4.27051C9.90193 4.29504 9.4638 4.41501 9.06534 4.62239C8.66688 4.82976 8.31726 5.11978 8.03983 5.47306C7.60708 6.03156 7.37027 6.717 7.36598 7.42352C7.18172 7.27116 7.03238 7.08097 6.92805 6.86585C6.63427 6.28533 6.58888 5.6272 6.80962 5.14838L5.68413 4.62943C5.30314 5.4561 5.3548 6.50119 5.82224 7.42553C6.32747 8.42392 7.13431 8.79508 7.91745 9.08972Z" fill="#378940"/>
</svg>
