<svg width="75" height="74" viewBox="0 0 75 74" fill="none" xmlns="http://www.w3.org/2000/svg">
<circle cx="37.7009" cy="37.0764" r="36.8317" fill="#F7F7F7"/>
<path d="M59.6489 44.1483C59.6489 43.6988 59.395 43.315 59.0018 43.171C58.6415 43.0387 58.2433 43.1483 57.9874 43.4507L57.2312 44.3435L55.3759 36.8823C55.2489 36.3682 54.8494 35.974 54.3326 35.8531L49.0824 34.6307L51.9605 30.2569L53.2978 28.5422C53.4934 28.2917 53.4763 27.9357 53.2576 27.7046L53.0681 27.5043L53.5356 27.0777C53.8202 26.8178 53.985 26.4628 53.9994 26.0773C54.0138 25.6919 53.8758 25.3248 53.6109 25.0442L53.2379 24.649C52.7894 24.1758 52.0781 24.0659 51.5084 24.3817L50.5928 24.8901L50.5687 24.8647C50.3209 24.6028 49.9428 24.5157 49.6052 24.6416C49.2676 24.7682 49.0399 25.0823 49.0248 25.4427L49.0114 25.7679L47.0445 26.86L45.0093 26.2441C45.009 26.2441 45.009 26.2441 45.009 26.2438L41.5361 25.1721C41.5307 25.1704 41.525 25.1687 41.5193 25.1671C40.6593 24.9273 39.7283 25.084 38.9955 25.585C38.9242 25.1453 38.7413 24.7287 38.4556 24.3713L37.115 22.6932C36.2121 21.5629 34.5581 21.378 33.4278 22.2806L33.0694 22.5669C32.5219 23.0043 32.1776 23.6285 32.0996 24.3251C32.0219 25.0217 32.2198 25.7066 32.6572 26.2542L33.9978 27.9323C34.2704 28.2736 34.612 28.5278 34.9864 28.6929C34.3092 29.3627 33.9673 30.3222 34.0842 31.2804L35.4295 42.2638L35.1525 42.5625L33.5272 42.3549C33.1746 42.3097 32.8527 42.5588 32.8079 42.9111C32.763 43.2635 33.0118 43.5856 33.3641 43.6305L34.756 43.8083V45.9634L30.7653 45.5549C30.765 45.5549 30.7646 45.5549 30.7643 45.5549C30.764 45.5549 30.7636 45.5545 30.763 45.5545L27.4521 45.2277C27.0978 45.1932 26.7837 45.451 26.7488 45.8044C26.714 46.1577 26.9722 46.4725 27.3255 46.5077L30.0567 46.7772V48.2706H27.3888C27.3865 48.2706 27.3845 48.2709 27.3821 48.2709H25.0894V48.0318C25.0894 47.086 24.5572 46.2625 23.7766 45.8442C24.0988 45.4594 24.3185 44.9865 24.3935 44.4671H24.7056C25.1972 44.4671 25.6768 44.3033 26.0928 43.9932L27.218 43.1503C27.4461 42.9801 27.7 42.9071 27.9515 42.9389L30.6183 43.2799C30.9706 43.3251 31.2928 43.0756 31.3377 42.7236C31.3825 42.3713 31.1334 42.0491 30.781 42.0042L28.1139 41.6633C27.5328 41.5896 26.9417 41.7517 26.4478 42.1204L25.3228 42.9631C25.1316 43.1057 24.9179 43.1811 24.7053 43.1811H24.3935C24.2002 41.8425 23.0458 40.8106 21.6547 40.8106H19.3499C17.8237 40.8106 16.5822 42.0521 16.5822 43.5783V44.0699C16.5822 44.7179 16.8066 45.3144 17.181 45.7863C16.3381 46.1828 15.7527 47.0401 15.7527 48.0318V48.5325C15.7527 49.0971 16.2122 49.5566 16.7768 49.5566L56.9455 49.5569H59.0059C59.3548 49.5569 59.6489 49.2629 59.6489 48.9139V44.1483ZM58.3628 44.9969V47.1105L57.7255 46.3302L57.614 45.8811L58.3628 44.9969ZM43.4011 48.2709L43.223 47.803C42.9859 47.1791 42.4698 46.7538 41.8763 46.6929L41.1931 46.6229L42.4657 44.6881L53.0838 45.8871L53.3979 46.7371L53.3775 48.2709H43.4011ZM31.3427 46.9069L41.7454 47.9722C41.8314 47.9809 41.95 48.0733 42.021 48.2599L42.025 48.2706H31.3427V46.9069ZM43.2585 43.4832L45.3181 40.3522L44.8703 43.6653L43.2585 43.4832ZM54.6769 47.2685H56.8313L57.6498 48.2706H54.6635L54.6769 47.2685ZM54.0406 37.1056C54.0838 37.1157 54.117 37.1482 54.1277 37.1914L56.2744 45.8255C56.2771 45.8358 56.2798 45.8459 56.2828 45.8556L56.3139 45.9822H54.49L54.1525 45.0692C54.1488 45.0592 54.1451 45.0495 54.1407 45.0398L52.2529 39.9376C52.0727 39.4499 51.6407 39.104 51.1263 39.0343L49.1946 38.7728C48.8423 38.7252 48.5188 38.9717 48.4712 39.3237C48.4236 39.6757 48.6701 39.9995 49.0221 40.0471L50.9535 40.3086C50.996 40.3143 51.0319 40.3431 51.0469 40.384L52.5831 44.5361L46.1487 43.8097L46.9514 37.8685L48.3285 35.7757L54.0406 37.1056ZM50.3446 26.4986L51.6735 27.9022C51.6742 27.9032 51.6749 27.9039 51.6755 27.9049C51.6772 27.9066 51.6789 27.9079 51.6806 27.9099L51.9438 28.1875L51.3832 28.9062L50.2177 27.716L50.2663 26.5422L50.3446 26.4986ZM52.132 25.5063C52.1886 25.4748 52.2593 25.4862 52.3031 25.5324L52.6756 25.927C52.7094 25.9628 52.7154 26.0023 52.7141 26.0294C52.7131 26.0562 52.7044 26.0951 52.6685 26.1279L52.1839 26.5703L51.5054 25.854L52.132 25.5063ZM47.4307 28.1165L48.9488 27.2736L48.931 27.7043L47.2337 29.5345L44.795 28.7957L45.0204 28.1839L45.2166 27.6507L46.9323 28.1698C47.0988 28.22 47.2786 28.2009 47.4307 28.1165ZM45.1168 31.8175L43.5398 29.7606L43.7719 29.8292L46.2612 30.5834L45.1168 31.8175ZM41.166 26.4039L43.9852 27.2739L43.6329 28.2304L43.5612 28.4253L42.7588 28.1875C42.7347 28.1805 42.7102 28.1748 42.6854 28.1705C42.3144 28.1065 41.949 28.2733 41.7541 28.5958C41.5592 28.9183 41.5816 29.3202 41.8107 29.6189L44.2297 32.774L40.6462 36.6381L38.382 33.1166C38.168 32.7847 37.7574 32.6421 37.384 32.7697C37.0105 32.8969 36.7728 33.2603 36.8059 33.6535L36.9168 34.97L35.8665 35.2566L35.3605 31.1246C35.2831 30.4887 35.55 29.851 36.0571 29.4612L36.9965 28.7388C37.2386 28.6447 37.4714 28.5154 37.685 28.3449L38.043 28.0586C38.2226 27.9153 38.38 27.7515 38.5132 27.5723L39.6425 26.7033C40.0729 26.372 40.6419 26.2602 41.166 26.4039ZM38.539 38.9104L38.2443 35.4097C38.2443 35.4087 38.244 35.4077 38.244 35.4067L38.2316 35.2603L39.7433 37.612L38.539 38.9104ZM36.5738 41.0297L36.0246 36.5463L37.0266 36.2731L37.3562 40.1864L36.5738 41.0297ZM33.6619 25.4517C33.4388 25.1724 33.3377 24.8231 33.3775 24.4681C33.4174 24.1131 33.5929 23.7946 33.8722 23.5716L34.2305 23.2856C34.8066 22.8254 35.6498 22.9195 36.11 23.4956L37.4509 25.1738C37.674 25.4531 37.7748 25.8024 37.7349 26.1574C37.7138 26.3459 37.6536 26.5238 37.5605 26.6828L36.3819 27.5887C35.8873 27.7157 35.3414 27.5539 35.0025 27.1299L33.6619 25.4517ZM36.042 43.4945L36.0494 43.4865L37.3123 42.1248L38.4921 40.8528C38.4932 40.8515 38.4945 40.8502 38.4955 40.8485L49.5764 28.8992L50.6156 29.9608L45.796 37.2848C45.7937 37.2885 45.7913 37.2922 45.789 37.2959C45.788 37.2975 45.787 37.2992 45.786 37.3009C45.7836 37.3042 45.7816 37.3076 45.7796 37.3109L39.7507 46.4752L36.042 46.0951V43.4945ZM17.8683 43.5783C17.8683 42.7611 18.5327 42.0967 19.3499 42.0967H21.6547C22.4715 42.0967 23.1363 42.7611 23.1363 43.5783V44.0699C23.1363 44.8871 22.4715 45.5515 21.6547 45.5515H19.3499C18.5327 45.5515 17.8683 44.8871 17.8683 44.0699V43.5783ZM17.0387 48.0318C17.0387 47.3734 17.5742 46.8375 18.233 46.8375H22.6091C23.2675 46.8375 23.8034 47.3734 23.8034 48.0318V48.2706H17.0387V48.0318Z" fill="#378940"/>
</svg>
