<svg width="41" height="53" viewBox="0 0 41 53" fill="none" xmlns="http://www.w3.org/2000/svg">
<path d="M35.5226 28.2959L27.6497 26.6087L26.3345 25.2936V21.9993C27.0591 21.1791 27.6104 20.2209 27.9552 19.1822C28.2098 18.4165 28.4174 17.636 28.5769 16.845C29.3818 16.7324 30.1227 16.3442 30.6734 15.7464C31.224 15.1486 31.5502 14.3783 31.5963 13.5669C31.6425 12.7554 31.4057 11.9531 30.9264 11.2968C30.4471 10.6404 29.7549 10.1707 28.968 9.9676V8.10081C28.968 7.42778 28.8726 6.75815 28.6846 6.1119C28.7739 6.02996 28.8453 5.93036 28.894 5.8194C28.9428 5.70845 28.968 5.58856 28.968 5.46736C28.9664 4.07098 28.4109 2.73225 27.4236 1.74486C26.4362 0.757475 25.0974 0.202058 23.7011 0.200461H20.0391C18.3776 0.196289 16.7717 0.798803 15.523 1.89487C15.0054 1.83738 14.4815 1.88972 13.9855 2.04848C13.4895 2.20723 13.0326 2.46883 12.6446 2.81618C12.2566 3.16353 11.9462 3.58882 11.7338 4.06428C11.5213 4.53974 11.4115 5.05467 11.4116 5.57544V9.9552C10.6135 10.149 9.90853 10.6166 9.41944 11.2764C8.93035 11.9363 8.68806 12.7467 8.73472 13.5667C8.78138 14.3868 9.11403 15.1645 9.67482 15.7646C10.2356 16.3647 10.989 16.7493 11.804 16.8513C11.9633 17.6402 12.1705 18.4186 12.4245 19.1823C12.7693 20.2209 13.3205 21.1791 14.0451 21.9993V25.2936L12.7299 26.6087L4.85707 28.2958C3.48497 28.5956 2.25607 29.3542 1.37308 30.4464C0.490096 31.5386 0.00577045 32.8992 0 34.3036V49.3582C0.00104553 50.2891 0.371318 51.1816 1.02958 51.8399C1.68785 52.4981 2.58034 52.8684 3.51127 52.8695H8.77817C8.84089 52.8695 8.90342 52.8627 8.9647 52.8494L20.1898 50.4091L31.4149 52.8494C31.4761 52.8628 31.5387 52.8695 31.6014 52.8695H36.8683C37.7992 52.8684 38.6917 52.4981 39.35 51.8399C40.0083 51.1816 40.3785 50.2891 40.3796 49.3582V34.3036C40.3738 32.8992 39.8895 31.5387 39.0065 30.4465C38.1236 29.3543 36.8947 28.5957 35.5226 28.2959ZM34.4421 39.7022H38.6239V42.279L30.3256 41.7605L34.4421 39.7022ZM38.6239 34.3036V37.9466H34.2349C34.0986 37.9466 33.9641 37.9783 33.8423 38.0393L32.4792 38.7208V36.1909H30.7236V39.5986L28.735 40.5929L21.0676 41.072V34.9778L25.0641 36.976C25.1848 37.0364 25.3178 37.0681 25.4528 37.0687C25.5878 37.0694 25.7211 37.0388 25.8424 36.9795C25.9636 36.9202 26.0696 36.8338 26.152 36.7268C26.2344 36.6199 26.291 36.4955 26.3175 36.3631L27.8986 28.4576L35.1549 30.0125C36.1349 30.2268 37.0126 30.7686 37.6432 31.5487C38.2739 32.3288 38.6198 33.3005 38.6239 34.3036ZM18.9078 33.2173L15.5583 34.8922L14.1201 27.7014L14.7865 27.035L18.9078 33.2173ZM20.1898 24.7793C21.7449 24.7821 23.2682 24.3387 24.5789 23.5017V25.3914L20.1898 31.975L15.8007 25.3914V23.4977C17.1132 24.3312 18.635 24.7756 20.1898 24.7793ZM25.5931 27.035L26.2595 27.7014L24.8213 34.8919L21.4717 33.2173L25.5931 27.035ZM26.917 6.34518C27.1134 6.90964 27.2133 7.50317 27.2123 8.10081V8.90412C26.7001 8.08355 26.2453 7.22852 25.851 6.34518H26.917ZM29.8458 13.3677C29.8462 13.5982 29.8011 13.8264 29.713 14.0394C29.6248 14.2523 29.4954 14.4457 29.3322 14.6084C29.196 14.7438 29.0386 14.8561 28.8662 14.941C28.9339 14.2764 28.9679 13.6089 28.968 12.9409V11.8496C29.2345 12.0035 29.4559 12.2248 29.61 12.4912C29.764 12.7577 29.8454 13.0599 29.8458 13.3677ZM24.9424 4.58954L26.3579 3.17407C26.7114 3.58233 26.9658 4.06675 27.1013 4.58954H24.9424ZM24.8867 2.16249L22.4597 4.58954H20.2606L22.3673 1.95609H23.7011C24.1052 1.95583 24.5064 2.02566 24.8867 2.16249ZM20.119 1.95609L18.0123 4.58954H16.6785V3.21423C17.6083 2.39987 18.8032 1.95255 20.0391 1.95609H20.119ZM13.1673 5.57544C13.1676 5.09207 13.3474 4.62604 13.6717 4.26766C13.9961 3.90929 14.4419 3.68408 14.9229 3.63569V5.2884C14.4039 6.48269 13.8177 7.64666 13.1673 8.77476V5.57544ZM10.4811 13.3677C10.4814 13.0495 10.5681 12.7373 10.732 12.4646C10.8959 12.1918 11.1308 11.9687 11.4116 11.819V12.9409C11.4118 13.6172 11.4467 14.293 11.5162 14.9657C11.3232 14.8781 11.1476 14.7566 10.9976 14.6069C10.8339 14.4447 10.7039 14.2517 10.6153 14.039C10.5266 13.8263 10.481 13.5981 10.4811 13.3677ZM13.3999 15.8206C13.2452 14.8685 13.1674 13.9055 13.1673 12.9409V11.9228C14.6466 10.0517 15.8789 7.46066 16.3768 6.34518H23.9425C24.6504 8.09104 25.575 9.74102 26.6944 11.2563C26.8608 11.4813 27.0352 11.7035 27.2124 11.9228V12.9409C27.2122 14.8734 26.9007 16.7933 26.2897 18.6267C25.9893 19.5341 25.4888 20.3623 24.8252 21.0501C24.5562 21.3289 24.2631 21.5832 23.9493 21.8102C22.8558 22.6017 21.5397 23.0265 20.1898 23.0237C19.3246 23.0217 18.4686 22.8461 17.6725 22.5072C16.8764 22.1684 16.1564 21.6731 15.5552 21.0509C14.8913 20.3629 14.3906 19.5345 14.0899 18.6269C13.7893 17.723 13.5604 16.7968 13.4055 15.8569L13.3999 15.8206ZM5.2252 30.0124L12.4815 28.4576L14.0625 36.3631C14.089 36.4955 14.1456 36.6199 14.228 36.7268C14.3104 36.8338 14.4164 36.9202 14.5377 36.9795C14.6589 37.0388 14.7922 37.0694 14.9272 37.0687C15.0622 37.0681 15.1952 37.0364 15.3159 36.976L19.312 34.9778V41.072L11.6446 40.5929L9.65598 39.5986V36.1909H7.90035V38.7208L6.53732 38.0393C6.41543 37.9783 6.28101 37.9466 6.14472 37.9466H1.75563V34.3036C1.75975 33.3005 2.10567 32.3287 2.73634 31.5486C3.36701 30.7685 4.24474 30.2266 5.22477 30.0124H5.2252ZM8.68391 51.1138H3.51127C3.04581 51.1133 2.59958 50.9281 2.27046 50.599C1.94133 50.2699 1.75619 49.8237 1.75563 49.3582V47.6026H5.20458L11.2561 48.4671L16.0578 49.5111L8.68391 51.1138ZM38.6239 49.3582C38.6234 49.8237 38.4382 50.2699 38.1091 50.599C37.78 50.9281 37.3338 51.1133 36.8683 51.1138H31.6957L11.5982 46.7445C11.5775 46.74 11.5567 46.7364 11.5357 46.7335L5.391 45.8557C5.3499 45.8498 5.30842 45.8469 5.2669 45.8469H1.75563V39.7022H5.93744L11.019 42.2429C11.1244 42.2957 11.2393 42.3266 11.3569 42.3339L38.6239 44.0382V49.3582Z" fill="#F27D02"/>
<path d="M16.2396 13.3678C16.5 13.3678 16.7546 13.2906 16.9711 13.1459C17.1876 13.0012 17.3564 12.7956 17.4561 12.555C17.5557 12.3144 17.5818 12.0496 17.531 11.7942C17.4802 11.5388 17.3548 11.3042 17.1706 11.12C16.9865 10.9359 16.7519 10.8105 16.4965 10.7597C16.241 10.7089 15.9763 10.7349 15.7357 10.8346C15.4951 10.9343 15.2894 11.103 15.1448 11.3196C15.0001 11.5361 14.9229 11.7907 14.9229 12.0511C14.9232 12.4002 15.0621 12.7349 15.3089 12.9817C15.5558 13.2286 15.8905 13.3674 16.2396 13.3678Z" fill="#F27D02"/>
<path d="M24.14 13.3678C24.4004 13.3678 24.655 13.2906 24.8715 13.1459C25.088 13.0012 25.2568 12.7956 25.3565 12.555C25.4561 12.3144 25.4822 12.0496 25.4314 11.7942C25.3806 11.5388 25.2552 11.3042 25.071 11.12C24.8869 10.9359 24.6523 10.8105 24.3968 10.7597C24.1414 10.7089 23.8767 10.7349 23.6361 10.8346C23.3955 10.9343 23.1898 11.103 23.0452 11.3196C22.9005 11.5361 22.8232 11.7907 22.8232 12.0511C22.8236 12.4002 22.9625 12.7349 23.2093 12.9817C23.4562 13.2286 23.7909 13.3674 24.14 13.3678Z" fill="#F27D02"/>
<path d="M23.2163 17.6642L22.4311 16.094C21.3979 16.609 20.2595 16.8777 19.1051 16.8791H18.4346V18.6347H19.1051C20.5321 18.633 21.9392 18.3008 23.2163 17.6642Z" fill="#F27D02"/>
</svg>
