<svg width="46" height="40" viewBox="0 0 46 40" fill="none" xmlns="http://www.w3.org/2000/svg">
<path d="M43.196 32.1836H37.2121V23.2078C37.2097 21.0264 36.342 18.935 34.7995 17.3926C33.2571 15.8501 31.1657 14.9824 28.9843 14.98H21.4635C21.6778 14.4287 21.7426 13.8305 21.6513 13.2461C21.56 12.6617 21.3158 12.1118 20.9435 11.6521V11.1466C20.9435 8.36928 19.8403 5.70575 17.8764 3.74191C15.9126 1.77808 13.2491 0.674805 10.4718 0.674805C7.69449 0.674805 5.03096 1.77808 3.06712 3.74191C1.10329 5.70575 1.69617e-05 8.36928 1.69203e-05 11.1466V14.8865C-0.00370502 16.955 0.606683 18.9781 1.75384 20.6993C2.901 22.4206 4.53329 23.7626 6.44389 24.5554C6.47726 24.5693 6.5113 24.5815 6.54486 24.5951V29.688L2.84824 34.5599C2.16789 34.8602 1.5895 35.3518 1.18343 35.9749C0.777353 36.5979 0.56111 37.3256 0.561004 38.0693V38.9154C0.561004 39.1138 0.639809 39.304 0.780083 39.4443C0.920357 39.5846 1.11061 39.6634 1.30899 39.6634H6.54486C6.65564 39.6634 6.76503 39.6388 6.86514 39.5913C6.96524 39.5439 7.05356 39.4748 7.12371 39.3891L13.8556 31.1613C13.9649 31.0276 14.0247 30.8603 14.0247 30.6876V30.2669C14.4268 30.5353 14.8457 30.7778 15.2788 30.9928L12.5719 34.5606C11.8929 34.8626 11.3157 35.3545 10.9099 35.9771C10.5041 36.5997 10.287 37.3263 10.2848 38.0694V38.9154C10.2848 39.1138 10.3636 39.304 10.5039 39.4443C10.6441 39.5846 10.8344 39.6634 11.0328 39.6634H16.2686C16.3808 39.6634 16.4915 39.6382 16.5926 39.5897C16.6937 39.5411 16.7826 39.4704 16.8527 39.3829L22.6122 32.1836H23.6702L23.4064 34.8234C23.3361 35.5259 23.4357 36.2351 23.6971 36.8911C23.9584 37.547 24.3737 38.1305 24.9079 38.5921C25.4421 39.0538 26.0796 39.3802 26.7665 39.5437C27.4534 39.7072 28.1695 39.7031 28.8545 39.5317L30.649 39.0829C31.1915 39.3825 31.7883 39.5707 32.4046 39.6365C33.0208 39.7024 33.644 39.6444 34.2375 39.4662L37.5207 38.482L37.6523 38.6795C37.8337 38.9515 38.0731 39.1799 38.3534 39.3482C38.6337 39.5165 38.9478 39.6205 39.2731 39.6527C39.5984 39.6849 39.9269 39.6445 40.2347 39.5344C40.5425 39.4243 40.8221 39.2473 41.0532 39.0161C41.1695 38.8997 41.2725 38.7707 41.3604 38.6316L41.3922 38.6794C41.6554 39.0738 42.0384 39.3731 42.4847 39.5331C42.931 39.6931 43.4169 39.7053 43.8707 39.5679C44.3245 39.4305 44.722 39.1508 45.0046 38.7701C45.2872 38.3894 45.4398 37.9279 45.44 37.4538V34.4275C45.4393 33.8326 45.2026 33.2622 44.782 32.8416C44.3613 32.4209 43.7909 32.1843 43.196 32.1836ZM35.7162 23.2078V24.3542C35.0711 23.7755 34.2722 23.3961 33.416 23.2619C32.5599 23.1276 31.6832 23.2443 30.892 23.5978C30.1008 23.9513 29.4289 24.5264 28.9576 25.2536C28.4863 25.9809 28.2358 26.8291 28.2364 27.6957V30.6876H26.7404V16.4759H28.9843C30.7691 16.4779 32.4802 17.1878 33.7423 18.4499C35.0043 19.7119 35.7142 21.423 35.7162 23.2078ZM1.49598 14.8865V11.1466C1.49687 8.81522 2.40482 6.5757 4.02767 4.90193C5.65052 3.22816 7.86094 2.25149 10.1911 2.1786C12.5213 2.1057 14.7885 2.94232 16.5128 4.51138C18.2371 6.08045 19.2832 8.25885 19.4298 10.5856C19.0748 10.4617 18.7015 10.3985 18.3256 10.3986H17.9516V11.8945H18.3256C18.8215 11.8945 19.2972 12.0916 19.6478 12.4422C19.9985 12.7929 20.1955 13.2686 20.1955 13.7645C20.1955 14.2604 19.9985 14.7361 19.6478 15.0868C19.2972 15.4374 18.8215 15.6345 18.3256 15.6345H17.9516V17.1304H18.3256C18.6176 17.1304 18.9084 17.0924 19.1906 17.0172C18.6887 19.0706 17.4783 20.881 15.7726 22.1295C14.0669 23.3781 11.9753 23.9847 9.86628 23.8425C9.85431 23.8411 9.84225 23.8399 9.83 23.8392C7.56536 23.6797 5.44559 22.6669 3.89872 21.0052C2.35186 19.3435 1.49315 17.1567 1.49598 14.8865ZM6.19041 38.1674H2.05697V38.0693C2.05704 37.5921 2.20299 37.1263 2.47525 36.7344C2.74751 36.3426 3.13307 36.0433 3.58024 35.8767C3.71359 35.8273 3.83007 35.7409 3.91599 35.6276L7.88871 30.3917C7.98739 30.2616 8.04081 30.1029 8.04083 29.9396V25.0744C8.58171 25.2027 9.13198 25.2877 9.68639 25.3284C9.69939 25.33 9.71266 25.3312 9.72585 25.3321C9.76596 25.3349 9.80597 25.3361 9.84608 25.3384L10.3374 26.2391C10.9132 27.2944 11.6528 28.2516 12.5287 29.075V30.4206L6.19041 38.1674ZM21.5045 31.1732L15.9091 38.1674H11.7807V38.0694C11.7821 37.5924 11.9287 37.1272 12.2009 36.7355C12.4731 36.3438 12.8582 36.0443 13.3048 35.8767C13.4379 35.8272 13.5541 35.7408 13.6399 35.6277L17.6124 30.3918C17.7111 30.2617 17.7646 30.1029 17.7646 29.9396V26.1997H16.2686V29.688L16.2032 29.7748C14.2677 28.8845 12.6712 27.3932 11.6513 25.5227L11.5318 25.3036C11.6885 25.2877 11.8441 25.2696 11.9975 25.2467C14.213 24.9207 16.2656 23.8929 17.8538 22.3143C19.4421 20.7357 20.4824 18.6894 20.822 16.4759H25.2444V30.6876H23.0005V26.1997H21.5045V31.1732ZM28.4905 38.0807C28.0383 38.1936 27.5657 38.1961 27.1124 38.088C26.659 37.9799 26.2384 37.7644 25.8858 37.4596C25.5333 37.1549 25.2592 36.7698 25.0867 36.3368C24.9142 35.9039 24.8484 35.4359 24.8947 34.9721L25.1734 32.1836H28.2364V35.0019C28.2356 36.0517 28.5911 37.0706 29.2446 37.8922L28.4905 38.0807ZM39.4907 38.1674C39.3343 38.1673 39.1824 38.1157 39.0583 38.0205L40.1637 37.6889C40.115 37.8287 40.0241 37.9499 39.9035 38.0356C39.7828 38.1214 39.6385 38.1674 39.4905 38.1674H39.4907ZM43.944 37.4538C43.944 37.6069 43.8947 37.756 43.8034 37.879C43.7122 38.002 43.5837 38.0924 43.4371 38.1368C43.2905 38.1812 43.1335 38.1772 42.9894 38.1255C42.8452 38.0738 42.7215 37.9771 42.6365 37.8496L41.5744 36.2565C41.4855 36.1232 41.3562 36.022 41.2055 35.9677C41.0547 35.9134 40.8906 35.909 40.7371 35.955L33.8074 38.0339C33.3348 38.1757 32.8355 38.2051 32.3495 38.1196C31.8634 38.0341 31.4041 37.8362 31.0082 37.5416C30.6123 37.247 30.2907 36.8639 30.0692 36.423C29.8477 35.982 29.7323 35.4954 29.7323 35.0019V27.6957C29.7323 26.9022 30.0475 26.1412 30.6086 25.5801C31.1697 25.019 31.9307 24.7037 32.7243 24.7037C33.5178 24.7037 34.2788 25.019 34.8399 25.5801C35.401 26.1412 35.7162 26.9022 35.7162 27.6957V32.9315C35.7162 33.1299 35.795 33.3202 35.9353 33.4605C36.0755 33.6007 36.2658 33.6795 36.4642 33.6795H43.196C43.3943 33.6798 43.5844 33.7586 43.7247 33.8989C43.8649 34.0391 43.9438 34.2292 43.944 34.4275V37.4538Z" fill="#F27D02"/>
<path d="M4.48815 16.3826C5.31435 16.3826 5.98412 15.7128 5.98412 14.8866C5.98412 14.0604 5.31435 13.3906 4.48815 13.3906C3.66195 13.3906 2.99219 14.0604 2.99219 14.8866C2.99219 15.7128 3.66195 16.3826 4.48815 16.3826Z" fill="#F27D02"/>
<path d="M13.4637 16.3826C14.2899 16.3826 14.9597 15.7128 14.9597 14.8866C14.9597 14.0604 14.2899 13.3906 13.4637 13.3906C12.6375 13.3906 11.9678 14.0604 11.9678 14.8866C11.9678 15.7128 12.6375 16.3826 13.4637 16.3826Z" fill="#F27D02"/>
<path d="M8.97637 20.1224C9.5713 20.1217 10.1417 19.8851 10.5623 19.4644C10.983 19.0437 11.2196 18.4733 11.2203 17.8784H9.72435C9.72435 18.0768 9.64555 18.267 9.50527 18.4073C9.365 18.5476 9.17475 18.6264 8.97637 18.6264C8.77799 18.6264 8.58774 18.5476 8.44747 18.4073C8.30719 18.267 8.22839 18.0768 8.22839 17.8784H6.73242C6.73309 18.4733 6.96972 19.0437 7.3904 19.4644C7.81107 19.8851 8.38144 20.1217 8.97637 20.1224Z" fill="#F27D02"/>
<path d="M8.98483 11.0987C9.1091 11.1454 9.24358 11.1583 9.37445 11.1358C9.50532 11.1134 9.62787 11.0566 9.7295 10.9711C9.83114 10.8857 9.9082 10.7747 9.95276 10.6497C9.99733 10.5246 10.0078 10.3899 9.9831 10.2594L9.86015 9.61011C9.78987 9.27084 9.79379 8.92038 9.87164 8.58277C9.94949 8.24515 10.0994 7.92837 10.3112 7.65413C10.5137 7.39391 10.7701 7.18057 11.0627 7.02877C11.3554 6.87697 11.6775 6.79029 12.0069 6.77469L11.9218 5.28125C11.3804 5.31087 10.8515 5.45568 10.3705 5.70601C9.88949 5.95635 9.46745 6.30644 9.13255 6.7329C8.61016 7.40707 8.3243 8.2345 8.31912 9.08736C8.0967 8.90344 7.91642 8.67386 7.79049 8.41418C7.43585 7.71341 7.38106 6.91896 7.64753 6.34095L6.28891 5.71452C5.82899 6.71242 5.89136 7.97399 6.45562 9.08979C7.0655 10.295 8.03947 10.743 8.98483 11.0987Z" fill="#F27D02"/>
</svg>
