<svg width="39" height="53" viewBox="0 0 39 53" fill="none" xmlns="http://www.w3.org/2000/svg">
<path d="M28.9798 14.8977H28.1035V16.6504H28.9798C29.9464 16.6504 30.7325 17.4365 30.7325 18.4031C30.7325 19.3697 29.9464 20.1558 28.9798 20.1558H28.1035V21.9084H28.9798C30.913 21.9084 32.4852 20.3363 32.4852 18.4031C32.4852 16.4699 30.913 14.8977 28.9798 14.8977Z" fill="black"/>
<path d="M9.70068 16.6504H10.577V14.8977H9.70068C7.76749 14.8977 6.19531 16.4699 6.19531 18.4031C6.19531 20.3363 7.76749 21.9084 9.70068 21.9084H10.577V20.1558H9.70068C8.73408 20.1558 7.94799 19.3697 7.94799 18.4031C7.9481 17.4365 8.73408 16.6504 9.70068 16.6504Z" fill="black"/>
<path d="M18.7483 21.9083L20.1829 16.8914L18.4977 16.4094L16.745 22.5438C16.6688 22.8084 16.7222 23.0924 16.8879 23.3123C17.0535 23.5323 17.312 23.661 17.5871 23.661H20.2153V21.9083H18.7483Z" fill="black"/>
<path d="M29.7079 15.2876L26.2026 10.0297C26.0396 9.78601 25.7662 9.63965 25.4735 9.63965H9.69953C9.21582 9.63965 8.82324 10.0322 8.82324 10.5159V20.7699C8.82417 23.3831 9.49537 25.9727 10.7652 28.2572C12.4942 31.3691 15.7786 33.3005 19.3366 33.3005C19.3383 33.3005 19.3401 33.3005 19.3418 33.3005C22.9005 33.3005 26.1851 31.3682 27.9132 28.2572C29.1822 25.9718 29.8543 23.3822 29.8551 20.7689V15.7739C29.8551 15.6004 29.8035 15.4313 29.7079 15.2876ZM28.1025 20.7681C28.1017 23.0851 27.5066 25.3803 26.3814 27.4063C24.9618 29.9608 22.2644 31.5478 19.341 31.5478C19.341 31.5478 19.3402 31.5478 19.3392 31.5478C19.3392 31.5478 19.3384 31.5478 19.3375 31.5478C16.4149 31.5478 13.7176 29.9616 12.298 27.4063C11.1728 25.3811 10.5777 23.086 10.5768 20.7689V11.3922H25.0048L28.1026 16.0385V20.7681H28.1025Z" fill="black"/>
<path d="M22.2264 23.917C21.2607 24.8818 19.9777 25.4129 18.6132 25.4138H17.5879V27.1665H18.6132C20.4456 27.1655 22.1685 26.4523 23.4655 25.1571L22.2264 23.917Z" fill="black"/>
<path d="M14.0857 19.2795C15.0537 19.2795 15.8384 18.4948 15.8384 17.5269C15.8384 16.5589 15.0537 15.7742 14.0857 15.7742C13.1177 15.7742 12.333 16.5589 12.333 17.5269C12.333 18.4948 13.1177 19.2795 14.0857 19.2795Z" fill="black"/>
<path d="M24.6013 19.2795C25.5693 19.2795 26.354 18.4948 26.354 17.5269C26.354 16.5589 25.5693 15.7742 24.6013 15.7742C23.6333 15.7742 22.8486 16.5589 22.8486 17.5269C22.8486 18.4948 23.6333 19.2795 24.6013 19.2795Z" fill="black"/>
<path d="M30.0918 7.1809C29.3811 6.18366 28.3251 5.52284 27.1166 5.32043C27.0623 5.31169 27.0098 5.30377 26.9554 5.29678C26.1755 3.68171 24.5358 2.63098 22.7052 2.62924H12.7983L11.305 0.390173C11.1595 0.171924 10.9238 0.0299895 10.6627 0.00458531C10.4015 -0.0225673 10.1421 0.0720555 9.95639 0.256981L9.0801 1.13327C6.32226 3.89019 6.32226 8.37706 9.0801 11.1357L10.3183 9.89483C9.31409 8.89059 8.76106 7.55497 8.76106 6.13357C8.76106 4.713 9.31491 3.37665 10.3191 2.37231L10.4401 2.25229L11.6004 3.9918C11.7634 4.23546 12.0368 4.38182 12.3295 4.38182H22.7035C23.9821 4.38356 25.1134 5.19948 25.5201 6.4123C25.6384 6.76981 25.9741 7.01079 26.3508 7.01079C26.3517 7.01079 26.3517 7.01079 26.3526 7.01079C26.4989 7.00379 26.6707 7.02395 26.8258 7.05018C27.5716 7.17545 28.2235 7.58387 28.6626 8.19902C29.1017 8.81417 29.2743 9.56437 29.149 10.311L28.1149 16.5066L29.8439 16.7949L30.8789 10.5993C31.0821 9.39189 30.8025 8.17814 30.0918 7.1809Z" fill="black"/>
<path d="M13.2055 30.6717V34.2857L6.90291 35.1226C3.00146 35.6449 0.0605469 39.0056 0.0605469 42.9404V52.58H1.81323V42.9395C1.81323 39.8784 4.10135 37.2652 7.13432 36.8594L14.1975 35.9218C14.6331 35.864 14.9582 35.4924 14.9582 35.0533V30.6716H13.2055V30.6717Z" fill="black"/>
<path d="M31.776 35.1232L25.4744 34.2863V30.6724H23.7217V35.054C23.7217 35.4931 24.0468 35.8646 24.4824 35.9225L31.5447 36.8602C34.5794 37.265 36.8666 39.8792 36.8666 42.9402V52.5798H38.6193V42.941C38.6193 39.0063 35.6775 35.6447 31.776 35.1232Z" fill="black"/>
<path d="M8.8269 45.5693H7.07422V52.58H8.8269V45.5693Z" fill="black"/>
<path d="M31.6121 45.5693H29.8594V52.58H31.6121V45.5693Z" fill="black"/>
<path d="M18.8539 37.8306L14.6308 40.6463L13.1796 34.8423L11.4795 35.2664L13.2322 42.2771C13.3014 42.5531 13.5003 42.7792 13.7659 42.8817C13.8684 42.9211 13.9753 42.9405 14.0822 42.9405C14.2522 42.9405 14.4223 42.8914 14.5677 42.7941L19.8256 39.2887L18.8539 37.8306Z" fill="black"/>
<path d="M25.0392 34.293L19.3395 37.5503L13.6398 34.293L12.7705 35.8142L18.9048 39.3196C19.0398 39.3967 19.1896 39.4353 19.3395 39.4353C19.4893 39.4353 19.6392 39.3967 19.7741 39.3196L25.9085 35.8142L25.0392 34.293Z" fill="black"/>
<path d="M25.4996 34.8413L24.0484 40.6453L19.8254 37.8296L18.8535 39.2879L24.1115 42.7932C24.2578 42.8905 24.4278 42.9404 24.5978 42.9404C24.7047 42.9404 24.8117 42.9212 24.9125 42.8809C25.178 42.7783 25.3778 42.5522 25.4462 42.2762L27.1988 35.2656L25.4996 34.8413Z" fill="black"/>
<path d="M18.4178 42.6627L17.5415 40.0337L15.8791 40.5884L16.6976 43.0438L15.8379 52.5003L17.5836 52.6599L18.459 43.0194C18.4704 42.8993 18.4554 42.7774 18.4178 42.6627Z" fill="black"/>
<path d="M21.9797 43.0448L22.7982 40.5893L21.1367 40.0347L20.2604 42.6636C20.2227 42.7784 20.2086 42.8994 20.2192 43.0203L21.0955 52.66L22.8395 52.5014L21.9797 43.0448Z" fill="black"/>
</svg>
