<svg width="64" height="40" viewBox="0 0 64 40" fill="none" xmlns="http://www.w3.org/2000/svg">
<path d="M63.1632 31.9012C63.1632 31.2623 62.8023 30.7167 62.2434 30.512C61.7311 30.3239 61.165 30.4796 60.8013 30.9095L59.7263 32.1788L57.0887 21.5718C56.9082 20.8409 56.3402 20.2806 55.6056 20.1087L48.1418 18.3709L52.2334 12.1531L54.1345 9.71542C54.4125 9.3593 54.3882 8.85321 54.0773 8.5247L53.8079 8.23999L54.4725 7.63344C54.8772 7.26398 55.1114 6.75931 55.1319 6.21132C55.1524 5.66333 54.9562 5.14152 54.5796 4.74255L54.0492 4.18075C53.4117 3.50802 52.4005 3.35186 51.5907 3.80083L50.289 4.52355L50.2547 4.48736C49.9024 4.11505 49.3649 3.99127 48.885 4.17028C48.4051 4.35025 48.0813 4.79683 48.0599 5.30911L48.0408 5.77141L45.2447 7.32397L42.3514 6.44842C42.351 6.44842 42.351 6.44842 42.351 6.44795L37.4138 4.92442C37.4062 4.92204 37.3981 4.91966 37.39 4.91728C36.1674 4.57639 34.8438 4.79921 33.8021 5.51146C33.7007 4.88633 33.4407 4.29407 33.0346 3.78607L31.1288 1.40033C29.8452 -0.206514 27.4938 -0.469322 25.8869 0.81377L25.3775 1.22084C24.5991 1.84262 24.1096 2.73007 23.9987 3.72036C23.8883 4.71065 24.1696 5.68428 24.7914 6.4627L26.6973 8.84844C27.0848 9.33359 27.5704 9.69495 28.1027 9.92967C27.14 10.8819 26.6539 12.2459 26.8201 13.608L28.7326 29.2222L28.3388 29.6469L26.0283 29.3517C25.527 29.2874 25.0695 29.6417 25.0057 30.1425C24.9419 30.6434 25.2956 31.1014 25.7965 31.1652L27.7751 31.418V34.4817L22.1019 33.9009C22.1015 33.9009 22.101 33.9009 22.1005 33.9009C22.1 33.9009 22.0996 33.9004 22.0986 33.9004L17.3919 33.4357C16.8882 33.3867 16.4416 33.7533 16.3921 34.2556C16.3425 34.7578 16.7096 35.2054 17.2119 35.2554L21.0945 35.6386V37.7616H17.3019C17.2985 37.7616 17.2957 37.762 17.2924 37.762H14.033V37.4221C14.033 36.0776 13.2765 34.9069 12.1667 34.3122C12.6247 33.7652 12.937 33.0929 13.0436 32.3545H13.4874C14.1863 32.3545 14.8681 32.1217 15.4594 31.6808L17.0591 30.4825C17.3833 30.2406 17.7442 30.1368 18.1017 30.182L21.8929 30.6667C22.3938 30.731 22.8518 30.3763 22.9156 29.8759C22.9794 29.375 22.6252 28.917 22.1243 28.8532L18.3326 28.3686C17.5066 28.2638 16.6663 28.4943 15.964 29.0184L14.3648 30.2163C14.093 30.4191 13.7892 30.5263 13.4869 30.5263H13.0436C12.7689 28.6233 11.1278 27.1564 9.15009 27.1564H5.87356C3.70397 27.1564 1.93907 28.9213 1.93907 31.0909V31.7898C1.93907 32.7111 2.25805 33.559 2.79033 34.2299C1.59199 34.7936 0.759766 36.0124 0.759766 37.4221V38.1339C0.759766 38.9366 1.41298 39.5898 2.21568 39.5898L59.3201 39.5903H62.2491C62.7452 39.5903 63.1632 39.1723 63.1632 38.6762V31.9012ZM61.335 33.1077V36.1124L60.429 35.003L60.2704 34.3646L61.335 33.1077ZM40.0652 37.762L39.8119 37.0969C39.4748 36.21 38.7412 35.6053 37.8975 35.5187L36.9263 35.4192L38.7355 32.6687L53.8302 34.3732L54.2768 35.5815L54.2478 37.762H40.0652ZM22.9227 35.8229L37.7114 37.3374C37.8337 37.3497 38.0023 37.4811 38.1032 37.7463L38.1089 37.7616H22.9227V35.8229ZM39.8624 30.9557L42.7904 26.5046L42.1539 31.2147L39.8624 30.9557ZM56.095 36.3371H59.1578L60.3214 37.7616H56.076L56.095 36.3371ZM55.1904 21.8893C55.2519 21.9036 55.299 21.9498 55.3142 22.0112L58.366 34.2856C58.3699 34.3003 58.3737 34.3146 58.3779 34.3284L58.4222 34.5084H55.8294L55.3495 33.2105C55.3442 33.1962 55.339 33.1824 55.3328 33.1686L52.649 25.9152C52.3929 25.222 51.7787 24.7302 51.0474 24.6312L48.3013 24.2593C47.8004 24.1917 47.3405 24.5422 47.2729 25.0425C47.2053 25.5429 47.5557 26.0033 48.0561 26.0709L50.8018 26.4427C50.8622 26.4508 50.9132 26.4918 50.9346 26.5499L53.1185 32.4526L43.9711 31.4199L45.1124 22.9739L47.0701 19.9987L55.1904 21.8893ZM49.9362 6.81026L51.8254 8.8056C51.8263 8.80702 51.8273 8.80798 51.8282 8.8094C51.8306 8.81178 51.833 8.81369 51.8354 8.81655L52.2096 9.21123L51.4126 10.2329L49.7558 8.54088L49.8248 6.87215L49.9362 6.81026ZM52.4771 5.39957C52.5576 5.35482 52.6581 5.37101 52.7204 5.43671L53.2499 5.99755C53.298 6.0485 53.3065 6.10468 53.3046 6.14324C53.3032 6.18133 53.2908 6.23656 53.2399 6.28321L52.5509 6.91214L51.5864 5.89376L52.4771 5.39957ZM45.7937 9.1103L47.9518 7.91195L47.9266 8.52422L45.5137 11.1261L42.0467 10.0758L42.3672 9.206L42.6461 8.44804L45.0852 9.186C45.3218 9.25741 45.5775 9.23028 45.7937 9.1103ZM42.5043 14.3717L40.2623 11.4475L40.5923 11.5451L44.1311 12.6173L42.5043 14.3717ZM36.8877 6.67552L40.8955 7.91243L40.3947 9.27217L40.2928 9.54926L39.152 9.21123C39.1178 9.20124 39.083 9.19314 39.0478 9.18695C38.5203 9.09602 38.0008 9.33312 37.7237 9.7916C37.4467 10.2501 37.4786 10.8214 37.8042 11.2461L41.2431 15.7314L36.1488 21.2247L32.9299 16.2185C32.6257 15.7467 32.042 15.5438 31.5111 15.7252C30.9803 15.9062 30.6422 16.4227 30.6894 16.9817L30.8469 18.8532L29.3539 19.2608L28.6345 13.3866C28.5245 12.4825 28.904 11.576 29.6248 11.0218L30.9603 9.99489C31.3045 9.86111 31.6354 9.67734 31.9391 9.435L32.4481 9.02794C32.7033 8.82416 32.927 8.59135 33.1165 8.33664L34.7219 7.10116C35.3337 6.63029 36.1426 6.47127 36.8877 6.67552ZM33.1532 24.455L32.7342 19.4783C32.7342 19.4769 32.7337 19.4755 32.7337 19.4741L32.7161 19.266L34.8652 22.6092L33.1532 24.455ZM30.3594 27.4678L29.5786 21.0942L31.0031 20.7057L31.4716 26.269L30.3594 27.4678ZM26.2197 5.32197C25.9026 4.9249 25.7589 4.42833 25.8155 3.92366C25.8722 3.41899 26.1216 2.96622 26.5187 2.64914L27.0281 2.24255C27.847 1.58839 29.0459 1.72217 29.7 2.54106L31.6063 4.9268C31.9234 5.32387 32.0667 5.82044 32.0101 6.32511C31.9801 6.59316 31.8944 6.84597 31.762 7.07211L30.0866 8.35997C29.3834 8.54041 28.6074 8.31045 28.1256 7.70771L26.2197 5.32197ZM29.6034 30.9719L29.6138 30.9605L31.4092 29.0246L33.0865 27.2164C33.088 27.2145 33.0899 27.2126 33.0913 27.2102L48.844 10.2229L50.3214 11.7322L43.4698 22.144C43.4665 22.1493 43.4631 22.1545 43.4598 22.1597C43.4584 22.1621 43.4569 22.1645 43.4555 22.1669C43.4522 22.1716 43.4493 22.1764 43.4465 22.1812L34.8757 35.2092L29.6034 34.6688V30.9719ZM3.76729 31.0909C3.76729 29.9292 4.71188 28.9846 5.87356 28.9846H9.15009C10.3113 28.9846 11.2564 29.9292 11.2564 31.0909V31.7898C11.2564 32.9515 10.3113 33.8961 9.15009 33.8961H5.87356C4.71188 33.8961 3.76729 32.9515 3.76729 31.7898V31.0909ZM2.58799 37.4221C2.58799 36.4861 3.34928 35.7243 4.28577 35.7243H10.507C11.443 35.7243 12.2047 36.4861 12.2047 37.4221V37.7616H2.58799V37.4221Z" fill="#F27D02"/>
</svg>
