<svg width="43" height="40" viewBox="0 0 43 40" fill="none" xmlns="http://www.w3.org/2000/svg">
<path d="M41.9068 5.04482H35.3472V1.08088C35.3472 0.483801 34.8578 0 34.2539 0C33.6501 0 33.1607 0.483801 33.1607 1.08088V5.04482H9.83927V1.08088C9.83927 0.483801 9.3498 0 8.74605 0C8.14216 0 7.65283 0.483801 7.65283 1.08088V5.04482H1.09322C0.489325 5.04482 0 5.52862 0 6.1257V38.9191C0 39.5161 0.489325 40 1.09322 40H41.9068C42.5107 40 43 39.5161 43 38.9191V6.1257C43 5.52862 42.5107 5.04482 41.9068 5.04482ZM24.488 17.5262V22.7031H18.512V17.5262H24.488ZM40.8136 22.7029H34.837V17.5261H40.8136V22.7029ZM32.6506 22.7029H26.6744V17.5261H32.6506V22.7029ZM18.512 24.8647H24.488V30.0408H18.512V24.8647ZM18.512 32.2025H24.488V37.8382H18.512V32.2025ZM26.6744 32.2025H32.6506V37.8382H26.6744V32.2025ZM26.6744 30.0408V24.8647H32.6506V30.0408H26.6744ZM34.837 24.8647H40.8136V30.0408H34.837V24.8647ZM7.65283 7.20658V11.1711C7.65283 11.7682 8.14216 12.252 8.74605 12.252C9.3498 12.252 9.83927 11.7682 9.83927 11.1711V7.20658H33.1607V11.1711C33.1607 11.7682 33.6501 12.252 34.2539 12.252C34.8578 12.252 35.3472 11.7682 35.3472 11.1711V7.20658H40.8136V15.3645H2.18644V7.20658H7.65283ZM2.18644 17.5262H16.3256V37.8382H2.18644V17.5262ZM34.837 37.8382V32.2025H40.8136V37.8382H34.837Z" fill="#F27D02"/>
</svg>
