<svg width="36" height="38" viewBox="0 0 36 38" fill="none" xmlns="http://www.w3.org/2000/svg">
<path d="M34.4424 8.42264H31.9358C31.5897 8.42264 31.3092 8.70322 31.3092 9.04929V9.67594C31.3092 9.32987 31.0286 9.04929 30.6825 9.04929H28.8026C28.472 9.04858 28.1978 9.30472 28.1759 9.63458L28.1327 10.3026H26.9226V9.04929C26.9226 8.70322 26.642 8.42264 26.296 8.42264H23.7894C23.4433 8.42264 23.1627 8.70322 23.1627 9.04929V12.8092C23.1627 13.1553 23.4433 13.4358 23.7894 13.4358H26.296C26.642 13.4358 26.9226 13.1553 26.9226 12.8092V11.5559H28.0506L27.7084 16.6825C27.6523 17.3299 27.1087 17.8258 26.4589 17.8224H22.5361V17.5536C22.5351 17.3122 22.3957 17.0929 22.1776 16.9896C21.329 16.5931 20.4292 16.3169 19.5043 16.1687C19.4039 16.1542 19.3015 16.1646 19.206 16.1987C18.8611 16.0936 18.5076 16.019 18.1495 15.9756V14.2661C18.3353 14.1711 18.5153 14.065 18.6884 13.9484C20.794 12.4752 22.5361 10.9957 22.5361 7.81165V7.16934C22.533 5.26393 21.7443 3.44421 20.3559 2.13922C17.9132 -0.131921 14.2021 -0.349369 11.5108 1.62098C8.78892 1.13125 6.18534 2.94078 5.69562 5.66271C5.64337 5.95316 5.61689 6.24761 5.6165 6.54269V15.9424C5.6165 16.2885 5.89709 16.5691 6.24315 16.5691C8.63923 16.5732 10.9442 15.651 12.6763 13.9954C12.8249 14.0934 12.9785 14.1837 13.1363 14.2661V15.9756C12.7782 16.0181 12.4244 16.0919 12.0791 16.1962C11.9839 16.1622 11.8817 16.1518 11.7815 16.1662C10.8566 16.3144 9.95684 16.5906 9.1082 16.9871C8.89012 17.0904 8.75069 17.3097 8.74975 17.551V17.5717C6.38 20.2337 5.04562 23.6586 4.98985 27.2221C4.98985 28.941 5.07194 30.9194 5.58078 32.2353H4.3632V30.982C4.3632 30.636 4.08262 30.3554 3.73655 30.3554H1.22995C0.883885 30.3554 0.603302 30.636 0.603302 30.982V34.7419C0.603302 35.088 0.883885 35.3686 1.22995 35.3686H3.73655C4.08262 35.3686 4.3632 35.088 4.3632 34.7419V33.4886H7.94576C7.24289 34.8442 6.87403 36.3482 6.8698 37.8752H8.1231C8.12631 36.7971 8.33914 35.73 8.74975 34.7332V34.7419C8.74975 35.088 9.03034 35.3686 9.3764 35.3686H11.883C12.2291 35.3686 12.5097 35.088 12.5097 34.7419V32.2353H20.3553L20.7163 32.6865C21.8923 34.1604 22.5339 35.9896 22.5361 37.8752H23.7894C23.7866 35.7051 23.0481 33.6 21.6945 31.9038L21.2151 31.3048L20.9744 30.5829C20.3912 28.8305 20.4469 26.9283 21.1317 25.2131L21.1668 25.1254C21.9445 24.8818 22.4898 24.1819 22.5361 23.3682V23.3425L29.3283 21.8875C30.4811 21.6348 31.3042 20.6161 31.3092 19.436V12.8092C31.3092 13.1553 31.5897 13.4358 31.9358 13.4358H34.4424C34.7885 13.4358 35.0691 13.1553 35.0691 12.8092V9.04929C35.0691 8.70322 34.7885 8.42264 34.4424 8.42264ZM25.6693 12.1825H24.416V9.67594H25.6693V12.1825ZM3.1099 34.1153H1.8566V31.6087H3.1099V34.1153ZM7.96581 31.9709L8.00968 32.2372H6.96944C6.61162 31.739 6.24315 30.4444 6.24315 27.2221C6.29509 24.462 7.1677 21.7798 8.74975 19.5175V23.3231C7.9232 25.1956 7.64873 30.0671 7.96581 31.9709ZM15.2669 1.54139C18.2389 1.34118 20.853 3.48925 21.2326 6.44368L17.803 4.72853C17.6828 4.66814 17.5462 4.64832 17.4138 4.67213L10.1334 5.95677C10.6484 3.49294 12.7538 1.68207 15.2669 1.54139ZM6.8698 15.292V6.54269C6.87231 4.60187 8.35019 2.98128 10.2825 2.80033C9.28319 4.0364 8.74168 5.57984 8.74975 7.16934V7.81165C8.74975 10.5 9.99365 11.972 11.6474 13.2529C10.3244 14.4426 8.64416 15.1598 6.8698 15.292ZM10.0031 7.81165V7.25268L17.4282 5.94235L21.2796 7.86805C21.2614 10.2017 20.1955 11.3635 17.9703 12.922C16.5715 13.8959 14.7143 13.8959 13.3155 12.922C11.0715 11.3503 10.0031 10.1854 10.0031 7.81165ZM12.5097 17.3656C12.9181 17.2536 13.3395 17.1965 13.763 17.1957C14.109 17.1957 14.3896 16.9152 14.3896 16.5691V14.7411C15.2108 14.9597 16.075 14.9597 16.8962 14.7411V16.5691C16.8962 16.9152 17.1768 17.1957 17.5229 17.1957C17.9463 17.1965 18.3677 17.2536 18.7762 17.3656V18.3682L15.6429 19.0418L12.5097 18.3682V17.3656ZM9.10005 30.4262C9.06159 28.5525 9.22358 26.6801 9.5832 24.8409C9.74644 24.9538 9.92222 25.0473 10.1071 25.1197C10.7388 26.8033 10.7661 28.654 10.1842 30.3554H9.3764C9.27998 30.3569 9.18528 30.3812 9.10005 30.4262ZM11.2564 34.1153H10.0031V31.6087H11.2564V34.1153ZM12.5097 30.982C12.5097 30.636 12.2291 30.3554 11.883 30.3554H11.507C11.9813 28.718 11.9813 26.9796 11.507 25.3422H19.7537C19.1653 27.1779 19.1765 29.1532 19.7857 30.982H12.5097ZM21.2828 23.3682C21.2828 23.7085 20.747 24.0889 20.0295 24.0889H11.2564C10.5388 24.0889 10.0031 23.7085 10.0031 23.3682V17.9615C10.4098 17.7936 10.8288 17.6568 11.2564 17.5523V18.8764C11.2563 19.1719 11.4625 19.4272 11.7514 19.4893L15.5113 20.2983C15.598 20.3172 15.6878 20.3172 15.7745 20.2983L19.5344 19.4893C19.8233 19.4272 20.0295 19.1719 20.0295 18.8764V17.5517C20.457 17.6562 20.876 17.7929 21.2828 17.9609V23.3682ZM29.0651 20.6617L22.5361 22.0604V19.0757H26.4589C27.7627 19.0797 28.8504 18.0804 28.9567 16.7809L29.3891 10.3026H30.0559V19.436C30.0536 20.0262 29.6418 20.5358 29.0651 20.6617ZM33.8158 12.1825H32.5625V9.67594H33.8158V12.1825Z" fill="#378940"/>
</svg>
