<svg width="27" height="43" viewBox="0 0 27 43" fill="none" xmlns="http://www.w3.org/2000/svg">
<path d="M24.2592 11.138L23.4128 10.5335C22.9091 10.1729 22.4985 9.69757 22.2151 9.14677C21.9316 8.59596 21.7835 7.98555 21.7828 7.36608C21.7829 5.58631 21.0808 3.87839 19.829 2.61324C18.5772 1.34809 16.8768 0.627881 15.0971 0.609018C11.3459 0.411138 9.86812 3.39955 9.84486 3.44572C9.16695 4.78939 9.0488 6.34685 9.51625 7.77741C9.51817 7.78301 9.5201 7.78869 9.52211 7.79429L9.79947 8.57296L9.34565 10.5841C9.31444 10.7224 9.326 10.867 9.3788 10.9986C9.4316 11.1302 9.52314 11.2426 9.64129 11.321L10.9638 12.1984L11.5632 14.0309C11.6157 14.1914 11.7244 14.3275 11.8694 14.414C12.0143 14.5006 12.1857 14.5318 12.3519 14.5019L14.7875 14.064V15.3255H13.4648C12.7027 15.3263 11.9721 15.6294 11.4332 16.1683C10.8943 16.7072 10.5912 17.4378 10.5903 18.1999V19.8564L10.0836 20.2743C9.43426 20.7343 8.92489 21.365 8.61183 22.0966C8.29878 22.8282 8.19425 23.6321 8.30981 24.4194H4.29449C4.18959 24.4194 4.08604 24.443 3.99148 24.4884C3.89693 24.5338 3.8138 24.5999 3.74824 24.6817L0.950099 28.1794C0.850826 28.3035 0.796764 28.4577 0.796814 28.6166V31.2276C0.797129 31.5394 0.889196 31.8443 1.06154 32.1041C1.23389 32.3639 1.47889 32.5673 1.76602 32.6889C1.58704 33.3541 1.49637 34.0399 1.49635 34.7288C1.49635 36.8413 2.28026 38.8165 3.70355 40.2901C4.98283 41.6166 6.52417 42.4412 8.35327 42.6033L9.89076 42.6073V41.9078C9.89076 41.7223 9.81706 41.5443 9.68587 41.4131C9.55469 41.2819 9.37676 41.2082 9.19123 41.2082C8.35526 41.2135 7.52695 41.0488 6.75664 40.724C5.98633 40.3992 5.2901 39.9212 4.71027 39.319C3.53064 38.0837 2.87952 36.4368 2.89542 34.7288C2.89384 33.5096 3.23804 32.315 3.88806 31.2836C4.00644 31.3688 4.14861 31.4147 4.29449 31.4148H5.69356C5.83337 31.4148 5.96997 31.3729 6.08575 31.2945C6.20152 31.2161 6.29115 31.1048 6.34307 30.975L7.29619 28.5926C7.6369 28.4769 7.98665 28.3898 8.34182 28.3322L11.2677 27.86C11.4065 27.8376 11.5353 27.7739 11.6374 27.6772C11.7394 27.5805 11.81 27.4553 11.8398 27.318C11.8697 27.1806 11.8574 27.0374 11.8047 26.9071C11.752 26.7768 11.6613 26.6653 11.5443 26.5874L10.9491 26.1906C10.6224 25.9687 10.3435 25.6834 10.1291 25.3518C9.91459 25.0202 9.76886 24.6489 9.70049 24.2599C9.612 23.719 9.67823 23.1641 9.89156 22.6592C10.1049 22.1543 10.4566 21.72 10.9061 21.4064C10.9221 21.3953 10.9375 21.3837 10.9524 21.3714L12.3456 20.2222H15.1335L15.7527 26.4106C15.7527 26.4141 15.7533 26.4178 15.7536 26.4215L16.1449 30.3331L12.0418 32.678L9.61095 30.8551C9.50704 30.7771 9.38345 30.7296 9.25404 30.718C9.12463 30.7063 8.99454 30.7309 8.87836 30.7891L7.47929 31.4887C7.39058 31.533 7.31231 31.5957 7.24969 31.6727C7.18707 31.7496 7.14152 31.8389 7.11607 31.9348C7.09062 32.0307 7.08584 32.1309 7.10206 32.2287C7.11828 32.3266 7.15512 32.4198 7.21015 32.5024L8.15067 33.9135L5.72766 35.0028C5.6359 35.044 5.55412 35.1045 5.48789 35.1803C5.42166 35.256 5.37255 35.3451 5.34389 35.4415C5.31523 35.538 5.3077 35.6394 5.32183 35.739C5.33595 35.8386 5.37138 35.934 5.42572 36.0187L7.2035 38.7879C7.26681 38.8866 7.35389 38.9678 7.45675 39.024C7.55961 39.0802 7.67494 39.1096 7.79216 39.1096C7.85599 39.1096 12.8813 37.6836 12.8813 37.6836C12.9075 37.676 20.0608 34.6969 20.0608 34.6969C20.172 34.6502 20.28 34.5963 20.3843 34.5357V42.6073H21.7834V21.576C23.1348 21.4041 24.3773 20.7457 25.2785 19.724C26.1797 18.7023 26.6777 17.3873 26.6796 16.025V15.8414C26.6786 14.9215 26.4586 14.0151 26.0377 13.1972C25.6168 12.3793 25.0072 11.6734 24.2592 11.138ZM8.11902 26.9509C7.75769 27.0094 7.40088 27.093 7.05118 27.201L6.44311 26.9578L5.21988 30.0157H4.99402V27.9171H3.59495V29.3784C3.0484 29.9668 2.59589 30.6359 2.25342 31.3623C2.23524 31.3449 2.22076 31.324 2.21088 31.3009C2.20099 31.2777 2.19589 31.2528 2.19588 31.2276V28.8621L4.6307 25.8185C4.6307 25.8185 8.77623 25.8185 8.77675 25.8195C8.95613 26.1535 9.1791 26.4623 9.43983 26.7376L8.11902 26.9509ZM12.7036 13.017L12.2179 11.5322C12.1689 11.3825 12.071 11.2538 11.9398 11.1667L10.8165 10.4216L11.2089 8.68313C11.238 8.55397 11.2299 8.41919 11.1854 8.29445L10.8432 7.33347C10.6271 6.66673 10.577 5.95735 10.6972 5.26687C11.6914 6.67319 13.1335 7.70043 14.7875 8.18052V12.6421L12.7036 13.017ZM13.4643 16.7245H14.3872L11.9894 18.7025V18.1999C11.9898 17.8087 12.1454 17.4337 12.422 17.1571C12.6986 16.8805 13.0736 16.725 13.4648 16.7245H13.4643ZM15.2911 17.7926C15.3179 17.8552 15.3465 17.9168 15.3753 17.9784C15.2514 18.2472 15.1638 18.5313 15.1149 18.8231H14.042L15.2911 17.7926ZM19.5223 33.4055L12.457 36.3497L8.09995 37.5946L7.04191 35.946L9.47804 34.8512C9.57073 34.8096 9.65323 34.7482 9.7198 34.6714C9.78637 34.5946 9.8354 34.5043 9.8635 34.4066C9.8916 34.3089 9.89808 34.2063 9.88249 34.1059C9.8669 34.0055 9.82962 33.9097 9.77324 33.8251L8.81374 32.3854L9.11734 32.2335L11.5696 34.073C11.6789 34.1549 11.8096 34.2031 11.9459 34.2116C12.0821 34.22 12.2179 34.1885 12.3364 34.1207L17.2332 31.3226C17.3505 31.2555 17.4459 31.1559 17.5079 31.0358C17.5698 30.9156 17.5956 30.7801 17.5821 30.6456L17.1468 26.2922C17.1468 26.2886 17.1462 26.285 17.1458 26.2813L16.4785 19.6127C17.5025 20.7154 18.8883 21.414 20.3838 21.5815V32.1143C20.3843 32.3906 20.3027 32.6608 20.1494 32.8907C19.9961 33.1206 19.778 33.2997 19.5227 33.4055H19.5223ZM25.2805 16.025C25.2793 17.1378 24.8367 18.2046 24.0498 18.9915C23.2629 19.7784 22.1961 20.221 21.0833 20.2222C19.7851 20.2208 18.5404 19.7044 17.6224 18.7864C16.7044 17.8684 16.188 16.6237 16.1866 15.3255V7.6306C16.1866 7.46888 16.1306 7.31215 16.028 7.18708C15.9255 7.06201 15.7828 6.97633 15.6242 6.94461C13.793 6.5785 12.2109 5.34836 11.3336 3.62742C11.6754 3.08528 12.7039 1.87771 15.0372 2.00713C15.048 2.00777 15.0588 2.00812 15.0697 2.00817C16.4831 2.01975 17.8346 2.58935 18.83 3.5929C19.8253 4.59645 20.3838 5.95264 20.3838 7.36608C20.3846 8.2082 20.5861 9.038 20.9714 9.78679C21.3567 10.5356 21.9149 11.1818 22.5996 11.672L23.446 12.2765C24.0129 12.6823 24.475 13.2173 24.794 13.8372C25.1131 14.4572 25.2798 15.1442 25.2805 15.8414V16.025Z" fill="#378940"/>
</svg>
