<svg width="34" height="44" viewBox="0 0 34 44" fill="none" xmlns="http://www.w3.org/2000/svg">
<path d="M29.1651 23.1936L22.8082 21.8314L21.7463 20.7695V18.1095C22.3314 17.4473 22.7765 16.6736 23.0549 15.8349C23.2605 15.2166 23.4281 14.5864 23.5569 13.9477C24.2068 13.8569 24.8051 13.5434 25.2497 13.0607C25.6943 12.578 25.9576 11.956 25.9949 11.3009C26.0321 10.6457 25.841 9.99788 25.454 9.46791C25.0669 8.93794 24.5081 8.55864 23.8727 8.39469V6.88737C23.8727 6.34394 23.7956 5.80325 23.6439 5.28144C23.716 5.21529 23.7736 5.13486 23.813 5.04527C23.8523 4.95568 23.8727 4.85888 23.8727 4.76102C23.8714 3.63353 23.4229 2.55259 22.6256 1.75533C21.8284 0.958073 20.7474 0.509608 19.6199 0.508318H16.6632C15.3216 0.504949 14.0249 0.991443 13.0167 1.87645C12.5987 1.83003 12.1757 1.87229 11.7752 2.00048C11.3748 2.12866 11.0058 2.33989 10.6925 2.62035C10.3793 2.90082 10.1286 3.24421 9.9571 3.62812C9.78555 4.01202 9.69691 4.4278 9.69698 4.84829V8.38468C9.05252 8.5412 8.48333 8.91869 8.08841 9.45148C7.6935 9.98428 7.49787 10.6387 7.53554 11.3008C7.57322 11.9629 7.84182 12.5909 8.29461 13.0754C8.74741 13.56 9.35575 13.8705 10.0138 13.9529C10.1424 14.5898 10.3098 15.2184 10.5148 15.835C10.7932 16.6736 11.2383 17.4473 11.8233 18.1095V20.7695L10.7614 21.8314L4.40458 23.1936C3.29669 23.4357 2.30443 24.0482 1.59147 24.9301C0.878511 25.812 0.487447 26.9105 0.482788 28.0446V40.2002C0.483632 40.9519 0.782604 41.6725 1.31411 42.204C1.84562 42.7355 2.56626 43.0345 3.31792 43.0353H7.57062C7.62127 43.0353 7.67176 43.0299 7.72124 43.0191L16.7848 41.0487L25.8484 43.0191C25.8979 43.0299 25.9484 43.0354 25.999 43.0353H30.2517C31.0034 43.0345 31.724 42.7355 32.2555 42.204C32.787 41.6725 33.086 40.9519 33.0868 40.2002V28.0446C33.0822 26.9106 32.6911 25.812 31.9782 24.9301C31.2653 24.0483 30.273 23.4358 29.1651 23.1936ZM28.2927 32.4036H31.6693V34.4842L24.9689 34.0655L28.2927 32.4036ZM31.6693 28.0446V30.986H28.1254C28.0153 30.986 27.9068 31.0116 27.8083 31.0609L26.7078 31.6112V29.5684H25.2902V32.3199L23.6846 33.1227L17.4936 33.5096V28.5889L20.7205 30.2024C20.818 30.2511 20.9254 30.2767 21.0344 30.2772C21.1434 30.2777 21.251 30.253 21.3489 30.2052C21.4468 30.1573 21.5324 30.0875 21.5989 30.0012C21.6655 29.9148 21.7112 29.8143 21.7326 29.7075L23.0092 23.3242L28.8682 24.5798C29.6595 24.7527 30.3682 25.1902 30.8774 25.8201C31.3866 26.45 31.6659 27.2346 31.6693 28.0446ZM15.7497 27.1674L13.0452 28.5198L11.8839 22.7136L12.422 22.1756L15.7497 27.1674ZM16.7848 20.3543C18.0405 20.3565 19.2704 19.9985 20.3287 19.3226V20.8485L16.7848 26.1643L13.2409 20.8485V19.3194C14.3006 19.9924 15.5294 20.3512 16.7848 20.3543ZM21.1476 22.1756L21.6857 22.7136L20.5244 28.5195L17.8199 27.1674L21.1476 22.1756ZM22.2167 5.4698C22.3752 5.92557 22.4558 6.40481 22.4551 6.88737V7.536C22.0415 6.87343 21.6742 6.18305 21.3559 5.4698H22.2167ZM24.5814 11.1401C24.5818 11.3261 24.5454 11.5105 24.4742 11.6824C24.403 11.8543 24.2986 12.0105 24.1668 12.1419C24.0568 12.2512 23.9297 12.3419 23.7905 12.4104C23.8452 11.8738 23.8726 11.3348 23.8727 10.7954V9.91432C24.0879 10.0386 24.2666 10.2172 24.391 10.4324C24.5154 10.6475 24.5811 10.8916 24.5814 11.1401ZM20.6223 4.05224L21.7652 2.90932C22.0506 3.23897 22.256 3.63011 22.3654 4.05224H20.6223ZM20.5772 2.09254L18.6176 4.05224H16.842L18.543 1.92589H19.6199C19.9463 1.92567 20.2702 1.98206 20.5772 2.09254ZM16.7277 1.92589L15.0266 4.05224H13.9497V2.94175C14.7004 2.28421 15.6652 1.92303 16.6632 1.92589H16.7277ZM11.1145 4.84829C11.1148 4.458 11.26 4.08171 11.5219 3.79234C11.7838 3.50297 12.1438 3.32113 12.5321 3.28205V4.61652C12.113 5.58083 11.6398 6.52067 11.1145 7.43154V4.84829ZM8.94567 11.1401C8.94588 10.8831 9.01589 10.6311 9.14822 10.4108C9.28055 10.1906 9.47022 10.0104 9.69698 9.8896V10.7954C9.69713 11.3415 9.72531 11.8872 9.78141 12.4303C9.6256 12.3596 9.48378 12.2615 9.3627 12.1406C9.23049 12.0097 9.12555 11.8539 9.05397 11.6821C8.98239 11.5104 8.94557 11.3261 8.94567 11.1401ZM11.3024 13.1206C11.1775 12.3518 11.1147 11.5743 11.1145 10.7954V9.97342C12.309 8.46255 13.3041 6.37049 13.706 5.4698H19.8149C20.3865 6.87948 21.133 8.21174 22.0369 9.43527C22.1712 9.6169 22.3121 9.79631 22.4552 9.97342V10.7954C22.455 12.3558 22.2034 13.906 21.7102 15.3864C21.4676 16.119 21.0635 16.7878 20.5276 17.3432C20.3104 17.5682 20.0738 17.7736 19.8204 17.9569C18.9374 18.596 17.8748 18.939 16.7848 18.9367C16.0862 18.9351 15.395 18.7933 14.7522 18.5197C14.1094 18.2461 13.5281 17.8462 13.0427 17.3438C12.5066 16.7883 12.1023 16.1194 11.8596 15.3866C11.6168 14.6567 11.432 13.9088 11.3069 13.1499L11.3024 13.1206ZM4.70182 24.5797L10.5608 23.3242L11.8374 29.7075C11.8588 29.8143 11.9045 29.9148 11.9711 30.0012C12.0376 30.0875 12.1232 30.1573 12.2211 30.2052C12.319 30.253 12.4266 30.2777 12.5356 30.2772C12.6446 30.2767 12.752 30.2511 12.8495 30.2024L16.076 28.5889V33.5096L9.88507 33.1227L8.27941 32.3199V29.5684H6.86184V31.6112L5.76128 31.0609C5.66286 31.0116 5.55432 30.986 5.44427 30.986H1.90036V28.0446C1.90368 27.2346 2.18299 26.4499 2.69221 25.82C3.20144 25.1901 3.91016 24.7526 4.70147 24.5797H4.70182ZM7.49452 41.6178H3.31792C2.9421 41.6173 2.58179 41.4678 2.31604 41.2021C2.05029 40.9363 1.9008 40.576 1.90036 40.2002V38.7826H4.68517L9.57143 39.4807L13.4485 40.3236L7.49452 41.6178ZM31.6693 40.2002C31.6688 40.576 31.5193 40.9363 31.2536 41.2021C30.9878 41.4678 30.6275 41.6173 30.2517 41.6178H26.0751L9.84759 38.0898C9.83094 38.0862 9.81413 38.0832 9.79718 38.0809L4.83569 37.3722C4.8025 37.3674 4.76902 37.365 4.73549 37.3651H1.90036V32.4036H5.27691L9.37997 34.4551C9.46504 34.4976 9.55782 34.5226 9.65277 34.5285L31.6693 35.9046V40.2002Z" fill="#378940"/>
<path d="M13.5951 11.1403C13.8054 11.1403 14.0109 11.0779 14.1858 10.9611C14.3606 10.8443 14.4969 10.6782 14.5773 10.484C14.6578 10.2897 14.6789 10.0759 14.6378 9.86968C14.5968 9.66344 14.4956 9.474 14.3469 9.32531C14.1982 9.17663 14.0087 9.07537 13.8025 9.03435C13.5963 8.99332 13.3825 9.01438 13.1882 9.09485C12.994 9.17532 12.8279 9.31159 12.7111 9.48642C12.5943 9.66126 12.5319 9.86682 12.5319 10.0771C12.5322 10.359 12.6443 10.6292 12.8437 10.8285C13.043 11.0279 13.3132 11.14 13.5951 11.1403Z" fill="#378940"/>
<path d="M19.9741 11.1403C20.1843 11.1403 20.3899 11.0779 20.5647 10.9611C20.7396 10.8443 20.8758 10.6782 20.9563 10.484C21.0368 10.2897 21.0578 10.0759 21.0168 9.86968C20.9758 9.66344 20.8745 9.474 20.7258 9.32531C20.5772 9.17663 20.3877 9.07537 20.1815 9.03435C19.9752 8.99332 19.7615 9.01438 19.5672 9.09485C19.3729 9.17532 19.2069 9.31159 19.0901 9.48642C18.9732 9.66126 18.9109 9.86682 18.9109 10.0771C18.9112 10.359 19.0233 10.6292 19.2226 10.8285C19.4219 11.0279 19.6922 11.14 19.9741 11.1403Z" fill="#378940"/>
<path d="M19.2279 14.6094L18.5939 13.3416C17.7597 13.7574 16.8405 13.9744 15.9084 13.9755H15.367V15.393H15.9084C17.0606 15.3917 18.1968 15.1234 19.2279 14.6094Z" fill="#378940"/>
</svg>
