<svg width="40" height="39" viewBox="0 0 40 39" fill="none" xmlns="http://www.w3.org/2000/svg">
<path d="M35.3994 4.6838H34.5752V3.39572C34.5731 1.6181 33.1326 0.17763 31.355 0.175537H9.45773C7.6801 0.17763 6.23963 1.6181 6.23754 3.39572V4.6838H5.41333C3.02476 4.68203 1.08693 6.61696 1.08524 9.00561C1.08443 10.1144 1.5095 11.1813 2.27268 11.9856L6.23754 16.173V19.4967H1.08524V20.7847H18.7567C19.0524 20.7843 19.3103 20.9858 19.3815 21.2728L20.0256 23.8489C20.1117 24.194 19.9018 24.5436 19.5567 24.6298C19.5057 24.6425 19.4533 24.649 19.4007 24.649H15.2541C14.8984 24.649 14.6101 24.9375 14.6102 25.2932C14.6103 25.6 14.8268 25.8642 15.1277 25.9245L16.3509 26.1691C16.8621 26.2727 17.2413 26.7048 17.2774 27.2251H14.2326L11.2011 24.1936C11.0804 24.0729 10.9166 24.0049 10.7458 24.0049H1.08524V25.293H6.23754V30.4453H0.802185V31.7334H8.53063C8.70147 31.7334 8.86529 31.6655 8.98605 31.5447L12.0178 28.5132H15.0625C15.0266 29.0337 14.6471 29.466 14.1357 29.5692L12.9127 29.8138C12.564 29.8837 12.3379 30.2231 12.4078 30.5719C12.4681 30.8726 12.7322 31.0891 13.0389 31.0893H17.1855C17.5412 31.0893 17.8296 31.3776 17.8296 31.7334C17.8296 31.7859 17.8231 31.8384 17.8104 31.8894L17.1664 34.4655C17.0951 34.7525 16.8373 34.954 16.5415 34.9536H0.802185V36.2416H6.23754V38.1737C6.23754 38.5294 6.52591 38.8178 6.88158 38.8178H33.9312C34.2868 38.8178 34.5752 38.5294 34.5752 38.1737V16.1724L38.5388 11.9871C40.1813 10.2496 40.1042 7.50943 38.3666 5.86698C37.5645 5.1087 36.503 4.68549 35.3991 4.6838H35.3994ZM11.7508 27.2251C11.58 27.2251 11.4162 27.2931 11.2955 27.4138L8.264 30.4453H7.52561V25.293H10.4792L12.4113 27.2251H11.7508ZM33.2871 3.39572V4.6838H25.5426L25.2593 3.73851C24.9904 2.87719 24.4253 2.0839 23.6934 1.46361H31.355C32.4216 1.46474 33.2859 2.32912 33.2871 3.39572ZM26.2027 10.4801V9.8361H32.2371L27.8898 13.7003H22.9825V12.4122H24.2706C25.3372 12.411 26.2015 11.5467 26.2027 10.4801ZM25.2706 7.97193C25.0525 8.08102 24.9146 8.3041 24.9146 8.54802V10.4801C24.9141 10.8356 24.6261 11.1237 24.2706 11.1242H22.3385C21.9828 11.1242 21.6944 11.4125 21.6944 11.7682V13.7003H17.1862V11.1C18.7105 10.986 20.0969 10.1753 20.9438 8.90289C21.1122 8.64761 21.0779 8.30909 20.8617 8.09285L20.2369 7.46797C20.0734 7.30302 19.9815 7.08034 19.9812 6.84809C19.9811 6.75462 19.9964 6.6618 20.0261 6.57324C20.1439 6.21411 20.4792 5.97147 20.8572 5.97187H21.6944C22.0501 5.97187 22.3385 5.68351 22.3385 5.32784V2.05645C23.1444 2.5468 23.7715 3.29566 24.0272 4.11528L24.4508 5.5357C24.4699 5.61218 24.503 5.68455 24.5483 5.7492L25.8904 7.66247L25.2706 7.97193ZM12.9229 13.7003L8.57564 9.8361H15.5001L15.8981 10.632V13.7003H12.9229ZM20.342 1.46361C20.5805 1.46748 20.8179 1.4963 21.0504 1.54959V4.6838H20.8572C19.6615 4.68404 18.6923 5.65356 18.6926 6.84921C18.6927 7.42289 18.9205 7.97306 19.326 8.37896L19.5521 8.60502C19.2622 8.92736 18.9177 9.19609 18.5345 9.39904C18.0413 9.66229 17.4944 9.80897 16.9357 9.82773L15.6582 7.27219C15.577 7.10659 15.5064 6.936 15.4467 6.76146C17.0077 5.84492 17.6204 3.89477 16.8642 2.25014C16.9832 2.1628 17.1066 2.08165 17.234 2.00702C17.8431 1.65175 18.5355 1.46418 19.2407 1.46361H20.342ZM13.644 1.46361C14.8889 1.46361 15.8981 2.47282 15.8981 3.71774C15.8981 4.96267 14.8889 5.97187 13.644 5.97187C12.399 5.97187 11.3898 4.96267 11.3898 3.71774C11.3913 2.47338 12.3997 1.46506 13.644 1.46361ZM7.52561 3.39572C7.52682 2.32912 8.39112 1.46482 9.45773 1.46361H10.9137C10.1694 2.35907 9.91685 3.56495 10.2391 4.6838H7.52561V3.39572ZM7.52561 17.5335L9.38439 19.4967H7.52561V17.5335ZM17.1855 29.8013H15.9352C15.9654 29.7563 15.9943 29.7104 16.0217 29.6632C16.2211 29.3121 16.3298 28.9168 16.3381 28.5132H17.8302C18.1075 28.5132 18.3537 28.3357 18.4412 28.0726C18.6625 27.4079 18.5879 26.6804 18.2365 26.0745C18.2092 26.0276 18.1806 25.9817 18.1504 25.937H19.4007C20.4678 25.9371 21.3329 25.0721 21.3329 24.005C21.3329 23.8471 21.3136 23.6896 21.2753 23.5364L20.6312 20.9602C20.4171 20.0995 19.6437 19.4957 18.7567 19.4967H15.2541C15.2548 18.7856 15.831 18.2093 16.5421 18.2086H21.6171C22.6897 18.2054 23.6586 18.8489 24.0718 19.8388C24.202 20.1643 24.2695 20.5115 24.2706 20.8621V22.6395C24.2724 23.3436 23.9925 24.0192 23.4932 24.5156C23.028 24.9755 22.6865 25.5455 22.5005 26.1726C22.4957 26.1876 22.4919 26.2034 22.4885 26.2194C22.3882 26.5717 22.3378 26.9363 22.3385 27.3025V31.012C22.3368 32.4768 21.1497 33.6638 19.685 33.6655H19.1183C18.9761 33.6625 18.8393 33.6107 18.7309 33.5186L19.0601 32.2019C19.3188 31.1667 18.6894 30.1177 17.6542 29.8589C17.5009 29.8206 17.3435 29.8012 17.1855 29.8013ZM7.52561 36.2416H12.1129L11.5977 37.5297H7.52561V36.2416ZM33.2871 37.5297H29.215L26.8647 31.6538L27.4677 27.4249C29.0481 26.6881 30.0608 25.1047 30.0669 23.3609C30.0657 22.6853 29.9104 22.0188 29.613 21.4122L33.2871 17.5323V37.5297ZM28.6409 22.4385C29.0032 23.6274 28.6386 24.9183 27.7079 25.742L28.0993 23.0105L28.6409 22.4385ZM37.6048 11.1L27.0229 22.2741C26.9315 22.3708 26.8723 22.4933 26.8533 22.625L26.2415 26.8949C26.24 26.9049 26.2387 26.916 26.2378 26.9271L25.5654 31.6422C25.5494 31.7538 25.5629 31.8677 25.6047 31.9723L27.8276 37.5297H12.9851L13.5003 36.2416H16.5413C17.4134 36.242 18.177 35.6567 18.4034 34.8145C18.6307 34.9061 18.8733 34.9532 19.1183 34.9536H19.685C21.8608 34.9511 23.6241 33.1878 23.6266 31.012V27.3025C23.6258 27.0463 23.6624 26.7914 23.7351 26.5457C23.7391 26.5322 23.7426 26.5181 23.7457 26.5033C23.8739 26.0958 24.0998 25.726 24.4039 25.4259C25.1455 24.6886 25.5613 23.6852 25.5587 22.6395V20.8621C25.5568 20.3448 25.4571 19.8325 25.2647 19.3523C24.6538 17.8776 23.2133 16.9173 21.6171 16.9205H16.5421C15.12 16.9221 13.9676 18.0745 13.966 19.4967H11.1581L3.2067 11.0984C2.67005 10.5365 2.37146 9.78884 2.37331 9.01189C2.37525 7.33369 3.73521 5.97381 5.41333 5.97187H10.9137C11.7156 6.95564 12.9875 7.42796 14.2372 7.20617C14.3132 7.4241 14.4023 7.63711 14.5041 7.84425L14.856 8.54802H6.88158C6.52591 8.54794 6.23746 8.83623 6.23738 9.1919C6.2373 9.37593 6.31603 9.55119 6.45361 9.67348L12.25 14.8258C12.3679 14.9306 12.5201 14.9884 12.6779 14.9884H28.1348C28.2926 14.9884 28.4448 14.9306 28.5628 14.8258L34.3591 9.67348C34.625 9.4372 34.649 9.03017 34.4127 8.76426C34.2904 8.62668 34.1152 8.54802 33.9312 8.54802H26.999L27.1348 8.48008C27.453 8.32068 27.5818 7.93345 27.4224 7.61514C27.4083 7.58696 27.3922 7.55991 27.3741 7.53415L26.2781 5.97187H35.3992C37.0765 5.9701 38.4376 7.32846 38.4393 9.00569C38.4401 9.78506 38.1413 10.5349 37.6047 11.1H37.6048Z" fill="#F27D02"/>
</svg>
