<svg width="54" height="55" viewBox="0 0 54 55" fill="none" xmlns="http://www.w3.org/2000/svg">
<path d="M41.8901 52.2121L36.2782 46.5994C36.0821 46.4035 35.8164 46.2934 35.5393 46.2934C35.5388 46.2934 35.5383 46.2934 35.5378 46.2934L32.5269 46.2976C32.5203 46.2976 32.5137 46.2976 32.5071 46.2976C30.845 46.2976 29.18 45.992 27.6217 45.4088L29.4285 44.1972C30.1681 43.7013 30.6654 42.9461 30.829 42.0708C30.9924 41.1953 30.8012 40.3115 30.2904 39.5819C29.6553 38.6749 28.6325 38.1826 27.5911 38.1826C27.5742 38.1826 27.5573 38.1827 27.5402 38.183L31.7021 34.0211C32.9647 32.7584 32.9647 30.7039 31.7021 29.4412C31.3949 29.134 31.0368 28.8962 30.6468 28.7355C30.9358 28.2442 31.0904 27.683 31.0904 27.0979C31.0904 26.2329 30.7535 25.4195 30.1419 24.8078C29.5302 24.1961 28.7169 23.8592 27.8518 23.8592C27.2668 23.8592 26.7056 24.0139 26.2142 24.3029C26.0535 23.9129 25.8158 23.5548 25.5086 23.2475C24.8969 22.6358 24.0836 22.2989 23.2185 22.2989C22.3534 22.2989 21.5401 22.6358 20.9284 23.2475L19.434 24.7419C19.2751 24.3917 19.0535 24.0691 18.7734 23.7889C18.1617 23.1772 17.3485 22.8404 16.4834 22.8404C15.6183 22.8404 14.805 23.1773 14.1933 23.7889L13.5309 24.4513L10.838 21.7735C10.0558 20.9913 10.0558 19.7185 10.838 18.9362C11.5708 18.2034 12.734 18.1572 13.5212 18.7973L16.1291 21.4053C16.3332 21.6094 16.6006 21.7114 16.868 21.7114C17.1354 21.7114 17.4029 21.6093 17.6069 21.4053C18.0149 20.9973 18.0149 20.3356 17.6069 19.9276L13.1078 15.4285C12.3256 14.6461 12.3256 13.3733 13.1078 12.5911C13.89 11.8087 15.163 11.8088 15.9452 12.5911L23.8279 20.4889C24.032 20.693 24.2994 20.795 24.5668 20.795C24.8342 20.795 25.1017 20.6929 25.3056 20.4889C25.7137 20.0809 25.7137 19.4192 25.3056 19.0112L19.3141 13.0043C18.6741 12.2171 18.7204 11.054 19.4531 10.3213C20.2354 9.53903 21.5083 9.53903 22.2905 10.3213L24.4857 12.5166C24.8938 12.9247 25.5555 12.9247 25.9634 12.5166C26.3715 12.1085 26.3716 11.4469 25.9634 11.0388L23.7682 8.84352C22.171 7.24644 19.5724 7.24655 17.9753 8.84352C17.4475 9.37132 17.0954 10.0087 16.9164 10.683C16.2245 10.1838 15.3965 9.91364 14.5265 9.91364C13.4324 9.91364 12.4037 10.3398 11.63 11.1133C10.1924 12.551 10.0497 14.7998 11.2002 16.3995C10.5258 16.5784 9.88814 16.9307 9.36024 17.4586C7.85303 18.9659 7.76902 21.3648 9.10664 22.9724C8.44718 23.1545 7.8245 23.5032 7.30716 24.0206C5.71018 25.6177 5.71018 28.2163 7.30716 29.8135L7.77351 30.2798C6.01018 32.3971 5.05187 35.0388 5.05584 37.8284L5.05835 39.5593L0.770879 43.8471C0.362832 44.2551 0.362832 44.9168 0.770879 45.3249C0.974955 45.5289 1.24235 45.631 1.50975 45.631C1.77715 45.631 2.04465 45.5289 2.24863 45.3249L6.84279 40.7306C7.03913 40.5343 7.14927 40.2678 7.14885 39.9902L7.14571 37.8256C7.14195 35.2285 8.15146 32.7866 9.98794 30.9502L15.1735 25.7645C15.1735 25.7645 15.1735 25.7644 15.1736 25.7644L15.671 25.267C15.8879 25.0499 16.1764 24.9305 16.4833 24.9305C16.7901 24.9305 17.0786 25.0499 17.2955 25.267C17.5125 25.4839 17.6319 25.7723 17.6319 26.0792C17.6319 26.3426 17.5433 26.5923 17.381 26.795L15.9997 28.1763C15.5916 28.5843 15.5916 29.246 15.9997 29.6541C16.0006 29.6551 16.0016 29.6558 16.0025 29.6567C16.0034 29.6577 16.0041 29.6586 16.0051 29.6596C16.2092 29.8635 16.4766 29.9656 16.744 29.9656C17.0114 29.9656 17.2789 29.8635 17.4828 29.6596L22.4059 24.7255C22.6229 24.5085 22.9113 24.389 23.2182 24.389C23.5251 24.389 23.8135 24.5086 24.0304 24.7255C24.4473 25.1424 24.4756 25.8026 24.1162 26.2532L19.1018 31.2786C18.6937 31.6866 18.6937 32.3483 19.1018 32.7564C19.3058 32.9604 19.5732 33.0625 19.8406 33.0625C20.108 33.0625 20.3755 32.9604 20.5795 32.7564L27.0392 26.2858C27.2561 26.0687 27.5445 25.9493 27.8514 25.9493C28.1583 25.9493 28.4467 26.0689 28.6636 26.2858C29.1115 26.7336 29.1115 27.4624 28.6636 27.9102L22.1931 34.3698C21.785 34.7779 21.7849 35.4395 22.1931 35.8477C22.6012 36.2556 23.2629 36.2557 23.6708 35.8477L28.6963 30.8332C29.1468 30.4737 29.807 30.502 30.2239 30.9191C30.6718 31.3669 30.6718 32.0957 30.2239 32.5435L23.1691 39.5986C22.6721 40.0954 22.6261 40.8574 23.0599 41.4104C23.4935 41.9634 24.2446 42.1003 24.8457 41.736L26.977 40.4439C27.5143 40.118 28.2176 40.2661 28.578 40.7809C28.7641 41.0466 28.8336 41.3685 28.7741 41.6874C28.7145 42.0061 28.5334 42.2811 28.2642 42.4617L23.3332 45.7683C21.7287 46.8442 19.8603 47.4126 17.9286 47.4126C17.9241 47.4126 17.9194 47.4126 17.9149 47.4126L14.5658 47.4078C14.5653 47.4078 14.5649 47.4078 14.5643 47.4078C14.2872 47.4078 14.0214 47.5179 13.8255 47.7138L9.23119 52.3081C8.82315 52.7161 8.82315 53.3778 9.23119 53.786C9.43527 53.9899 9.70267 54.092 9.97007 54.092C10.2375 54.092 10.505 53.9899 10.7089 53.786L14.9965 49.4984L17.912 49.5026C17.9175 49.5026 17.9229 49.5026 17.9285 49.5026C20.2759 49.5026 22.5472 48.8116 24.4971 47.5041L25.553 46.7961C27.7107 47.8372 30.1113 48.3878 32.5066 48.3878C32.514 48.3878 32.5219 48.3878 32.5294 48.3878L35.1066 48.3842L40.4124 53.6899C40.6164 53.8939 40.8838 53.996 41.1512 53.996C41.4186 53.996 41.6861 53.8939 41.8901 53.6899C42.2982 53.2819 42.2982 52.6202 41.8901 52.2121ZM11.3692 26.6134C11.3691 26.6135 11.3691 26.6135 11.369 26.6136L9.21583 28.7668L8.78501 28.3359C8.00277 27.5536 8.00277 26.2808 8.78501 25.4985C9.51782 24.7657 10.681 24.7195 11.4682 25.3596L12.0456 25.937L11.3692 26.6134Z" fill="black"/>
<path d="M53.6597 40.4436C53.4653 40.2482 53.1957 40.1375 52.9209 40.1375C52.6461 40.1375 52.3765 40.2482 52.1821 40.4436C51.9878 40.638 51.876 40.9065 51.876 41.1824C51.876 41.4572 51.9878 41.7268 52.1821 41.9211C52.3765 42.1154 52.6461 42.2273 52.9209 42.2273C53.1957 42.2273 53.4653 42.1155 53.6597 41.9211C53.854 41.7256 53.9658 41.4572 53.9658 41.1824C53.9658 40.9064 53.854 40.638 53.6597 40.4436Z" fill="black"/>
<path d="M50.8494 37.6333L48.3535 35.1374L48.3595 30.9125C48.364 27.7205 47.4268 24.632 45.649 21.9807L41.0497 15.122C40.4215 14.1851 39.4648 13.5551 38.356 13.348C37.2472 13.1409 36.1277 13.3832 35.2038 14.0303C33.6899 15.0903 33.0879 17.003 33.6232 18.6985L30.8923 15.9675C30.4842 15.5595 29.8226 15.5595 29.4144 15.9675C29.0064 16.3755 29.0064 17.0372 29.4144 17.4453L35.2811 23.312C35.8239 23.8547 36.6564 23.905 37.2603 23.4311C37.8643 22.9573 38.0139 22.137 37.6159 21.4804L35.8186 18.5157C35.2544 17.5849 35.5108 16.3666 36.4024 15.7423C36.8626 15.4201 37.4205 15.2994 37.9723 15.4026C38.5246 15.5057 39.001 15.8195 39.3138 16.2861L43.9131 23.1448C45.4587 25.4497 46.2735 28.1347 46.2695 30.9096L46.263 35.5681C46.2625 35.8458 46.3727 36.1122 46.569 36.3086L49.3716 39.1112C49.5757 39.3152 49.8431 39.4173 50.1105 39.4173C50.3779 39.4173 50.6454 39.3152 50.8494 39.1112C51.2574 38.7031 51.2574 38.0415 50.8494 37.6333Z" fill="black"/>
<path d="M28.436 13.5115C28.2427 13.3171 27.9731 13.2053 27.6983 13.2053C27.4225 13.2053 27.1539 13.3171 26.9585 13.5115C26.7642 13.7058 26.6523 13.9754 26.6523 14.2503C26.6523 14.5261 26.7642 14.7947 26.9585 14.989C27.1539 15.1834 27.4225 15.2952 27.6983 15.2952C27.9731 15.2952 28.2417 15.1834 28.436 14.989C28.6314 14.7947 28.7433 14.5251 28.7433 14.2503C28.7433 13.9754 28.6314 13.7058 28.436 13.5115Z" fill="black"/>
<path d="M38.1335 29.7272C38.5415 29.3191 38.5415 28.6575 38.1335 28.2493C37.7254 27.8414 37.0638 27.8414 36.6556 28.2493L36.1998 28.7051C34.2485 30.6565 34.2485 33.8317 36.1998 35.783C36.4039 35.987 36.6713 36.089 36.9387 36.089C37.2061 36.089 37.4736 35.987 37.6776 35.783C38.0856 35.3749 38.0857 34.7133 37.6776 34.3051C36.5411 33.1687 36.5411 31.3193 37.6776 30.1829L38.1335 29.7272Z" fill="black"/>
<path d="M50.34 6.23462C49.6757 6.23462 49.0264 6.42313 48.4649 6.76785C47.9035 6.42313 47.2542 6.23462 46.5899 6.23462C44.5905 6.23462 42.9639 7.89105 42.9639 9.9269C42.9639 11.0807 43.7934 12.4664 45.5 14.1634C46.649 15.3059 47.7825 16.1755 47.8302 16.212C48.0175 16.3552 48.2412 16.4268 48.4649 16.4268C48.6886 16.4268 48.9123 16.3552 49.0996 16.212C49.1474 16.1755 50.2808 15.3058 51.4298 14.1634C53.1364 12.4665 53.966 11.0807 53.966 9.9269C53.966 7.89095 52.3393 6.23462 50.34 6.23462ZM48.4646 14.0451C46.7183 12.5947 45.0537 10.7441 45.0537 9.9269C45.0537 9.0433 45.7429 8.32449 46.5899 8.32449C47.0112 8.32449 47.4043 8.4991 47.6969 8.81634C47.8948 9.03076 48.1732 9.1527 48.4649 9.1527C48.7567 9.1527 49.0351 9.03076 49.233 8.81634C49.5255 8.4992 49.9186 8.32449 50.34 8.32449C51.187 8.32449 51.8761 9.0433 51.8761 9.9269C51.8761 10.742 50.211 12.5932 48.4646 14.0451Z" fill="black"/>
<path d="M7.84093 0.592041C7.17667 0.592041 6.52735 0.780547 5.9659 1.12527C5.40446 0.780547 4.75514 0.592041 4.09087 0.592041C2.09149 0.591937 0.464844 2.24826 0.464844 4.28421C0.464844 5.43803 1.29442 6.82372 3.001 8.52069C4.15002 9.66322 5.28356 10.5329 5.33121 10.5694C5.51846 10.7127 5.74218 10.7842 5.9659 10.7842C6.18962 10.7842 6.41324 10.7127 6.6006 10.5694C6.64835 10.5329 7.78179 9.66322 8.9308 8.5208C10.6374 6.82382 11.467 5.43814 11.467 4.28432C11.467 2.24837 9.84031 0.592041 7.84093 0.592041ZM5.96559 8.40241C4.21919 6.95204 2.55471 5.10156 2.55471 4.28421C2.55471 3.40062 3.24385 2.68181 4.09087 2.68181C4.51219 2.68181 4.90529 2.85641 5.19788 3.17366C5.39579 3.38808 5.67416 3.51002 5.9659 3.51002C6.25765 3.51002 6.53612 3.38808 6.73393 3.17366C7.02651 2.85652 7.41962 2.68181 7.84093 2.68181C8.68796 2.68181 9.37709 3.40062 9.37709 4.28421C9.37709 5.09926 7.71199 6.95047 5.96559 8.40241Z" fill="black"/>
</svg>
