<svg width="15" height="15" viewBox="0 0 15 15" fill="none" xmlns="http://www.w3.org/2000/svg">
<path fill-rule="evenodd" clip-rule="evenodd" d="M14.0043 2.46484C13.8209 1.99509 13.5764 1.59717 13.1763 1.19926C12.7761 0.80135 12.376 0.558182 11.9036 0.375806C11.4479 0.198956 10.92 0.0773717 10.1587 0.0442124L10.1457 0.0436536C9.38895 0.0109288 9.13621 0 7.19109 0C5.23493 0 4.99042 0.00552655 4.22351 0.0442124C3.45661 0.0773717 2.93423 0.198956 2.47854 0.375806C2.00617 0.558182 1.60605 0.80135 1.20592 1.19926C0.805802 1.59717 0.561283 1.99509 0.377893 2.46484C0.200061 2.91802 0.0778016 3.44304 0.044458 4.20018L0.0438961 4.21303C0.0109895 4.96564 0 5.21698 0 7.15136C0 9.0967 0.00555725 9.33987 0.044458 10.1025C0.0778016 10.8652 0.200061 11.3847 0.377893 11.8379C0.561283 12.3076 0.805802 12.7055 1.20592 13.1035C1.60605 13.5014 2.00617 13.7445 2.47854 13.9269C2.93423 14.1038 3.46217 14.2253 4.22351 14.2585L4.23644 14.2591H4.23645C4.99323 14.2918 5.24598 14.3027 7.19109 14.3027C9.14724 14.3027 9.39176 14.2972 10.1587 14.2585C10.9256 14.2253 11.4479 14.1038 11.9036 13.9269C12.376 13.7445 12.7761 13.5014 13.1763 13.1035C13.5764 12.7055 13.8209 12.3076 14.0043 11.8379C14.1821 11.3847 14.3044 10.8597 14.3377 10.1025L14.3383 10.0897V10.0897C14.3712 9.33707 14.3822 9.08571 14.3822 7.15136C14.3822 5.20601 14.3766 4.96284 14.3377 4.20018C14.3044 3.43752 14.1821 2.91802 14.0043 2.46484ZM12.5441 9.79301C12.5136 10.4294 12.407 10.7778 12.3156 11.0051C12.1988 11.3081 12.0515 11.5303 11.823 11.7576C11.5944 11.9849 11.3761 12.1263 11.0663 12.2475C10.8327 12.3384 10.4873 12.4445 9.84744 12.4748L9.81434 12.4762C9.14478 12.5054 8.92038 12.5152 7.19141 12.5152C5.43427 12.5152 5.22605 12.5101 4.53538 12.4748C3.8955 12.4445 3.54508 12.3384 3.31655 12.2475C3.01185 12.1313 2.78839 11.9849 2.55986 11.7576C2.33133 11.5303 2.18914 11.3132 2.06725 11.0051C1.97584 10.7728 1.86919 10.4294 1.83872 9.79301L1.83752 9.76568C1.80798 9.09533 1.7981 8.87089 1.7981 7.15165C1.7981 5.40927 1.80317 5.19715 1.83872 4.5103C1.86919 3.87395 1.97584 3.52547 2.06725 3.2982C2.18406 2.99518 2.33133 2.77296 2.55986 2.54569C2.78839 2.31843 3.00677 2.17701 3.31655 2.0558C3.55016 1.9649 3.8955 1.85884 4.53538 1.82854L4.56286 1.82734C5.23694 1.79797 5.46263 1.78813 7.19141 1.78813C8.94348 1.78813 9.15677 1.79318 9.84744 1.82854C10.4873 1.85884 10.8377 1.9649 11.0663 2.0558C11.371 2.17196 11.5944 2.31843 11.823 2.54569C12.0515 2.77296 12.1937 2.99013 12.3156 3.2982C12.407 3.53052 12.5136 3.87395 12.5441 4.5103L12.5453 4.53762C12.5748 5.20797 12.5847 5.43241 12.5847 7.15165C12.5847 8.87743 12.5748 9.10197 12.545 9.77349L12.5441 9.79301ZM11.6865 3.57597C11.6865 4.06967 11.2841 4.46989 10.7877 4.46989C10.2912 4.46989 9.88877 4.06967 9.88877 3.57597C9.88877 3.08228 10.2912 2.68205 10.7877 2.68205C11.2841 2.68205 11.6865 3.08228 11.6865 3.57597ZM7.19196 3.57597C5.20765 3.57597 3.59641 5.17831 3.59641 7.15165C3.59641 9.125 5.20765 10.7273 7.19196 10.7273C9.17626 10.7273 10.7875 9.125 10.7875 7.15165C10.7875 5.17831 9.17626 3.57597 7.19196 3.57597ZM5.3932 7.15136C5.3932 8.14046 6.20053 8.9392 7.19097 8.9392C8.18141 8.9392 8.98874 8.13633 8.98874 7.15136C8.98874 6.16225 8.18557 5.36352 7.19097 5.36352C6.19637 5.36352 5.3932 6.16639 5.3932 7.15136Z" fill="white"/>
</svg>
