<svg width="18" height="18" viewBox="0 0 18 18" fill="none" xmlns="http://www.w3.org/2000/svg">
<path d="M13.3192 10.3432C13.2841 10.3263 11.9719 9.68013 11.7387 9.59621C11.6435 9.56203 11.5415 9.52864 11.4331 9.52864C11.2559 9.52864 11.107 9.61695 10.9911 9.79042C10.86 9.98526 10.4632 10.4491 10.3406 10.5877C10.3245 10.606 10.3027 10.6279 10.2896 10.6279C10.2778 10.6279 10.0747 10.5442 10.0133 10.5175C8.60556 9.90605 7.53708 8.43556 7.39055 8.1876C7.36963 8.15195 7.36876 8.13578 7.36858 8.13578C7.37371 8.1169 7.42107 8.06943 7.4455 8.04496C7.51698 7.97426 7.59443 7.88103 7.66934 7.79085C7.70482 7.74813 7.74036 7.70534 7.77523 7.66502C7.88394 7.53856 7.93231 7.44036 7.98842 7.32663L8.01781 7.26753C8.15482 6.99534 8.03782 6.7657 7.99999 6.69152C7.96895 6.62946 7.41488 5.29215 7.35596 5.15166C7.21428 4.81264 7.02711 4.65479 6.76698 4.65479C6.74283 4.65479 6.76698 4.65478 6.66577 4.65904C6.54251 4.66424 5.8713 4.75259 5.57455 4.9397C5.25983 5.13813 4.72742 5.77057 4.72742 6.88288C4.72742 7.88394 5.36269 8.82915 5.63544 9.18863C5.64222 9.1977 5.65467 9.21609 5.67274 9.24253C6.71727 10.768 8.01943 11.8986 9.33945 12.4259C10.6103 12.9335 11.2121 12.9922 11.5542 12.9922C11.5542 12.9922 11.5542 12.9922 11.5542 12.9922C11.698 12.9922 11.8131 12.9809 11.9146 12.9709L11.979 12.9648C12.418 12.9258 13.3828 12.4259 13.6022 11.8161C13.7751 11.3357 13.8207 10.8109 13.7056 10.6204C13.6268 10.4909 13.4911 10.4257 13.3192 10.3432Z" fill="white"/>
<path d="M9.15979 0C4.28481 0 0.318733 3.93627 0.318733 8.77458C0.318733 10.3395 0.737515 11.8713 1.53089 13.2119L0.0123818 17.6912C-0.015919 17.7747 0.00513961 17.867 0.0669091 17.9299C0.111522 17.9755 0.171991 18 0.233761 18C0.257421 18 0.281257 17.9965 0.30453 17.989L4.97518 16.5048C6.25328 17.1877 7.69785 17.5482 9.15983 17.5482C14.0343 17.5482 18 13.6124 18 8.77458C18 3.93627 14.0343 0 9.15979 0ZM9.15979 15.7204C7.78413 15.7204 6.45174 15.3232 5.30639 14.5716C5.26789 14.5463 5.22317 14.5333 5.17817 14.5333C5.15437 14.5333 5.13053 14.537 5.10733 14.5444L2.76761 15.2881L3.52291 13.0598C3.54734 12.9877 3.53511 12.9081 3.49011 12.8466C2.61792 11.6549 2.15688 10.2469 2.15688 8.77458C2.15688 4.94413 5.29833 1.82781 9.15969 1.82781C13.0206 1.82781 16.1617 4.94413 16.1617 8.77458C16.1618 12.6046 13.0207 15.7204 9.15979 15.7204Z" fill="white"/>
</svg>
