<svg width="19" height="11" viewBox="0 0 19 11" fill="none" xmlns="http://www.w3.org/2000/svg">
<path d="M18.061 9.41061C18.0378 9.364 18.018 9.32404 17.9981 9.29075C17.6836 8.72141 17.081 8.01888 16.1937 7.18984L16.1738 7.16987L16.1639 7.15988L16.1539 7.14989H16.144C15.7401 6.76367 15.4851 6.50397 15.3792 6.37079C15.1838 6.11775 15.1408 5.86138 15.2467 5.60168C15.3229 5.40524 15.6076 4.98905 16.0976 4.35645C16.3559 4.02017 16.5612 3.75048 16.7135 3.54738C17.8028 2.08907 18.2762 1.15681 18.1305 0.753944L18.0743 0.660718C18.0378 0.604117 17.9385 0.550845 17.7829 0.504232C17.624 0.45762 17.422 0.447631 17.177 0.480926L14.4554 0.500903C14.4124 0.484255 14.3495 0.487585 14.2667 0.504232C14.1839 0.524209 14.1442 0.534198 14.1442 0.534198L14.0979 0.557504L14.0614 0.587469C14.0283 0.607446 13.9952 0.640741 13.9588 0.687354C13.9224 0.733967 13.8893 0.790568 13.8661 0.853828C13.5681 1.61961 13.2337 2.33212 12.8529 2.99136C12.6212 3.38424 12.406 3.72385 12.2106 4.01351C12.0153 4.30318 11.8531 4.51293 11.7206 4.64944C11.5882 4.78595 11.469 4.89583 11.3597 4.97573C11.2538 5.05897 11.171 5.09227 11.1147 5.07895C11.0584 5.06563 11.0055 5.05231 10.9525 5.04232C10.8631 4.98572 10.7936 4.90914 10.7406 4.80926C10.6876 4.70937 10.6512 4.58618 10.6313 4.43969C10.6115 4.28986 10.6015 4.16334 10.5982 4.05347C10.5949 3.94692 10.5982 3.79377 10.6015 3.59733C10.6082 3.40089 10.6115 3.26771 10.6115 3.19779C10.6115 2.95806 10.6148 2.69503 10.6247 2.41203C10.6346 2.12902 10.6413 1.90595 10.6479 1.7428C10.6545 1.57966 10.6578 1.40319 10.6578 1.22007C10.6578 1.03695 10.6479 0.893782 10.6247 0.787239C10.6015 0.684025 10.5684 0.580811 10.5254 0.484255C10.4823 0.3877 10.4161 0.311122 10.33 0.254521C10.244 0.201249 10.138 0.157966 10.0122 0.124671C9.67779 0.0480926 9.25399 0.00813875 8.73749 0.00147977C7.56543 -0.0118382 6.81385 0.06474 6.47945 0.231214C6.34701 0.301134 6.22782 0.394359 6.12187 0.51755C6.0093 0.657389 5.99275 0.733967 6.07552 0.747285C6.45296 0.803886 6.72115 0.940395 6.88007 1.15681L6.93635 1.27001C6.9794 1.35325 7.02575 1.49975 7.06879 1.70618C7.11183 1.91593 7.14163 2.14567 7.15487 2.39871C7.18467 2.86151 7.18467 3.25772 7.15487 3.58734C7.12177 3.91696 7.09197 4.17333 7.06548 4.35645C7.03568 4.53957 6.99595 4.6894 6.93635 4.8026C6.88007 4.9158 6.84034 4.98572 6.82378 5.01236C6.80392 5.03899 6.79067 5.05231 6.77743 5.05897C6.69466 5.08894 6.61189 5.10558 6.52249 5.10558C6.4331 5.10558 6.32715 5.0623 6.20133 4.9724C6.07552 4.88251 5.94308 4.76265 5.81065 4.60616C5.6749 4.44967 5.5226 4.23326 5.35043 3.95358C5.18157 3.6739 5.00278 3.34429 4.82068 2.96472L4.66838 2.68838C4.57237 2.51191 4.44324 2.25221 4.28101 1.91261C4.11546 1.573 3.97309 1.24671 3.84728 0.927077C3.79761 0.793898 3.72146 0.694013 3.61882 0.624094L3.57247 0.594128C3.54267 0.567493 3.4897 0.540857 3.42017 0.514221C3.35064 0.484255 3.2778 0.464278 3.20165 0.450961L0.612518 0.470937C0.347645 0.470937 0.168856 0.530868 0.07284 0.65073L0.03642 0.707331C0.00993273 0.750614 0 0.800557 0 0.870476C0 0.940395 0.0198655 1.02696 0.0562855 1.12685C0.433729 2.02248 0.847593 2.88149 1.29125 3.71386C1.73492 4.54623 2.12229 5.21213 2.45007 5.71821C2.77785 6.22429 3.11225 6.70374 3.45328 7.15322C3.7943 7.6027 4.01944 7.89236 4.1287 8.01888C4.23796 8.1454 4.32736 8.24196 4.39027 8.30522L4.62534 8.53496C4.77764 8.68811 4.99947 8.8679 5.29083 9.08099C5.5855 9.29408 5.90997 9.50384 6.26424 9.71026C6.62182 9.91669 7.03568 10.0832 7.50583 10.213C7.97929 10.3429 8.43951 10.3961 8.88648 10.3695H9.97246C10.1943 10.3495 10.3598 10.2796 10.4724 10.1597L10.5088 10.1131C10.5353 10.0765 10.5585 10.0166 10.5784 9.93667C10.6015 9.85676 10.6115 9.7702 10.6115 9.67364C10.6048 9.40062 10.6247 9.15424 10.6744 8.93782C10.7207 8.71808 10.7737 8.55493 10.8366 8.44506C10.8962 8.33519 10.9657 8.24196 11.0386 8.16538C11.1147 8.0888 11.1677 8.04219 11.2008 8.02887C11.2306 8.01223 11.2571 8.00224 11.277 7.99558C11.4293 7.94564 11.6047 7.99558 11.81 8.14208C12.0153 8.2919 12.2073 8.47502 12.3861 8.69477C12.5649 8.91452 12.7801 9.15757 13.035 9.43059C13.2867 9.70361 13.5085 9.9067 13.6972 10.0399L13.886 10.1531C14.0118 10.2297 14.1773 10.2996 14.3793 10.3628C14.5812 10.4261 14.7567 10.4428 14.909 10.4095L17.3293 10.3728C17.5677 10.3728 17.7564 10.3329 17.8855 10.253C18.018 10.1731 18.0974 10.0865 18.1206 9.98994C18.1471 9.89339 18.1471 9.78684 18.1239 9.66698C18.1041 9.54379 18.0809 9.46055 18.061 9.41061Z" fill="white"/>
</svg>
