<svg width="1537" height="416" viewBox="0 0 1537 416" fill="none" xmlns="http://www.w3.org/2000/svg">
<path d="M1483.57 22.3853V24.3853H1485.57H1505.3V42.935V44.935H1507.3H1526.06C1530.75 44.935 1534.55 48.7343 1534.55 53.4209V362.028C1534.55 366.715 1530.75 370.514 1526.06 370.514H1507.3H1505.3V372.514V391.065H1485.57H1483.57V393.065V404.68C1483.57 409.366 1479.77 413.165 1475.08 413.165H61.6289C56.9423 413.165 53.1431 409.366 53.1431 404.68V393.065V391.065H51.1431H31.4116V372.514V370.514H29.4116H10.6421C5.95551 370.514 2.15625 366.715 2.15625 362.028V53.4209C2.15625 48.7343 5.95553 44.935 10.6422 44.935H29.4116H31.4116V42.935V24.3853H51.1431H53.1431V22.3853V10.7701C53.1431 6.08346 56.9424 2.28418 61.629 2.28418H1475.08C1479.77 2.28418 1483.57 6.08343 1483.57 10.7701V22.3853Z" stroke="white" stroke-width="4"/>
</svg>
