<svg width="1154" height="416" viewBox="0 0 1154 416" fill="none" xmlns="http://www.w3.org/2000/svg">
<path d="M1100.55 22.6604V24.6604H1102.55H1122.28V43.2101V45.2101H1124.28H1143.05C1147.73 45.2101 1151.53 49.0094 1151.53 53.696V362.304C1151.53 366.99 1147.73 370.789 1143.05 370.789H1124.28H1122.28V372.789V391.34H1102.55H1100.55V393.34V404.955C1100.55 409.641 1096.75 413.441 1092.07 413.441H61.9402C57.2536 413.441 53.4544 409.641 53.4544 404.955V393.34V391.34H51.4544H31.7229V372.789V370.789H29.7229H10.9534C6.26678 370.789 2.46753 366.99 2.46753 362.304V53.6961C2.46753 49.0094 6.26681 45.2101 10.9535 45.2101H29.7229H31.7229V43.2101V24.6604H51.4544H53.4544V22.6604V11.0453C53.4544 6.35861 57.2536 2.55933 61.9403 2.55933H1092.07C1096.75 2.55933 1100.55 6.35858 1100.55 11.0452V22.6604Z" stroke="white" stroke-width="4"/>
</svg>
