<svg width="18" height="16" viewBox="0 0 18 16" fill="none" xmlns="http://www.w3.org/2000/svg">
<path fill-rule="evenodd" clip-rule="evenodd" d="M15.074 2.67163C13.5063 1.25813 12.0158 0.821289 12.0158 0.821289L9.009 11.0624H8.98326L5.95079 0.821289C5.95079 0.821289 4.46023 1.24531 2.89259 2.67163C1.22214 4.18783 -0.216996 6.51363 0.0271376 10.2014C0.219893 13.1183 2.37862 15.5982 2.37862 15.5982L6.55475 15.5854C6.55475 15.5854 2.96971 13.6837 2.10879 10.6897C1.08081 7.15609 2.68701 4.7018 3.92057 3.5325C4.42172 3.0956 5.15413 2.99279 5.42395 3.93083C6.34913 6.92478 8.99612 15.4954 8.99612 15.4954L9.009 15.4955C9.009 15.4955 11.6432 6.92483 12.5812 3.93087C12.8639 2.99283 13.5963 3.09565 14.0845 3.53254C15.3181 4.70185 16.9243 7.15609 15.8963 10.6898C15.0354 13.6837 11.4504 15.5854 11.4504 15.5854L15.6265 15.5983C15.6265 15.5983 17.7981 13.1055 17.978 10.2015C18.1964 6.51363 16.7572 4.18783 15.074 2.67163Z" fill="#2250A3"/>
</svg>
