<svg width="150" height="18" viewBox="0 0 150 18" fill="none" xmlns="http://www.w3.org/2000/svg">
<path fill-rule="evenodd" clip-rule="evenodd" d="M74.1974 0.299805H76.5491V2.65155H74.1974V0.299805Z" fill="#378940"/>
<path fill-rule="evenodd" clip-rule="evenodd" d="M71.7219 2.65143H74.1974V5.00318H71.7219V2.65143Z" fill="#378940"/>
<path fill-rule="evenodd" clip-rule="evenodd" d="M76.5496 2.65143H78.9013V5.00318H76.5496V2.65143Z" fill="#378940"/>
<path fill-rule="evenodd" clip-rule="evenodd" d="M74.1974 5.00305H76.5491V7.47858H74.1974V5.00305Z" fill="#378940"/>
<path fill-rule="evenodd" clip-rule="evenodd" d="M83.6039 2.77533H85.9556V5.12708H83.6039V2.77533Z" fill="#378940"/>
<path fill-rule="evenodd" clip-rule="evenodd" d="M81.1284 5.12695H83.6039V7.60248H81.1284V5.12695Z" fill="#378940"/>
<path fill-rule="evenodd" clip-rule="evenodd" d="M85.9572 5.12665H88.3089V7.60217H85.9572V5.12665Z" fill="#378940"/>
<path fill-rule="evenodd" clip-rule="evenodd" d="M83.6039 7.60248H85.9556V9.95423H83.6039V7.60248Z" fill="#378940"/>
<path fill-rule="evenodd" clip-rule="evenodd" d="M64.5419 2.77533H66.8936V5.12708H64.5419V2.77533Z" fill="#378940"/>
<path fill-rule="evenodd" clip-rule="evenodd" d="M62.1897 5.12695H64.5414V7.60248H62.1897V5.12695Z" fill="#378940"/>
<path fill-rule="evenodd" clip-rule="evenodd" d="M66.8951 5.12665H69.3707V7.60217H66.8951V5.12665Z" fill="#378940"/>
<path fill-rule="evenodd" clip-rule="evenodd" d="M64.5419 7.60248H66.8936V9.95423H64.5419V7.60248Z" fill="#378940"/>
<path fill-rule="evenodd" clip-rule="evenodd" d="M40.6545 17.9997V15.6479H109.845V17.9997H40.6545Z" fill="#378940"/>
<path fill-rule="evenodd" clip-rule="evenodd" d="M32.2368 17.9997V15.6479H0.673828V17.9997H32.2368Z" fill="#378940"/>
<path fill-rule="evenodd" clip-rule="evenodd" d="M149.824 17.9997V15.6479H118.261V17.9997H149.824Z" fill="#378940"/>
</svg>
