<svg width="49" height="44" viewBox="0 0 49 44" fill="none" xmlns="http://www.w3.org/2000/svg">
<path d="M39.9279 13.0523C39.3471 12.3263 38.7663 11.8907 38.1854 11.3824C37.8224 11.092 37.4594 10.8016 37.0964 10.4386C36.8786 10.1482 36.6608 9.93039 36.5882 9.71258C36.443 9.42217 36.3704 9.20436 36.3704 9.05916C36.3704 8.98656 36.3704 8.98656 36.3704 8.98656C36.3704 8.98656 36.443 8.98656 36.5156 8.98656C36.7334 8.98656 37.0964 8.98656 37.532 9.13176H37.6046C38.4759 9.63998 39.2745 10.4386 40.0005 11.3824C40.3635 11.8181 40.6539 12.3263 40.9443 12.8345C40.5087 12.9071 40.2909 12.9797 39.9279 13.0523ZM35.8622 11.3098L35.9348 11.3824C36.0074 11.455 36.0074 11.455 36.08 11.5276L36.2978 11.7455C36.1526 11.8181 36.08 11.9633 36.0074 12.0359C35.8622 12.2537 35.7896 12.4715 35.7169 12.7619C35.6443 13.1975 35.717 13.6331 36.0074 14.1413C36.3704 14.7948 36.9512 15.5934 37.532 16.3194C37.9676 16.8276 38.4032 17.4085 38.6937 17.8441C38.6937 17.9167 38.6937 17.9167 38.6937 17.9893C38.6937 19.0057 38.6211 20.0222 38.3306 20.8208C38.3306 20.8934 38.258 21.0386 38.258 21.1112C38.1854 21.329 38.1128 21.4742 38.0402 21.692C37.4594 23.2893 36.5882 24.9591 35.7169 26.5564C31.3608 34.6879 33.3937 36.5756 36.08 38.9714C36.2978 39.1166 36.443 39.3344 36.7334 39.5523L37.0964 39.9153L37.532 39.6249C44.7197 35.4139 47.9142 30.1865 48.7854 25.0317C49.2936 21.692 48.858 18.4249 47.9142 15.5208C46.8978 12.6167 45.3731 10.003 43.6306 8.11533C41.38 5.50163 38.7663 4.04958 36.806 4.33999C36.5156 4.41259 36.2978 4.48519 36.08 4.6304C35.6443 4.92081 35.4991 5.35643 35.4991 5.86464C35.4991 6.22766 35.6443 6.66327 35.7896 7.02629C35.8622 7.17149 35.9348 7.3167 36.0074 7.4619C35.6443 7.5345 35.3539 7.67971 35.1361 7.97012C34.9183 8.26053 34.7731 8.62354 34.7731 8.98656C34.7731 9.34957 34.9183 9.85779 35.1361 10.2934C35.4265 10.729 35.6443 11.0194 35.8622 11.3098ZM37.6772 12.8345C38.1854 13.1975 38.6937 13.6331 39.1293 14.2865C38.9841 14.6496 38.9115 15.0852 38.8389 15.5934L38.6937 15.3756C38.1128 14.7222 37.6046 13.9961 37.3142 13.4879C37.169 13.2701 37.169 13.0523 37.169 12.9071V12.8345C37.169 12.8345 37.169 12.8345 37.2416 12.8345C37.3142 12.8345 37.4594 12.8345 37.6772 12.8345ZM40.1457 17.9167V17.4085C40.1457 16.3194 40.1457 15.3756 40.3635 14.7948C40.4361 14.577 40.5087 14.5044 40.6539 14.3591C40.7265 14.2865 40.7991 14.2865 40.7991 14.2865C40.8717 14.2865 41.0169 14.3592 41.0895 14.4318C41.38 14.6496 41.5978 15.0126 41.8882 15.5934C42.6142 17.1181 42.7594 18.6427 42.6868 20.0222C42.6142 21.9098 41.9608 23.6523 41.38 24.9591C41.2347 25.3221 41.38 25.7578 41.743 25.903C42.106 26.0482 42.5416 25.903 42.6868 25.54C43.4128 24.0879 44.0663 22.1276 44.1389 20.0222C44.2115 18.4249 43.9936 16.6824 43.195 14.94C43.195 14.8674 43.1224 14.8674 43.1224 14.7948C42.6868 13.3427 41.8882 11.8181 40.9443 10.4386C40.0731 9.27697 39.0567 8.26053 37.895 7.67971C37.6046 7.3167 37.2416 6.88108 37.0964 6.44547C37.0238 6.22766 36.9512 6.00985 36.9512 5.86464V5.79204C36.9512 5.79204 37.0238 5.79204 37.0964 5.71944C38.5485 5.50163 40.6539 6.80848 42.6142 8.98656C44.2115 10.8016 45.6635 13.1975 46.6073 15.9564C47.5512 18.6427 47.9868 21.692 47.4786 24.7413C46.6799 29.3879 43.8484 34.1797 37.3868 38.0276L37.0964 37.8098C34.9183 35.8495 33.1759 34.2523 37.0238 27.0646C37.895 25.4674 38.7663 23.7249 39.4197 22.055C40.0731 20.6756 40.3635 19.2235 40.1457 17.9167Z" fill="#378940"/>
<path d="M37.7489 39.6976C35.7886 41.0045 33.6832 42.0209 31.4325 42.6743C29.1818 43.3277 26.8585 43.6907 24.5352 43.6907C22.2846 43.6907 20.0339 43.3277 17.8558 42.7469C15.6777 42.0935 13.6448 41.1497 11.6846 39.9154L12.4832 38.7538C14.2983 39.9154 16.1859 40.7866 18.2188 41.4401C20.2517 42.0209 22.3572 42.3839 24.5352 42.3839C26.7133 42.3839 28.964 42.0209 30.9969 41.4401C33.1023 40.7866 35.0626 39.8428 36.8777 38.6086L37.7489 39.6976ZM32.7393 39.5524C31.4325 40.1332 30.053 40.4962 28.6736 40.7866C27.2941 41.0771 25.8421 41.2223 24.4626 41.2223C23.0106 41.2223 21.4859 41.0771 20.0339 40.7866C18.5818 40.4962 17.2024 39.988 15.8229 39.4072L16.4037 38.1003C17.638 38.6812 19.0174 39.1168 20.3243 39.4072C21.7037 39.6976 23.0832 39.8428 24.4626 39.8428C25.7695 39.8428 27.0763 39.6976 28.3832 39.4798C29.69 39.1894 30.9243 38.8264 32.1585 38.3182L32.7393 39.5524ZM34.5544 35.7771C33.1023 36.7209 31.4325 37.4469 29.7626 37.9551C28.0928 38.4634 26.3503 38.6812 24.5352 38.6812C22.7928 38.6812 21.1229 38.4634 19.453 37.9551C17.7832 37.4469 16.2585 36.7935 14.7339 35.8497L15.4599 34.6154C16.8394 35.4867 18.2914 36.1401 19.8161 36.5757C21.3407 37.0113 22.938 37.2291 24.5352 37.2291C26.2051 37.2291 27.8023 37.0113 29.327 36.5031C30.8517 36.0675 32.3763 35.3414 33.7558 34.4702L34.5544 35.7771Z" fill="#378940"/>
<path d="M9.07217 13.0523C9.65299 12.3263 10.2338 11.8907 10.8146 11.3824C11.1776 11.092 11.5407 10.8016 11.9037 10.4386C12.1215 10.1482 12.3393 9.93039 12.4119 9.71258C12.5571 9.42217 12.6297 9.20436 12.6297 9.05916C12.6297 8.98656 12.6297 8.98656 12.6297 8.98656C12.6297 8.98656 12.5571 8.98656 12.4845 8.98656C12.2667 8.98656 11.9037 8.98656 11.4681 9.13176H11.3955C10.5242 9.63998 9.72559 10.4386 8.99957 11.3824C8.63655 11.8181 8.34614 12.3263 8.05573 12.8345C8.49135 12.9071 8.78176 12.9797 9.07217 13.0523ZM13.1379 11.3098L13.0653 11.3824C12.9927 11.455 12.9927 11.455 12.9201 11.5276L12.7023 11.7455C12.8475 11.8181 12.9201 11.9633 12.9927 12.0359C13.1379 12.2537 13.2105 12.4715 13.2831 12.7619C13.3557 13.1975 13.2831 13.6331 12.9927 14.1413C12.6297 14.7948 12.0489 15.5934 11.4681 16.3194C11.0324 16.8276 10.5968 17.4085 10.3064 17.8441C10.3064 17.9167 10.3064 17.9167 10.3064 17.9893C10.3064 19.0057 10.379 20.0222 10.6694 20.8208C10.6694 20.8934 10.742 21.0386 10.742 21.1112C10.8146 21.329 10.8872 21.4742 10.9598 21.692C11.5407 23.2893 12.4119 24.9591 13.2831 26.5564C17.6393 34.6879 15.6064 36.5756 12.9201 38.9714C12.7023 39.1166 12.5571 39.3344 12.2667 39.5523L11.9037 39.9153L11.4681 39.6249C4.2804 35.4139 1.08588 30.1865 0.214651 25.0317C-0.293567 21.692 0.142048 18.4249 1.08588 15.5208C2.10232 12.6167 3.62697 10.003 5.36944 8.11533C7.62012 5.50163 10.2338 4.04958 12.1941 4.33999C12.4845 4.41259 12.7023 4.48519 12.9201 4.6304C13.3557 4.92081 13.5009 5.35643 13.5009 5.86464C13.5009 6.22766 13.3557 6.66327 13.2105 7.02629C13.0653 7.3167 12.9927 7.4619 12.9201 7.60711C13.2831 7.67971 13.5735 7.82491 13.7913 8.11533C14.0091 8.40574 14.1544 8.76875 14.1544 9.13176C14.1544 9.49478 14.0091 10.003 13.7913 10.4386C13.5735 10.729 13.4283 11.0194 13.1379 11.3098ZM11.3955 12.8345C10.8872 13.1975 10.379 13.6331 9.9434 14.2865C10.0886 14.6496 10.1612 15.0852 10.2338 15.5934L10.379 15.3756C10.9598 14.7222 11.4681 13.9961 11.7585 13.4879C11.9037 13.2701 11.9037 13.0523 11.9037 12.9071V12.8345C11.9037 12.8345 11.9037 12.8345 11.8311 12.8345C11.7585 12.8345 11.6133 12.8345 11.3955 12.8345ZM8.85436 17.9167V17.4085C8.85436 16.3194 8.85436 15.3756 8.63655 14.7948C8.56395 14.577 8.49135 14.5044 8.34614 14.3591C8.27354 14.2865 8.20094 14.2865 8.20094 14.2865C8.12834 14.2865 7.98313 14.3592 7.91053 14.4318C7.62012 14.6496 7.40231 15.0126 7.1119 15.5934C6.38587 17.1181 6.24067 18.6427 6.31327 20.0222C6.38587 21.9098 7.0393 23.6523 7.62012 24.9591C7.76532 25.3221 7.62012 25.7578 7.25711 25.903C6.89409 26.0482 6.45848 25.903 6.31327 25.54C5.58724 24.0879 4.93382 22.1276 4.86122 20.0222C4.78862 18.4249 5.00642 16.6824 5.80505 14.94C5.80505 14.8674 5.87766 14.8674 5.87766 14.7948C6.31327 13.3427 7.1119 11.8181 8.05573 10.4386C8.92696 9.27697 9.9434 8.26053 11.105 7.67971C11.3955 7.3167 11.7585 6.88108 11.9037 6.44547C11.9763 6.22766 12.0489 6.00985 12.0489 5.86464V5.79204C12.0489 5.79204 11.9763 5.79204 11.9037 5.71944C10.4516 5.50163 8.34614 6.80848 6.38587 8.98656C4.78862 10.8016 3.33656 13.1975 2.39273 15.9564C1.4489 18.6427 1.01328 21.692 1.5215 24.7413C2.32013 29.3879 5.15163 34.1797 11.6133 38.0276L11.9037 37.8098C14.0817 35.8495 15.8242 34.2523 11.9763 27.0646C11.105 25.4674 10.2338 23.7249 9.58039 22.055C8.99957 20.6756 8.63655 19.2235 8.85436 17.9167Z" fill="#378940"/>
<path d="M25.0447 9.49475V12.3262L26.8597 10.5112L26.7871 10.4386C26.2789 9.93036 25.6981 9.63995 25.0447 9.49475ZM25.0447 14.2865V16.8276L27.5131 14.3591L27.6583 13.9961C27.731 13.8509 27.731 13.6331 27.8036 13.4879C27.8036 13.3427 27.8762 13.1249 27.8762 12.9071C27.8762 12.4715 27.8036 12.1084 27.6583 11.7454L25.0447 14.2865ZM25.0447 18.7153V21.2564L30.272 16.029C29.8364 15.5934 29.3282 15.2304 28.7474 15.0125L25.0447 18.7153ZM25.0447 23.2166V25.6125L30.7077 19.9495C30.7803 19.8043 30.8529 19.7317 30.8529 19.5865C30.9981 19.2235 31.0707 18.7879 31.0707 18.2797C31.0707 17.9167 30.9981 17.5536 30.9255 17.2632L25.0447 23.2166ZM25.0447 27.5002H27.6583C28.6022 27.5002 29.4734 27.1372 30.1268 26.4838C30.7803 25.8303 31.1433 25.0317 31.1433 24.0153C31.1433 23.5797 31.0707 23.144 30.9255 22.7084C30.8529 22.4906 30.7077 22.2002 30.5625 21.9824L25.0447 27.5002ZM21.7775 10.5838L23.5926 12.3989V9.49475C22.9392 9.63995 22.3584 9.93036 21.9227 10.4386C21.8501 10.4386 21.7775 10.5112 21.7775 10.5838ZM23.5926 14.3591L21.0515 11.818C20.9789 12.1084 20.9063 12.4715 20.9063 12.8345C20.9063 13.0523 20.9063 13.1975 20.9789 13.4153C20.9789 13.6331 21.0515 13.7783 21.1241 13.9235L21.3419 14.5769L23.5926 16.8276V14.3591ZM23.4474 27.5002L18.1474 22.2002C18.0022 22.3454 17.9296 22.5632 17.857 22.781C17.7118 23.144 17.6392 23.5797 17.6392 24.0879C17.6392 25.0317 18.0022 25.9029 18.6556 26.5564C19.309 27.2098 20.1077 27.5728 21.0515 27.5728H23.4474V27.5002ZM18.583 20.6755L23.5926 25.6851V23.2892L22.6488 22.3454C20.9789 20.7482 19.3816 19.0783 17.7118 17.481C17.6392 17.7714 17.6392 18.0619 17.6392 18.3523C17.6392 18.7879 17.7118 19.2235 17.857 19.6591C18.0022 19.9495 18.2926 20.3851 18.583 20.6755ZM18.3652 16.1016C20.1077 17.844 21.8501 19.5865 23.5926 21.329V18.7879L19.8173 15.0125C19.2364 15.2304 18.8008 15.5934 18.4378 15.9564C18.3652 16.029 18.3652 16.1016 18.3652 16.1016ZM25.0447 28.9522V34.0344H23.5926V28.9522H21.0515C19.6721 28.9522 18.5104 28.3714 17.6392 27.5002C16.768 26.629 16.1871 25.3947 16.1871 24.0879C16.1871 23.4344 16.3323 22.8536 16.5501 22.2728C16.6954 21.9098 16.9132 21.5468 17.131 21.1838C16.9132 20.8208 16.6954 20.5303 16.5501 20.0947C16.3323 19.5139 16.1871 18.9331 16.1871 18.2797C16.1871 17.0454 16.6227 15.9564 17.3488 15.0851C17.9296 14.4317 18.6556 13.9235 19.5269 13.6331C19.4543 13.3427 19.4543 13.1249 19.4543 12.8345C19.4543 11.5276 20.0351 10.2934 20.9063 9.42214C21.7775 8.55091 23.0118 7.97009 24.3186 7.97009C25.6255 7.97009 26.8597 8.55091 27.7309 9.42214C28.6022 10.2934 29.183 11.5276 29.183 12.8345C29.183 13.1249 29.183 13.3427 29.1104 13.6331C29.9816 13.9235 30.7077 14.4317 31.2885 15.0851C32.0145 15.9564 32.4501 17.0454 32.4501 18.2797C32.4501 18.9331 32.3049 19.5139 32.0871 20.0947C31.9419 20.4577 31.7241 20.8208 31.5063 21.1838C31.7241 21.4742 31.9419 21.8372 32.0871 22.2728C32.3049 22.8536 32.4501 23.4344 32.4501 24.0879C32.4501 25.4673 31.8693 26.629 30.9981 27.5002C30.1268 28.3714 28.8926 28.9522 27.5857 28.9522H25.0447Z" fill="#378940"/>
<path fill-rule="evenodd" clip-rule="evenodd" d="M23.6675 0.34668H25.0469V1.72613H23.6675V0.34668Z" fill="#F27D02"/>
<path fill-rule="evenodd" clip-rule="evenodd" d="M22.2854 1.72607H23.6649V3.10552H22.2854V1.72607Z" fill="#F27D02"/>
<path fill-rule="evenodd" clip-rule="evenodd" d="M25.043 1.72607H26.4224V3.10552H25.043V1.72607Z" fill="#F27D02"/>
<path fill-rule="evenodd" clip-rule="evenodd" d="M23.6675 3.10535H25.0469V4.5574H23.6675V3.10535Z" fill="#F27D02"/>
<path fill-rule="evenodd" clip-rule="evenodd" d="M29.1826 1.79834H30.5621V3.17779H29.1826V1.79834Z" fill="#F27D02"/>
<path fill-rule="evenodd" clip-rule="evenodd" d="M27.8049 3.17822H29.1844V4.63027H27.8049V3.17822Z" fill="#F27D02"/>
<path fill-rule="evenodd" clip-rule="evenodd" d="M30.5625 3.17822H31.9419V4.63027H30.5625V3.17822Z" fill="#F27D02"/>
<path fill-rule="evenodd" clip-rule="evenodd" d="M29.1826 4.62988H30.5621V6.00933H29.1826V4.62988Z" fill="#F27D02"/>
<path fill-rule="evenodd" clip-rule="evenodd" d="M18.001 1.79834H19.3804V3.17779H18.001V1.79834Z" fill="#F27D02"/>
<path fill-rule="evenodd" clip-rule="evenodd" d="M16.6233 3.17822H18.0027V4.63027H16.6233V3.17822Z" fill="#F27D02"/>
<path fill-rule="evenodd" clip-rule="evenodd" d="M19.3831 3.17822H20.8351V4.63027H19.3831V3.17822Z" fill="#F27D02"/>
<path fill-rule="evenodd" clip-rule="evenodd" d="M18.001 4.62988H19.3804V6.00933H18.001V4.62988Z" fill="#F27D02"/>
</svg>
