<svg width="277" height="53" viewBox="0 0 277 53" fill="none" xmlns="http://www.w3.org/2000/svg">
  <path d="M9.19894 47.5127C8.7286 48.8715 7.99696 50.1257 7.00402 51.2754C6.01109 52.4251 4.54781 53 2.6142 53H0.184116V52.2161C0.497675 52.2161 0.915754 52.1377 1.43835 51.9809C1.96095 51.7719 2.50968 51.4583 3.08454 51.0403C3.65939 50.6222 4.23425 50.0996 4.80911 49.4725C5.38397 48.7931 5.88044 47.9569 6.29851 46.964L21.1142 6.35811C21.3755 5.57422 21.5061 4.97323 21.5061 4.55515C21.5061 3.77125 21.271 3.17026 20.8006 2.75218C20.3825 2.28185 19.9383 2.04668 19.468 2.04668V1.26278H25.8959L43.4552 49.2373C43.7165 49.9689 44.213 50.6483 44.9447 51.2754C45.6763 51.8503 46.4863 52.1638 47.3747 52.2161V53H36.165V52.2161C36.5831 52.2161 37.0012 52.0593 37.4192 51.7458C37.8896 51.3799 38.1247 50.9096 38.1247 50.3347C38.1247 50.178 38.0725 49.9428 37.968 49.6292L23.2307 9.02336L9.19894 47.5127ZM58.7008 52.2161H59.0928C59.5108 52.2161 59.8767 52.0855 60.1902 51.8242C60.5038 51.5106 60.7651 51.1448 60.9741 50.7267C61.2354 50.3086 61.4183 49.8644 61.5229 49.3941C61.6796 48.9237 61.758 48.4795 61.758 48.0614V6.12294C61.758 5.75712 61.6796 5.33905 61.5229 4.86871C61.4183 4.39837 61.2354 3.95416 60.9741 3.53608C60.7651 3.118 60.5038 2.77831 60.1902 2.51701C59.8767 2.20346 59.5108 2.04668 59.0928 2.04668H58.7008V1.26278H88.8809V8.55302H88.097C87.9924 7.35105 87.5221 6.30585 86.686 5.41743C85.8498 4.47676 84.5433 4.00642 82.7665 4.00642H67.0101V23.839H80.0228C81.2248 23.839 82.2177 23.4732 83.0016 22.7416C83.8378 22.0099 84.2559 21.1476 84.2559 20.1547H85.0398V29.9534H84.2559C84.2559 29.0127 83.8639 28.2027 83.08 27.5233C82.2961 26.844 81.2771 26.5043 80.0228 26.5043H67.0101V50.2564H84.1775C85.1704 50.2564 86.0327 50.0212 86.7643 49.5509C87.496 49.0805 88.097 48.5318 88.5673 47.9047C89.0899 47.2253 89.4557 46.5198 89.6648 45.7881C89.9261 45.0042 90.0567 44.351 90.0567 43.8284H90.8406V53H58.7008V52.2161ZM102.235 52.2161H102.627C103.045 52.2161 103.411 52.0593 103.724 51.7458C104.038 51.4322 104.299 51.0664 104.508 50.6483C104.769 50.2302 104.952 49.786 105.057 49.3157C105.161 48.7931 105.213 48.3227 105.213 47.9047V6.12294C105.213 5.75712 105.161 5.33905 105.057 4.86871C104.952 4.39837 104.769 3.95416 104.508 3.53608C104.299 3.118 104.038 2.77831 103.724 2.51701C103.411 2.20346 103.071 2.04668 102.705 2.04668H102.313V1.26278H113.444V2.04668H113.052C112.634 2.04668 112.269 2.20346 111.955 2.51701C111.641 2.77831 111.354 3.118 111.093 3.53608C110.884 3.95416 110.701 4.39837 110.544 4.86871C110.439 5.33905 110.387 5.75712 110.387 6.12294V22.3496L128.574 4.24159C128.992 3.82351 129.201 3.32704 129.201 2.75218C129.201 2.28185 128.992 2.04668 128.574 2.04668V1.26278H137.04V2.04668C135.995 2.09894 135.054 2.41249 134.218 2.98735C133.434 3.56221 132.572 4.31998 131.631 5.26066L113.052 23.839C116.449 23.9435 119.193 24.6752 121.283 26.0339C123.374 27.3927 125.02 29.274 126.222 31.678L132.415 44.2204C132.781 45.0042 133.251 45.8665 133.826 46.8072C134.453 47.6956 135.132 48.5579 135.864 49.3941C136.648 50.178 137.51 50.8573 138.451 51.4322C139.391 51.9548 140.384 52.2161 141.43 52.2161V53H137.51C135.995 53 134.688 52.791 133.591 52.3729C132.493 51.9025 131.526 51.3016 130.69 50.5699C129.906 49.786 129.201 48.9237 128.574 47.9831C127.999 47.0424 127.476 46.1017 127.006 45.161L120.656 32.5403C119.663 30.6067 118.278 29.1434 116.502 28.1505C114.777 27.1053 112.739 26.5304 110.387 26.4259V47.9047C110.387 48.3227 110.439 48.767 110.544 49.2373C110.649 49.7076 110.805 50.178 111.014 50.6483C111.223 51.0664 111.485 51.4322 111.798 51.7458C112.112 52.0071 112.451 52.1638 112.817 52.2161H113.366V53H102.235V52.2161ZM181.531 52.2161H181.923C183.178 52.2161 183.805 51.6412 183.805 50.4915C183.805 50.0735 183.726 49.6292 183.57 49.1589L176.514 30.1102H162.796L155.976 48.8453C155.82 49.2634 155.741 49.6554 155.741 50.0212C155.741 50.7006 155.924 51.2493 156.29 51.6674C156.656 52.0332 157.048 52.2161 157.466 52.2161H157.858V53H149.156V52.2161H149.548C150.228 52.2161 150.881 51.8242 151.508 51.0403C152.188 50.2041 152.736 49.2373 153.154 48.1398L171.106 0.322101L188.665 47.6695C189.031 48.7147 189.527 49.7338 190.154 50.7267C190.834 51.7196 191.696 52.2161 192.741 52.2161H193.133V53H181.531V52.2161ZM163.58 27.4449H175.652L169.616 11.0615L163.58 27.4449ZM203.233 1.26278H214.364C220.165 1.26278 224.555 2.38637 227.534 4.63354C230.565 6.82845 232.081 9.96404 232.081 14.0403C232.081 16.2352 231.558 18.195 230.513 19.9195C229.468 21.6441 228.083 23.1074 226.358 24.3094C224.686 25.4591 222.778 26.3475 220.636 26.9746C218.545 27.6017 216.455 27.9153 214.364 27.9153H211.386V47.9047C211.386 48.3227 211.438 48.7931 211.542 49.3157C211.647 49.786 211.804 50.2302 212.013 50.6483C212.274 51.0664 212.535 51.4322 212.797 51.7458C213.11 52.0593 213.476 52.2161 213.894 52.2161H214.286V53H203.233V52.2161H203.625C203.991 52.2161 204.331 52.0593 204.644 51.7458C204.958 51.4322 205.219 51.0664 205.428 50.6483C205.637 50.2302 205.794 49.786 205.898 49.3157C206.003 48.7931 206.055 48.3227 206.055 47.9047V6.12294C206.055 5.3913 205.846 4.55515 205.428 3.61447C205.01 2.6738 204.409 2.1512 203.625 2.04668H203.233V1.26278ZM211.386 4.00642V25.1716H213.737C215.828 25.1716 217.683 24.8842 219.303 24.3094C220.975 23.7345 222.36 22.9767 223.458 22.0361C224.555 21.0954 225.391 20.0241 225.966 18.8221C226.541 17.6201 226.828 16.392 226.828 15.1378C226.828 13.6222 226.567 12.2112 226.045 10.9047C225.574 9.54596 224.764 8.37012 223.614 7.37718C222.517 6.33198 221.054 5.52195 219.225 4.9471C217.396 4.31998 215.148 4.00642 212.483 4.00642H211.386ZM244.243 52.2161H244.635C245 52.2161 245.34 52.0855 245.654 51.8242C245.967 51.5106 246.228 51.1448 246.437 50.7267C246.647 50.3086 246.803 49.8644 246.908 49.3941C247.065 48.9237 247.143 48.5057 247.143 48.1398V6.35811C247.143 5.99229 247.091 5.54808 246.986 5.02548C246.882 4.50289 246.699 4.03255 246.437 3.61447C246.228 3.19639 245.967 2.83057 245.654 2.51701C245.34 2.20346 245 2.04668 244.635 2.04668H244.243V1.26278H255.296V2.04668H254.747C254.015 2.1512 253.44 2.72606 253.022 3.77125C252.604 4.76419 252.395 5.62647 252.395 6.35811V23.2119H256.785C259.189 23.2119 261.541 23.4732 263.84 23.9958C266.192 24.4661 268.256 25.3023 270.033 26.5043C271.862 27.654 273.325 29.1957 274.423 31.1293C275.52 33.0106 276.069 35.3623 276.069 38.1843C276.069 40.4838 275.598 42.548 274.658 44.3771C273.717 46.2062 272.437 47.774 270.817 49.0805C269.197 50.3347 267.263 51.3016 265.016 51.9809C262.821 52.6603 260.443 53 257.882 53H244.243V52.2161ZM253.571 50.2564C259.633 50.2564 263.971 49.2112 266.584 47.1208C269.249 45.0304 270.582 42.1561 270.582 38.4979C270.582 34.7875 269.249 31.7564 266.584 29.4047C263.971 27.053 260.103 25.8772 254.982 25.8772H252.395V50.2564H253.571Z" fill="white"/>
</svg>
